<svg width="17" height="21" viewBox="0 0 17 21" fill="none" xmlns="http://www.w3.org/2000/svg">
<path d="M14.875 4.71393H12.75C12.75 2.50393 10.8481 0.713928 8.5 0.713928C6.15188 0.713928 4.25 2.50393 4.25 4.71393H2.125C0.95625 4.71393 0 5.61393 0 6.71393V18.7139C0 19.8139 0.95625 20.7139 2.125 20.7139H14.875C16.0438 20.7139 17 19.8139 17 18.7139V6.71393C17 5.61393 16.0438 4.71393 14.875 4.71393ZM6.375 8.71393C6.375 9.26393 5.89687 9.71393 5.3125 9.71393C4.72813 9.71393 4.25 9.26393 4.25 8.71393V6.71393H6.375V8.71393ZM8.5 2.71393C9.66875 2.71393 10.625 3.61393 10.625 4.71393H6.375C6.375 3.61393 7.33125 2.71393 8.5 2.71393ZM12.75 8.71393C12.75 9.26393 12.2719 9.71393 11.6875 9.71393C11.1031 9.71393 10.625 9.26393 10.625 8.71393V6.71393H12.75V8.71393Z" fill="url(#paint0_linear_2631_1051)"/>
<defs>
<linearGradient id="paint0_linear_2631_1051" x1="8.5" y1="0.713928" x2="8.5" y2="20.7139" gradientUnits="userSpaceOnUse">
<stop stop-color="#8E8E8E"/>
<stop offset="1" stop-color="#282828"/>
</linearGradient>
</defs>
</svg>
