<svg width="18" height="18" viewBox="0 0 18 18" fill="none" xmlns="http://www.w3.org/2000/svg">
<path d="M11.5821 12.2095V13.6044H1.5791V12.2095C1.5791 12.2095 1.5791 9.4199 6.5806 9.4199C11.5821 9.4199 11.5821 12.2095 11.5821 12.2095ZM9.08134 5.58416C9.08134 5.10138 8.93468 4.62946 8.65989 4.22805C8.3851 3.82664 7.99454 3.51378 7.53759 3.32903C7.08064 3.14428 6.57782 3.09594 6.09272 3.19013C5.60763 3.28431 5.16204 3.51679 4.8123 3.85816C4.46256 4.19953 4.22439 4.63446 4.1279 5.10795C4.03141 5.58145 4.08093 6.07224 4.27021 6.51826C4.45948 6.96428 4.78001 7.3455 5.19125 7.61371C5.6025 7.88193 6.08599 8.02508 6.5806 8.02508C7.24383 8.02508 7.87991 7.76792 8.34889 7.31015C8.81787 6.85239 9.08134 6.23153 9.08134 5.58416ZM11.5392 9.4199C11.9785 9.75169 12.3379 10.1734 12.5922 10.6554C12.8465 11.1373 12.9894 11.6678 13.0111 12.2095V13.6044H15.8691V12.2095C15.8691 12.2095 15.8691 9.67794 11.5392 9.4199ZM10.8676 3.14323C10.3758 3.14055 9.89481 3.28407 9.48861 3.5547C9.92262 4.14661 10.156 4.85626 10.156 5.58416C10.156 6.31205 9.92262 7.0217 9.48861 7.61361C9.89481 7.88424 10.3758 8.02776 10.8676 8.02508C11.5308 8.02508 12.1669 7.76792 12.6359 7.31015C13.1049 6.85239 13.3683 6.23153 13.3683 5.58416C13.3683 4.93678 13.1049 4.31592 12.6359 3.85816C12.1669 3.40039 11.5308 3.14323 10.8676 3.14323Z" fill="#222222"/>
</svg>
