<svg width="18" height="17" viewBox="0 0 18 17" fill="none" xmlns="http://www.w3.org/2000/svg">
<g clip-path="url(#clip0_3041_38)">
<path d="M8.72447 10.1768C7.36009 10.1768 6.0516 9.64781 5.08684 8.70612C4.12208 7.76444 3.58008 6.48724 3.58008 5.1555C3.58008 3.82375 4.12208 2.54656 5.08684 1.60487C6.0516 0.663188 7.36009 0.134155 8.72447 0.134155C10.0888 0.134155 11.3973 0.663188 12.3621 1.60487C13.3269 2.54656 13.8689 3.82375 13.8689 5.1555C13.8689 6.48724 13.3269 7.76444 12.3621 8.70612C11.3973 9.64781 10.0888 10.1768 8.72447 10.1768ZM8.72447 7.66617C9.40666 7.66617 10.0609 7.40165 10.5433 6.93081C11.0257 6.45997 11.2967 5.82137 11.2967 5.1555C11.2967 4.48963 11.0257 3.85103 10.5433 3.38019C10.0609 2.90934 9.40666 2.64483 8.72447 2.64483C8.04228 2.64483 7.38803 2.90934 6.90565 3.38019C6.42327 3.85103 6.15227 4.48963 6.15227 5.1555C6.15227 5.82137 6.42327 6.45997 6.90565 6.93081C7.38803 7.40165 8.04228 7.66617 8.72447 7.66617ZM12.1541 9.96762V16.872L8.72447 13.5244L5.29488 16.872V9.96762C6.29986 10.655 7.49729 11.0238 8.72447 11.0238C9.95165 11.0238 11.1491 10.655 12.1541 9.96762Z" fill="#222222"/>
</g>
<defs>
<clipPath id="clip0_3041_38">
<rect width="17.148" height="16.7378" fill="white" transform="translate(0.150391 0.134155)"/>
</clipPath>
</defs>
</svg>
