<svg width="17" height="19" viewBox="0 0 17 19" fill="none" xmlns="http://www.w3.org/2000/svg">
<path d="M0.944444 10.7139H6.61111C7.13056 10.7139 7.55556 10.2639 7.55556 9.71393V1.71393C7.55556 1.16393 7.13056 0.713928 6.61111 0.713928H0.944444C0.425 0.713928 0 1.16393 0 1.71393V9.71393C0 10.2639 0.425 10.7139 0.944444 10.7139ZM0.944444 18.7139H6.61111C7.13056 18.7139 7.55556 18.2639 7.55556 17.7139V13.7139C7.55556 13.1639 7.13056 12.7139 6.61111 12.7139H0.944444C0.425 12.7139 0 13.1639 0 13.7139V17.7139C0 18.2639 0.425 18.7139 0.944444 18.7139ZM10.3889 18.7139H16.0556C16.575 18.7139 17 18.2639 17 17.7139V9.71393C17 9.16393 16.575 8.71393 16.0556 8.71393H10.3889C9.86944 8.71393 9.44444 9.16393 9.44444 9.71393V17.7139C9.44444 18.2639 9.86944 18.7139 10.3889 18.7139ZM9.44444 1.71393V5.71393C9.44444 6.26393 9.86944 6.71393 10.3889 6.71393H16.0556C16.575 6.71393 17 6.26393 17 5.71393V1.71393C17 1.16393 16.575 0.713928 16.0556 0.713928H10.3889C9.86944 0.713928 9.44444 1.16393 9.44444 1.71393Z" fill="#4093F4" fill-opacity="0.97"/>
</svg>
