<svg width="20" height="20" viewBox="0 0 20 20" fill="none" xmlns="http://www.w3.org/2000/svg">
<path fill-rule="evenodd" clip-rule="evenodd" d="M6.66667 5.65243C6.66667 4.80951 7.01786 4.00111 7.64298 3.40508C8.2681 2.80905 9.11594 2.4742 10 2.4742C10.8841 2.4742 11.7319 2.80905 12.357 3.40508C12.9821 4.00111 13.3333 4.80951 13.3333 5.65243C13.3333 6.49535 12.9821 7.30374 12.357 7.89977C11.7319 8.49581 10.8841 8.83066 10 8.83066C9.11594 8.83066 8.2681 8.49581 7.64298 7.89977C7.01786 7.30374 6.66667 6.49535 6.66667 5.65243ZM6.66667 10.4198C5.5616 10.4198 4.50179 10.8383 3.72039 11.5834C2.93899 12.3284 2.5 13.3389 2.5 14.3926C2.5 15.0247 2.76339 15.631 3.23223 16.0781C3.70107 16.5251 4.33696 16.7762 5 16.7762H15C15.663 16.7762 16.2989 16.5251 16.7678 16.0781C17.2366 15.631 17.5 15.0247 17.5 14.3926C17.5 13.3389 17.061 12.3284 16.2796 11.5834C15.4982 10.8383 14.4384 10.4198 13.3333 10.4198H6.66667Z" fill="#7B7B7B"/>
</svg>
