<svg width="80" height="24" viewBox="0 0 80 24" fill="none" xmlns="http://www.w3.org/2000/svg">
<path d="M22.56 12.25C22.56 11.47 22.49 10.72 22.36 10H12V14.26H17.92C17.66 15.63 16.88 16.79 15.71 17.57V20.34H19.28C21.36 18.42 22.56 15.6 22.56 12.25Z" fill="#4285F4"/>
<path d="M12.0002 23C14.9702 23 17.4602 22.02 19.2802 20.34L15.7102 17.57C14.7302 18.23 13.4802 18.63 12.0002 18.63C9.14018 18.63 6.71018 16.7 5.84018 14.1H2.18018V16.94C3.99018 20.53 7.70018 23 12.0002 23Z" fill="#34A853"/>
<path d="M5.84 14.09C5.62 13.43 5.49 12.73 5.49 12C5.49 11.27 5.62 10.57 5.84 9.91001V7.07001H2.18C1.43 8.55001 1 10.22 1 12C1 13.78 1.43 15.45 2.18 16.93L5.03 14.71L5.84 14.09Z" fill="#FBBC05"/>
<path d="M12.0002 5.38C13.6202 5.38 15.0602 5.94 16.2102 7.02L19.3602 3.87C17.4502 2.09 14.9702 1 12.0002 1C7.70018 1 3.99018 3.47 2.18018 7.07L5.84018 9.91C6.71018 7.31 9.14018 5.38 12.0002 5.38Z" fill="#EA4335"/>
<path d="M40.1932 10.5C40.0838 10.1652 39.9396 9.86529 39.7607 9.60014C39.585 9.33168 39.3745 9.10298 39.1293 8.91406C38.8873 8.72514 38.6122 8.58097 38.304 8.48153C37.9957 8.3821 37.6577 8.33239 37.2898 8.33239C36.6866 8.33239 36.138 8.48816 35.6442 8.79972C35.1503 9.11127 34.7576 9.57031 34.4659 10.1768C34.1742 10.7834 34.0284 11.5275 34.0284 12.4091C34.0284 13.2907 34.1759 14.0348 34.4709 14.6413C34.7659 15.2479 35.1652 15.7069 35.669 16.0185C36.1728 16.33 36.7396 16.4858 37.3693 16.4858C37.9527 16.4858 38.4664 16.3615 38.9105 16.1129C39.358 15.861 39.706 15.5064 39.9545 15.049C40.2064 14.5883 40.3324 14.0464 40.3324 13.4233L40.7102 13.5028H37.6477V12.4091H41.5256V13.5028C41.5256 14.3414 41.3466 15.0705 40.9886 15.6903C40.634 16.3101 40.1435 16.7907 39.517 17.1321C38.8939 17.4702 38.178 17.6392 37.3693 17.6392C36.4678 17.6392 35.6757 17.4271 34.9929 17.0028C34.3134 16.5786 33.7831 15.9754 33.402 15.1932C33.0241 14.411 32.8352 13.483 32.8352 12.4091C32.8352 11.6037 32.9429 10.8795 33.1584 10.2365C33.3771 9.5902 33.6854 9.04001 34.0831 8.58594C34.4808 8.13187 34.9515 7.78385 35.495 7.5419C36.0386 7.29995 36.6368 7.17898 37.2898 7.17898C37.8267 7.17898 38.3272 7.26018 38.7912 7.42258C39.2585 7.58168 39.6745 7.80871 40.0391 8.10369C40.407 8.39536 40.7135 8.74503 40.9588 9.1527C41.2041 9.55705 41.3731 10.0062 41.4659 10.5H40.1932ZM46.5804 17.6591C45.891 17.6591 45.2862 17.495 44.7658 17.1669C44.2488 16.8388 43.8444 16.3797 43.5527 15.7898C43.2644 15.1998 43.1202 14.5104 43.1202 13.7216C43.1202 12.9261 43.2644 12.2318 43.5527 11.6385C43.8444 11.0452 44.2488 10.5845 44.7658 10.2564C45.2862 9.92827 45.891 9.7642 46.5804 9.7642C47.2698 9.7642 47.873 9.92827 48.3901 10.2564C48.9105 10.5845 49.3148 11.0452 49.6032 11.6385C49.8948 12.2318 50.0407 12.9261 50.0407 13.7216C50.0407 14.5104 49.8948 15.1998 49.6032 15.7898C49.3148 16.3797 48.9105 16.8388 48.3901 17.1669C47.873 17.495 47.2698 17.6591 46.5804 17.6591ZM46.5804 16.6051C47.1041 16.6051 47.535 16.4709 47.873 16.2024C48.2111 15.9339 48.4614 15.581 48.6238 15.1435C48.7862 14.706 48.8674 14.232 48.8674 13.7216C48.8674 13.2112 48.7862 12.7356 48.6238 12.2947C48.4614 11.8539 48.2111 11.4976 47.873 11.2259C47.535 10.9541 47.1041 10.8182 46.5804 10.8182C46.0568 10.8182 45.6259 10.9541 45.2878 11.2259C44.9498 11.4976 44.6995 11.8539 44.5371 12.2947C44.3747 12.7356 44.2935 13.2112 44.2935 13.7216C44.2935 14.232 44.3747 14.706 44.5371 15.1435C44.6995 15.581 44.9498 15.9339 45.2878 16.2024C45.6259 16.4709 46.0568 16.6051 46.5804 16.6051ZM54.9339 17.6591C54.2446 17.6591 53.6397 17.495 53.1193 17.1669C52.6023 16.8388 52.1979 16.3797 51.9062 15.7898C51.6179 15.1998 51.4737 14.5104 51.4737 13.7216C51.4737 12.9261 51.6179 12.2318 51.9062 11.6385C52.1979 11.0452 52.6023 10.5845 53.1193 10.2564C53.6397 9.92827 54.2446 9.7642 54.9339 9.7642C55.6233 9.7642 56.2266 9.92827 56.7436 10.2564C57.264 10.5845 57.6683 11.0452 57.9567 11.6385C58.2483 12.2318 58.3942 12.9261 58.3942 13.7216C58.3942 14.5104 58.2483 15.1998 57.9567 15.7898C57.6683 16.3797 57.264 16.8388 56.7436 17.1669C56.2266 17.495 55.6233 17.6591 54.9339 17.6591ZM54.9339 16.6051C55.4576 16.6051 55.8885 16.4709 56.2266 16.2024C56.5646 15.9339 56.8149 15.581 56.9773 15.1435C57.1397 14.706 57.2209 14.232 57.2209 13.7216C57.2209 13.2112 57.1397 12.7356 56.9773 12.2947C56.8149 11.8539 56.5646 11.4976 56.2266 11.2259C55.8885 10.9541 55.4576 10.8182 54.9339 10.8182C54.4103 10.8182 53.9794 10.9541 53.6413 11.2259C53.3033 11.4976 53.053 11.8539 52.8906 12.2947C52.7282 12.7356 52.647 13.2112 52.647 13.7216C52.647 14.232 52.7282 14.706 52.8906 15.1435C53.053 15.581 53.3033 15.9339 53.6413 16.2024C53.9794 16.4709 54.4103 16.6051 54.9339 16.6051ZM63.2676 20.5227C62.7008 20.5227 62.2136 20.4498 61.8059 20.304C61.3983 20.1615 61.0585 19.9725 60.7868 19.7372C60.5183 19.5052 60.3045 19.2566 60.1454 18.9915L61.0801 18.3352C61.1861 18.4744 61.3204 18.6335 61.4828 18.8125C61.6452 18.9948 61.8672 19.1522 62.149 19.2848C62.434 19.4207 62.8069 19.4886 63.2676 19.4886C63.8841 19.4886 64.3928 19.3395 64.7939 19.0412C65.1949 18.7429 65.3954 18.2756 65.3954 17.6392V16.0881H65.296C65.2098 16.2273 65.0872 16.3996 64.9281 16.6051C64.7723 16.8073 64.5469 16.9879 64.252 17.147C63.9603 17.3028 63.5659 17.3807 63.0687 17.3807C62.4522 17.3807 61.8987 17.2348 61.4082 16.9432C60.921 16.6515 60.5349 16.2273 60.2498 15.6705C59.9681 15.1136 59.8272 14.4375 59.8272 13.642C59.8272 12.8598 59.9648 12.1787 60.2399 11.5987C60.515 11.0154 60.8978 10.5646 61.3883 10.2464C61.8788 9.92495 62.4456 9.7642 63.0886 9.7642C63.5858 9.7642 63.9802 9.84706 64.2718 10.0128C64.5668 10.1752 64.7922 10.3608 64.948 10.5696C65.1071 10.7751 65.2297 10.9441 65.3159 11.0767H65.4352V9.86364H66.5687V17.7188C66.5687 18.375 66.4196 18.9086 66.1213 19.3196C65.8263 19.7339 65.4286 20.0372 64.9281 20.2294C64.4309 20.425 63.8774 20.5227 63.2676 20.5227ZM63.2278 16.3267C63.6984 16.3267 64.0962 16.219 64.421 16.0036C64.7458 15.7881 64.9927 15.4782 65.1618 15.0739C65.3308 14.6695 65.4153 14.1856 65.4153 13.6222C65.4153 13.072 65.3324 12.5864 65.1667 12.1655C65.001 11.7446 64.7557 11.4148 64.4309 11.1761C64.1061 10.9375 63.7051 10.8182 63.2278 10.8182C62.7306 10.8182 62.3163 10.9441 61.9849 11.196C61.6568 11.4479 61.4099 11.786 61.2441 12.2102C61.0817 12.6345 61.0005 13.1051 61.0005 13.6222C61.0005 14.1525 61.0834 14.6214 61.2491 15.0291C61.4181 15.4335 61.6667 15.7517 61.9949 15.9837C62.3263 16.2124 62.7373 16.3267 63.2278 16.3267ZM69.8897 7.31818V17.5H68.7164V7.31818H69.8897ZM75.2404 17.6591C74.5046 17.6591 73.8699 17.4967 73.3363 17.1719C72.806 16.8438 72.3967 16.3864 72.1083 15.7997C71.8233 15.2098 71.6808 14.5237 71.6808 13.7415C71.6808 12.9593 71.8233 12.2699 72.1083 11.6733C72.3967 11.0734 72.7977 10.6061 73.3114 10.2713C73.8285 9.93324 74.4317 9.7642 75.1211 9.7642C75.5188 9.7642 75.9116 9.83049 76.2994 9.96307C76.6871 10.0956 77.0401 10.3111 77.3583 10.6094C77.6765 10.9044 77.93 11.2955 78.119 11.7827C78.3079 12.2699 78.4023 12.8698 78.4023 13.5824V14.0795H72.516V13.0653H77.2092C77.2092 12.6345 77.123 12.25 76.9506 11.9119C76.7816 11.5739 76.5397 11.3071 76.2248 11.1115C75.9132 10.916 75.5453 10.8182 75.1211 10.8182C74.6538 10.8182 74.2494 10.9342 73.908 11.1662C73.57 11.3949 73.3098 11.6932 73.1275 12.0611C72.9452 12.429 72.854 12.8234 72.854 13.2443V13.9205C72.854 14.4972 72.9535 14.986 73.1523 15.3871C73.3545 15.7848 73.6346 16.0881 73.9925 16.2969C74.3505 16.5024 74.7665 16.6051 75.2404 16.6051C75.5487 16.6051 75.8271 16.562 76.0756 16.4759C76.3275 16.3864 76.5446 16.2538 76.7269 16.0781C76.9092 15.8991 77.0501 15.6771 77.1495 15.4119L78.283 15.7301C78.1637 16.1146 77.9632 16.4527 77.6815 16.7443C77.3997 17.0327 77.0517 17.258 76.6374 17.4205C76.2231 17.5795 75.7575 17.6591 75.2404 17.6591Z" fill="#EA4335"/>
</svg>
