<svg width="22" height="21" viewBox="0 0 22 21" fill="none" xmlns="http://www.w3.org/2000/svg">
<path d="M19.3438 15.8702H17.6961C17.5836 15.8702 17.4782 15.9194 17.4078 16.0062C17.2438 16.2054 17.068 16.3976 16.8828 16.5804C16.1256 17.3384 15.2286 17.9425 14.2414 18.3593C13.2188 18.7912 12.1196 19.0128 11.0094 19.0108C9.88675 19.0108 8.79925 18.7905 7.77738 18.3593C6.79026 17.9425 5.89325 17.3384 5.13597 16.5804C4.37733 15.8249 3.77242 14.9295 3.35472 13.9437C2.92113 12.9218 2.70316 11.8366 2.70316 10.714C2.70316 9.59131 2.92347 8.50615 3.35472 7.48428C3.77191 6.49756 4.37191 5.60928 5.13597 4.84756C5.90003 4.08584 6.78831 3.48584 7.77738 3.06865C8.79925 2.6374 9.88675 2.41709 11.0094 2.41709C12.1321 2.41709 13.2196 2.63506 14.2414 3.06865C15.2305 3.48584 16.1188 4.08584 16.8828 4.84756C17.068 5.03271 17.2414 5.2249 17.4078 5.42178C17.4782 5.5085 17.586 5.55771 17.6961 5.55771H19.3438C19.4914 5.55771 19.5828 5.39365 19.5008 5.26943C17.7032 2.47568 14.5578 0.626464 10.9836 0.635839C5.368 0.649901 0.865658 5.2085 0.921908 10.8171C0.978158 16.3366 5.47347 20.7921 11.0094 20.7921C14.5743 20.7921 17.7055 18.9452 19.5008 16.1585C19.5805 16.0343 19.4914 15.8702 19.3438 15.8702ZM21.4274 10.5663L18.1016 7.94131C17.9774 7.84287 17.7969 7.93193 17.7969 8.08896V9.87021H10.4375C10.3344 9.87021 10.25 9.95459 10.25 10.0577V11.3702C10.25 11.4733 10.3344 11.5577 10.4375 11.5577H17.7969V13.339C17.7969 13.496 17.9797 13.5851 18.1016 13.4866L21.4274 10.8616C21.4498 10.8441 21.4679 10.8217 21.4804 10.7961C21.4928 10.7705 21.4993 10.7424 21.4993 10.714C21.4993 10.6855 21.4928 10.6574 21.4804 10.6318C21.4679 10.6063 21.4498 10.5838 21.4274 10.5663Z" fill="url(#paint0_linear_2785_177)"/>
<defs>
<linearGradient id="paint0_linear_2785_177" x1="11.2104" y1="0.635803" x2="11.2104" y2="20.7921" gradientUnits="userSpaceOnUse">
<stop stop-color="#8E8E8E"/>
<stop offset="1" stop-color="#282828"/>
</linearGradient>
</defs>
</svg>
