<svg width="20" height="19" viewBox="0 0 20 19" fill="none" xmlns="http://www.w3.org/2000/svg">
<g clip-path="url(#clip0_2631_1064)">
<path d="M8.78585 1.39536C8.69948 1.34892 8.60075 1.3244 8.50014 1.3244C8.39953 1.3244 8.3008 1.34892 8.21442 1.39536C8.14318 1.44616 8.09511 1.51871 8.07931 1.59927C8.06351 1.67984 8.08109 1.76282 8.12871 1.8325C9.88585 4.57107 10.2573 8.29964 7.85728 10.3568C6.93389 9.65841 6.20081 8.77871 5.71442 7.78536C4.82689 8.22899 4.09135 8.88297 3.58766 9.67629C3.08397 10.4696 2.83137 11.3719 2.85728 12.2854C2.89351 13.0906 3.10833 13.8811 3.4891 14.6105C3.86986 15.3399 4.40889 15.9934 5.07445 16.5325C5.74001 17.0716 6.51866 17.4854 7.36457 17.7497C8.21049 18.0139 9.10659 18.1232 10.0001 18.0711C14.6001 18.0711 16.9859 15.4996 17.143 12.2854C17.3287 8.42821 14.2859 3.68393 8.78585 1.39536Z" stroke="#4A4747" stroke-linecap="round" stroke-linejoin="round"/>
<path d="M13.5715 12.2854C13.5715 12.9673 13.2705 13.6214 12.7347 14.1036C12.1988 14.5859 11.4721 14.8568 10.7144 14.8568" stroke="#4A4747" stroke-linecap="round" stroke-linejoin="round"/>
</g>
<defs>
<clipPath id="clip0_2631_1064">
<rect width="20" height="18" fill="white" transform="translate(0 0.713928)"/>
</clipPath>
</defs>
</svg>
