<svg width="628" height="21" viewBox="0 0 628 21" fill="none" xmlns="http://www.w3.org/2000/svg">
<line x1="290" y1="11" x2="-4.37114e-08" y2="11" stroke="#94A3B8"/>
<path d="M313.824 10.9091C313.824 11.983 313.63 12.911 313.242 13.6932C312.854 14.4754 312.322 15.0786 311.646 15.5028C310.97 15.9271 310.198 16.1392 309.33 16.1392C308.461 16.1392 307.689 15.9271 307.013 15.5028C306.337 15.0786 305.805 14.4754 305.417 13.6932C305.029 12.911 304.835 11.983 304.835 10.9091C304.835 9.83523 305.029 8.9072 305.417 8.125C305.805 7.3428 306.337 6.73958 307.013 6.31534C307.689 5.8911 308.461 5.67898 309.33 5.67898C310.198 5.67898 310.97 5.8911 311.646 6.31534C312.322 6.73958 312.854 7.3428 313.242 8.125C313.63 8.9072 313.824 9.83523 313.824 10.9091ZM312.631 10.9091C312.631 10.0275 312.483 9.28338 312.188 8.67685C311.897 8.07031 311.5 7.61127 311 7.29972C310.503 6.98816 309.946 6.83239 309.33 6.83239C308.713 6.83239 308.155 6.98816 307.654 7.29972C307.157 7.61127 306.761 8.07031 306.466 8.67685C306.174 9.28338 306.028 10.0275 306.028 10.9091C306.028 11.7907 306.174 12.5348 306.466 13.1413C306.761 13.7479 307.157 14.2069 307.654 14.5185C308.155 14.83 308.713 14.9858 309.33 14.9858C309.946 14.9858 310.503 14.83 311 14.5185C311.5 14.2069 311.897 13.7479 312.188 13.1413C312.483 12.5348 312.631 11.7907 312.631 10.9091ZM315.897 16V5.81818H319.337C320.133 5.81818 320.786 5.95407 321.296 6.22585C321.807 6.49432 322.184 6.86387 322.43 7.33452C322.675 7.80516 322.798 8.34044 322.798 8.94034C322.798 9.54025 322.675 10.0722 322.43 10.5362C322.184 11.0002 321.808 11.3648 321.301 11.63C320.794 11.8918 320.146 12.0227 319.357 12.0227H316.573V10.9091H319.317C319.861 10.9091 320.299 10.8295 320.63 10.6705C320.965 10.5114 321.207 10.286 321.356 9.99432C321.508 9.69934 321.585 9.34801 321.585 8.94034C321.585 8.53267 321.508 8.17637 321.356 7.87145C321.203 7.56652 320.96 7.3312 320.625 7.16548C320.29 6.99645 319.848 6.91193 319.298 6.91193H317.13V16H315.897ZM320.69 11.4261L323.195 16H321.763L319.298 11.4261H320.69Z" fill="#94A3B8"/>
<line x1="628" y1="11" x2="338" y2="11" stroke="#94A3B8"/>
</svg>
