<svg width="31" height="32" viewBox="0 0 31 32" fill="none" xmlns="http://www.w3.org/2000/svg">
<path fill-rule="evenodd" clip-rule="evenodd" d="M8.61111 7.49009C8.61111 5.63802 9.3369 3.8618 10.6288 2.55218C11.9207 1.24257 13.673 0.506836 15.5 0.506836C17.327 0.506836 19.0793 1.24257 20.3712 2.55218C21.6631 3.8618 22.3889 5.63802 22.3889 7.49009C22.3889 9.34217 21.6631 11.1184 20.3712 12.428C19.0793 13.7376 17.327 14.4734 15.5 14.4734C13.673 14.4734 11.9207 13.7376 10.6288 12.428C9.3369 11.1184 8.61111 9.34217 8.61111 7.49009ZM8.61111 17.965C6.3273 17.965 4.13703 18.8846 2.52214 20.5217C0.90724 22.1587 0 24.379 0 26.6941C0 28.0831 0.544344 29.4153 1.51328 30.3975C2.48222 31.3797 3.79638 31.9315 5.16667 31.9315H25.8333C27.2036 31.9315 28.5178 31.3797 29.4867 30.3975C30.4557 29.4153 31 28.0831 31 26.6941C31 24.379 30.0928 22.1587 28.4779 20.5217C26.863 18.8846 24.6727 17.965 22.3889 17.965H8.61111Z" fill="#7B7B7B"/>
</svg>
