<svg width="549" height="295" viewBox="0 0 549 295" fill="none" xmlns="http://www.w3.org/2000/svg">
<g filter="url(#filter0_d_3186_933)">
<path d="M4 27.0289C4 17.5679 4 12.8374 5.84124 9.22378C7.46083 6.04515 10.0451 3.46083 13.2238 1.84124C16.8374 0 21.5679 0 31.0289 0L517.971 0C527.432 0 532.163 0 535.776 1.84124C538.955 3.46083 541.539 6.04515 543.159 9.22378C545 12.8374 545 17.5679 545 27.0289V259.971C545 269.432 545 274.163 543.159 277.776C541.539 280.955 538.955 283.539 535.776 285.159C532.163 287 527.432 287 517.971 287H31.0289C21.5679 287 16.8374 287 13.2238 285.159C10.0451 283.539 7.46083 280.955 5.84124 277.776C4 274.163 4 269.432 4 259.971L4 27.0289Z" fill="white"/>
</g>
<path d="M52.568 34.152V51H48.464V40.896L44.696 51H41.384L37.592 40.872V51H33.488V34.152H38.336L43.064 45.816L47.744 34.152H52.568ZM68.7193 37.608L60.3193 57.36H55.9033L58.9753 50.544L53.5273 37.608H58.1113L61.2073 45.984L64.2793 37.608H68.7193ZM87.1693 39.576C87.1693 40.552 86.9453 41.448 86.4973 42.264C86.0493 43.064 85.3613 43.712 84.4333 44.208C83.5053 44.704 82.3533 44.952 80.9773 44.952H78.4333V51H74.3293V34.152H80.9773C82.3213 34.152 83.4573 34.384 84.3853 34.848C85.3133 35.312 86.0093 35.952 86.4733 36.768C86.9373 37.584 87.1693 38.52 87.1693 39.576ZM80.6653 41.688C81.4493 41.688 82.0333 41.504 82.4173 41.136C82.8013 40.768 82.9933 40.248 82.9933 39.576C82.9933 38.904 82.8013 38.384 82.4173 38.016C82.0333 37.648 81.4493 37.464 80.6653 37.464H78.4333V41.688H80.6653ZM92.9298 39.84C93.4098 39.104 94.0098 38.528 94.7298 38.112C95.4498 37.68 96.2498 37.464 97.1298 37.464V41.808H96.0018C94.9778 41.808 94.2098 42.032 93.6978 42.48C93.1858 42.912 92.9298 43.68 92.9298 44.784V51H88.8258V37.608H92.9298V39.84ZM104.707 51.192C103.395 51.192 102.211 50.912 101.155 50.352C100.115 49.792 99.2914 48.992 98.6834 47.952C98.0914 46.912 97.7954 45.696 97.7954 44.304C97.7954 42.928 98.0994 41.72 98.7074 40.68C99.3154 39.624 100.147 38.816 101.203 38.256C102.259 37.696 103.443 37.416 104.755 37.416C106.067 37.416 107.251 37.696 108.307 38.256C109.363 38.816 110.195 39.624 110.803 40.68C111.411 41.72 111.715 42.928 111.715 44.304C111.715 45.68 111.403 46.896 110.779 47.952C110.171 48.992 109.331 49.792 108.259 50.352C107.203 50.912 106.019 51.192 104.707 51.192ZM104.707 47.64C105.491 47.64 106.155 47.352 106.699 46.776C107.259 46.2 107.539 45.376 107.539 44.304C107.539 43.232 107.267 42.408 106.723 41.832C106.195 41.256 105.539 40.968 104.755 40.968C103.955 40.968 103.291 41.256 102.763 41.832C102.235 42.392 101.971 43.216 101.971 44.304C101.971 45.376 102.227 46.2 102.739 46.776C103.267 47.352 103.923 47.64 104.707 47.64ZM118.501 37.416C119.445 37.416 120.269 37.608 120.973 37.992C121.693 38.376 122.245 38.88 122.629 39.504V37.608H126.733V50.976C126.733 52.208 126.485 53.32 125.989 54.312C125.509 55.32 124.765 56.12 123.757 56.712C122.765 57.304 121.525 57.6 120.037 57.6C118.053 57.6 116.445 57.128 115.213 56.184C113.981 55.256 113.277 53.992 113.101 52.392H117.157C117.285 52.904 117.589 53.304 118.069 53.592C118.549 53.896 119.141 54.048 119.845 54.048C120.693 54.048 121.365 53.8 121.861 53.304C122.373 52.824 122.629 52.048 122.629 50.976V49.08C122.229 49.704 121.677 50.216 120.973 50.616C120.269 51 119.445 51.192 118.501 51.192C117.397 51.192 116.397 50.912 115.501 50.352C114.605 49.776 113.893 48.968 113.365 47.928C112.853 46.872 112.597 45.656 112.597 44.28C112.597 42.904 112.853 41.696 113.365 40.656C113.893 39.616 114.605 38.816 115.501 38.256C116.397 37.696 117.397 37.416 118.501 37.416ZM122.629 44.304C122.629 43.28 122.341 42.472 121.765 41.88C121.205 41.288 120.517 40.992 119.701 40.992C118.885 40.992 118.189 41.288 117.613 41.88C117.053 42.456 116.773 43.256 116.773 44.28C116.773 45.304 117.053 46.12 117.613 46.728C118.189 47.32 118.885 47.616 119.701 47.616C120.517 47.616 121.205 47.32 121.765 46.728C122.341 46.136 122.629 45.328 122.629 44.304ZM133.326 39.84C133.806 39.104 134.406 38.528 135.126 38.112C135.846 37.68 136.646 37.464 137.526 37.464V41.808H136.398C135.374 41.808 134.606 42.032 134.094 42.48C133.582 42.912 133.326 43.68 133.326 44.784V51H129.222V37.608H133.326V39.84ZM151.631 44.088C151.631 44.472 151.607 44.872 151.559 45.288H142.271C142.335 46.12 142.599 46.76 143.063 47.208C143.543 47.64 144.127 47.856 144.815 47.856C145.839 47.856 146.551 47.424 146.951 46.56H151.319C151.095 47.44 150.687 48.232 150.095 48.936C149.519 49.64 148.791 50.192 147.911 50.592C147.031 50.992 146.047 51.192 144.959 51.192C143.647 51.192 142.479 50.912 141.455 50.352C140.431 49.792 139.631 48.992 139.055 47.952C138.479 46.912 138.191 45.696 138.191 44.304C138.191 42.912 138.471 41.696 139.031 40.656C139.607 39.616 140.407 38.816 141.431 38.256C142.455 37.696 143.631 37.416 144.959 37.416C146.255 37.416 147.407 37.688 148.415 38.232C149.423 38.776 150.207 39.552 150.767 40.56C151.343 41.568 151.631 42.744 151.631 44.088ZM147.431 43.008C147.431 42.304 147.191 41.744 146.711 41.328C146.231 40.912 145.631 40.704 144.911 40.704C144.223 40.704 143.639 40.904 143.159 41.304C142.695 41.704 142.407 42.272 142.295 43.008H147.431ZM158.764 51.192C157.596 51.192 156.556 50.992 155.644 50.592C154.732 50.192 154.012 49.648 153.484 48.96C152.956 48.256 152.66 47.472 152.596 46.608H156.652C156.7 47.072 156.916 47.448 157.3 47.736C157.684 48.024 158.156 48.168 158.716 48.168C159.228 48.168 159.62 48.072 159.892 47.88C160.18 47.672 160.324 47.408 160.324 47.088C160.324 46.704 160.124 46.424 159.724 46.248C159.324 46.056 158.676 45.848 157.78 45.624C156.82 45.4 156.02 45.168 155.38 44.928C154.74 44.672 154.188 44.28 153.724 43.752C153.26 43.208 153.028 42.48 153.028 41.568C153.028 40.8 153.236 40.104 153.652 39.48C154.084 38.84 154.708 38.336 155.524 37.968C156.356 37.6 157.34 37.416 158.476 37.416C160.156 37.416 161.476 37.832 162.436 38.664C163.412 39.496 163.972 40.6 164.116 41.976H160.324C160.26 41.512 160.052 41.144 159.7 40.872C159.364 40.6 158.916 40.464 158.356 40.464C157.876 40.464 157.508 40.56 157.252 40.752C156.996 40.928 156.868 41.176 156.868 41.496C156.868 41.88 157.068 42.168 157.468 42.36C157.884 42.552 158.524 42.744 159.388 42.936C160.38 43.192 161.188 43.448 161.812 43.704C162.436 43.944 162.98 44.344 163.444 44.904C163.924 45.448 164.172 46.184 164.188 47.112C164.188 47.896 163.964 48.6 163.516 49.224C163.084 49.832 162.452 50.312 161.62 50.664C160.804 51.016 159.852 51.192 158.764 51.192ZM171.667 51.192C170.499 51.192 169.459 50.992 168.547 50.592C167.635 50.192 166.915 49.648 166.387 48.96C165.859 48.256 165.563 47.472 165.499 46.608H169.555C169.603 47.072 169.819 47.448 170.203 47.736C170.587 48.024 171.059 48.168 171.619 48.168C172.131 48.168 172.523 48.072 172.795 47.88C173.083 47.672 173.227 47.408 173.227 47.088C173.227 46.704 173.027 46.424 172.627 46.248C172.227 46.056 171.579 45.848 170.683 45.624C169.723 45.4 168.923 45.168 168.283 44.928C167.643 44.672 167.091 44.28 166.627 43.752C166.163 43.208 165.931 42.48 165.931 41.568C165.931 40.8 166.139 40.104 166.555 39.48C166.987 38.84 167.611 38.336 168.427 37.968C169.259 37.6 170.243 37.416 171.379 37.416C173.059 37.416 174.379 37.832 175.339 38.664C176.315 39.496 176.875 40.6 177.019 41.976H173.227C173.163 41.512 172.955 41.144 172.603 40.872C172.267 40.6 171.819 40.464 171.259 40.464C170.779 40.464 170.411 40.56 170.155 40.752C169.899 40.928 169.771 41.176 169.771 41.496C169.771 41.88 169.971 42.168 170.371 42.36C170.787 42.552 171.427 42.744 172.291 42.936C173.283 43.192 174.091 43.448 174.715 43.704C175.339 43.944 175.883 44.344 176.347 44.904C176.827 45.448 177.075 46.184 177.091 47.112C177.091 47.896 176.867 48.6 176.419 49.224C175.987 49.832 175.355 50.312 174.523 50.664C173.707 51.016 172.755 51.192 171.667 51.192Z" fill="#15192C"/>
<path d="M40.976 67.192C40.976 67.7573 40.8427 68.2907 40.576 68.792C40.3093 69.2933 39.8827 69.704 39.296 70.024C38.7093 70.3333 37.9573 70.488 37.04 70.488H35.024V75H33.2V63.88H37.04C37.8933 63.88 38.6133 64.0293 39.2 64.328C39.7973 64.616 40.24 65.0107 40.528 65.512C40.8267 66.0133 40.976 66.5733 40.976 67.192ZM37.04 69C37.7333 69 38.2507 68.8453 38.592 68.536C38.9333 68.216 39.104 67.768 39.104 67.192C39.104 65.976 38.416 65.368 37.04 65.368H35.024V69H37.04ZM44.5396 67.464C44.8063 67.016 45.1583 66.6693 45.5956 66.424C46.0436 66.168 46.5716 66.04 47.1796 66.04V67.928H46.7156C46.001 67.928 45.457 68.1093 45.0836 68.472C44.721 68.8347 44.5396 69.464 44.5396 70.36V75H42.7156V66.184H44.5396V67.464ZM52.6803 75.144C51.8483 75.144 51.0963 74.9573 50.4243 74.584C49.7523 74.2 49.2243 73.6667 48.8403 72.984C48.4563 72.2907 48.2643 71.4907 48.2643 70.584C48.2643 69.688 48.4616 68.8933 48.8563 68.2C49.2509 67.5067 49.7896 66.9733 50.4723 66.6C51.1549 66.2267 51.9176 66.04 52.7603 66.04C53.6029 66.04 54.3656 66.2267 55.0483 66.6C55.7309 66.9733 56.2696 67.5067 56.6643 68.2C57.0589 68.8933 57.2563 69.688 57.2563 70.584C57.2563 71.48 57.0536 72.2747 56.6483 72.968C56.2429 73.6613 55.6883 74.2 54.9843 74.584C54.2909 74.9573 53.5229 75.144 52.6803 75.144ZM52.6803 73.56C53.1496 73.56 53.5869 73.448 53.9923 73.224C54.4083 73 54.7443 72.664 55.0003 72.216C55.2563 71.768 55.3843 71.224 55.3843 70.584C55.3843 69.944 55.2616 69.4053 55.0163 68.968C54.7709 68.52 54.4456 68.184 54.0403 67.96C53.6349 67.736 53.1976 67.624 52.7283 67.624C52.2589 67.624 51.8216 67.736 51.4163 67.96C51.0216 68.184 50.7069 68.52 50.4723 68.968C50.2376 69.4053 50.1203 69.944 50.1203 70.584C50.1203 71.5333 50.3603 72.2693 50.8403 72.792C51.3309 73.304 51.9443 73.56 52.6803 73.56ZM62.6114 66.04C63.294 66.04 63.8967 66.1787 64.4194 66.456C64.9527 66.7227 65.3687 67.0587 65.6674 67.464V66.184H67.5074V75.144C67.5074 75.9547 67.3367 76.6747 66.9954 77.304C66.654 77.944 66.158 78.4453 65.5074 78.808C64.8674 79.1707 64.0994 79.352 63.2034 79.352C62.0087 79.352 61.0167 79.0693 60.2274 78.504C59.438 77.9493 58.99 77.192 58.8834 76.232H60.6914C60.83 76.6907 61.1234 77.0587 61.5714 77.336C62.03 77.624 62.574 77.768 63.2034 77.768C63.9394 77.768 64.5314 77.544 64.9794 77.096C65.438 76.648 65.6674 75.9973 65.6674 75.144V73.672C65.358 74.088 64.9367 74.44 64.4034 74.728C63.8807 75.0053 63.2834 75.144 62.6114 75.144C61.8434 75.144 61.1394 74.952 60.4994 74.568C59.87 74.1733 59.3687 73.6293 58.9954 72.936C58.6327 72.232 58.4514 71.4373 58.4514 70.552C58.4514 69.6667 58.6327 68.8827 58.9954 68.2C59.3687 67.5173 59.87 66.9893 60.4994 66.616C61.1394 66.232 61.8434 66.04 62.6114 66.04ZM65.6674 70.584C65.6674 69.976 65.5394 69.448 65.2834 69C65.038 68.552 64.7127 68.2107 64.3074 67.976C63.902 67.7413 63.4647 67.624 62.9954 67.624C62.526 67.624 62.0887 67.7413 61.6834 67.976C61.278 68.2 60.9474 68.536 60.6914 68.984C60.446 69.4213 60.3234 69.944 60.3234 70.552C60.3234 71.16 60.446 71.6933 60.6914 72.152C60.9474 72.6107 61.278 72.9627 61.6834 73.208C62.0994 73.4427 62.5367 73.56 62.9954 73.56C63.4647 73.56 63.902 73.4427 64.3074 73.208C64.7127 72.9733 65.038 72.632 65.2834 72.184C65.5394 71.7253 65.6674 71.192 65.6674 70.584ZM71.7271 67.464C71.9938 67.016 72.3458 66.6693 72.7831 66.424C73.2311 66.168 73.7591 66.04 74.3671 66.04V67.928H73.9031C73.1885 67.928 72.6445 68.1093 72.2711 68.472C71.9085 68.8347 71.7271 69.464 71.7271 70.36V75H69.9031V66.184H71.7271V67.464ZM84.1238 70.376C84.1238 70.7067 84.1024 71.0053 84.0598 71.272H77.3238C77.3771 71.976 77.6384 72.5413 78.1078 72.968C78.5771 73.3947 79.1531 73.608 79.8358 73.608C80.8171 73.608 81.5104 73.1973 81.9158 72.376H83.8837C83.6171 73.1867 83.1318 73.8533 82.4278 74.376C81.7344 74.888 80.8704 75.144 79.8358 75.144C78.9931 75.144 78.2358 74.9573 77.5638 74.584C76.9024 74.2 76.3798 73.6667 75.9958 72.984C75.6224 72.2907 75.4358 71.4907 75.4358 70.584C75.4358 69.6773 75.6171 68.8827 75.9798 68.2C76.3531 67.5067 76.8704 66.9733 77.5318 66.6C78.2038 66.2267 78.9718 66.04 79.8358 66.04C80.6678 66.04 81.4091 66.2213 82.0598 66.584C82.7104 66.9467 83.2171 67.4587 83.5798 68.12C83.9424 68.7707 84.1238 69.5227 84.1238 70.376ZM82.2198 69.8C82.2091 69.128 81.9691 68.5893 81.4998 68.184C81.0304 67.7787 80.4491 67.576 79.7558 67.576C79.1264 67.576 78.5878 67.7787 78.1398 68.184C77.6918 68.5787 77.4251 69.1173 77.3398 69.8H82.2198ZM89.1188 75.144C88.4254 75.144 87.8014 75.0213 87.2468 74.776C86.7028 74.52 86.2708 74.1787 85.9508 73.752C85.6308 73.3147 85.4601 72.8293 85.4388 72.296H87.3268C87.3588 72.6693 87.5348 72.984 87.8548 73.24C88.1854 73.4853 88.5961 73.608 89.0868 73.608C89.5988 73.608 89.9934 73.512 90.2708 73.32C90.5588 73.1173 90.7028 72.8613 90.7028 72.552C90.7028 72.2213 90.5428 71.976 90.2228 71.816C89.9134 71.656 89.4174 71.48 88.7348 71.288C88.0734 71.1067 87.5348 70.9307 87.1188 70.76C86.7028 70.5893 86.3401 70.328 86.0308 69.976C85.7321 69.624 85.5828 69.16 85.5828 68.584C85.5828 68.1147 85.7214 67.688 85.9988 67.304C86.2761 66.9093 86.6708 66.6 87.1828 66.376C87.7054 66.152 88.3028 66.04 88.9748 66.04C89.9774 66.04 90.7828 66.296 91.3908 66.808C92.0094 67.3093 92.3401 67.9973 92.3828 68.872H90.5588C90.5268 68.4773 90.3668 68.1627 90.0788 67.928C89.7908 67.6933 89.4014 67.576 88.9108 67.576C88.4308 67.576 88.0628 67.6667 87.8068 67.848C87.5508 68.0293 87.4228 68.2693 87.4228 68.568C87.4228 68.8027 87.5081 69 87.6788 69.16C87.8494 69.32 88.0574 69.448 88.3028 69.544C88.5481 69.6293 88.9108 69.7413 89.3908 69.88C90.0308 70.0507 90.5534 70.2267 90.9588 70.408C91.3748 70.5787 91.7321 70.8347 92.0308 71.176C92.3294 71.5173 92.4841 71.9707 92.4948 72.536C92.4948 73.0373 92.3561 73.4853 92.0788 73.88C91.8014 74.2747 91.4068 74.584 90.8948 74.808C90.3934 75.032 89.8014 75.144 89.1188 75.144ZM97.6656 75.144C96.9723 75.144 96.3483 75.0213 95.7936 74.776C95.2496 74.52 94.8176 74.1787 94.4976 73.752C94.1776 73.3147 94.007 72.8293 93.9856 72.296H95.8736C95.9056 72.6693 96.0816 72.984 96.4016 73.24C96.7323 73.4853 97.143 73.608 97.6336 73.608C98.1456 73.608 98.5403 73.512 98.8176 73.32C99.1056 73.1173 99.2496 72.8613 99.2496 72.552C99.2496 72.2213 99.0896 71.976 98.7696 71.816C98.4603 71.656 97.9643 71.48 97.2816 71.288C96.6203 71.1067 96.0816 70.9307 95.6656 70.76C95.2496 70.5893 94.887 70.328 94.5776 69.976C94.279 69.624 94.1296 69.16 94.1296 68.584C94.1296 68.1147 94.2683 67.688 94.5456 67.304C94.823 66.9093 95.2176 66.6 95.7296 66.376C96.2523 66.152 96.8496 66.04 97.5216 66.04C98.5243 66.04 99.3296 66.296 99.9376 66.808C100.556 67.3093 100.887 67.9973 100.93 68.872H99.1056C99.0736 68.4773 98.9136 68.1627 98.6256 67.928C98.3376 67.6933 97.9483 67.576 97.4576 67.576C96.9776 67.576 96.6096 67.6667 96.3536 67.848C96.0976 68.0293 95.9696 68.2693 95.9696 68.568C95.9696 68.8027 96.055 69 96.2256 69.16C96.3963 69.32 96.6043 69.448 96.8496 69.544C97.095 69.6293 97.4576 69.7413 97.9376 69.88C98.5776 70.0507 99.1003 70.2267 99.5056 70.408C99.9216 70.5787 100.279 70.8347 100.578 71.176C100.876 71.5173 101.031 71.9707 101.042 72.536C101.042 73.0373 100.903 73.4853 100.626 73.88C100.348 74.2747 99.9536 74.584 99.4416 74.808C98.9403 75.032 98.3483 75.144 97.6656 75.144ZM110.993 75.144C110.161 75.144 109.409 74.9573 108.737 74.584C108.065 74.2 107.537 73.6667 107.153 72.984C106.769 72.2907 106.577 71.4907 106.577 70.584C106.577 69.688 106.774 68.8933 107.169 68.2C107.563 67.5067 108.102 66.9733 108.785 66.6C109.467 66.2267 110.23 66.04 111.073 66.04C111.915 66.04 112.678 66.2267 113.361 66.6C114.043 66.9733 114.582 67.5067 114.977 68.2C115.371 68.8933 115.569 69.688 115.569 70.584C115.569 71.48 115.366 72.2747 114.961 72.968C114.555 73.6613 114.001 74.2 113.297 74.584C112.603 74.9573 111.835 75.144 110.993 75.144ZM110.993 73.56C111.462 73.56 111.899 73.448 112.305 73.224C112.721 73 113.057 72.664 113.313 72.216C113.569 71.768 113.697 71.224 113.697 70.584C113.697 69.944 113.574 69.4053 113.329 68.968C113.083 68.52 112.758 68.184 112.353 67.96C111.947 67.736 111.51 67.624 111.041 67.624C110.571 67.624 110.134 67.736 109.729 67.96C109.334 68.184 109.019 68.52 108.785 68.968C108.55 69.4053 108.433 69.944 108.433 70.584C108.433 71.5333 108.673 72.2693 109.153 72.792C109.643 73.304 110.257 73.56 110.993 73.56ZM121.068 67.672H119.436V75H117.596V67.672H116.556V66.184H117.596V65.56C117.596 64.5467 117.863 63.8107 118.396 63.352C118.94 62.8827 119.788 62.648 120.94 62.648V64.168C120.385 64.168 119.996 64.2747 119.772 64.488C119.548 64.6907 119.436 65.048 119.436 65.56V66.184H121.068V67.672ZM134.777 66.184L129.369 79.144H127.481L129.273 74.856L125.801 66.184H127.833L130.313 72.904L132.889 66.184H134.777ZM139.977 75.144C139.145 75.144 138.393 74.9573 137.721 74.584C137.049 74.2 136.521 73.6667 136.137 72.984C135.753 72.2907 135.561 71.4907 135.561 70.584C135.561 69.688 135.758 68.8933 136.153 68.2C136.548 67.5067 137.086 66.9733 137.769 66.6C138.452 66.2267 139.214 66.04 140.057 66.04C140.9 66.04 141.662 66.2267 142.345 66.6C143.028 66.9733 143.566 67.5067 143.961 68.2C144.356 68.8933 144.553 69.688 144.553 70.584C144.553 71.48 144.35 72.2747 143.945 72.968C143.54 73.6613 142.985 74.2 142.281 74.584C141.588 74.9573 140.82 75.144 139.977 75.144ZM139.977 73.56C140.446 73.56 140.884 73.448 141.289 73.224C141.705 73 142.041 72.664 142.297 72.216C142.553 71.768 142.681 71.224 142.681 70.584C142.681 69.944 142.558 69.4053 142.313 68.968C142.068 68.52 141.742 68.184 141.337 67.96C140.932 67.736 140.494 67.624 140.025 67.624C139.556 67.624 139.118 67.736 138.713 67.96C138.318 68.184 138.004 68.52 137.769 68.968C137.534 69.4053 137.417 69.944 137.417 70.584C137.417 71.5333 137.657 72.2693 138.137 72.792C138.628 73.304 139.241 73.56 139.977 73.56ZM154.34 66.184V75H152.516V73.96C152.228 74.3227 151.85 74.6107 151.38 74.824C150.922 75.0267 150.431 75.128 149.908 75.128C149.215 75.128 148.591 74.984 148.036 74.696C147.492 74.408 147.06 73.9813 146.74 73.416C146.431 72.8507 146.276 72.168 146.276 71.368V66.184H148.084V71.096C148.084 71.8853 148.282 72.4933 148.676 72.92C149.071 73.336 149.61 73.544 150.292 73.544C150.975 73.544 151.514 73.336 151.908 72.92C152.314 72.4933 152.516 71.8853 152.516 71.096V66.184H154.34ZM158.571 67.464C158.838 67.016 159.19 66.6693 159.627 66.424C160.075 66.168 160.603 66.04 161.211 66.04V67.928H160.747C160.032 67.928 159.488 68.1093 159.115 68.472C158.752 68.8347 158.571 69.464 158.571 70.36V75H156.747V66.184H158.571V67.464ZM166.436 70.584C166.436 69.6773 166.617 68.8827 166.98 68.2C167.353 67.5067 167.865 66.9733 168.516 66.6C169.166 66.2267 169.913 66.04 170.756 66.04C171.822 66.04 172.702 66.296 173.396 66.808C174.1 67.3093 174.574 68.0293 174.82 68.968H172.852C172.692 68.5307 172.436 68.1893 172.084 67.944C171.732 67.6987 171.289 67.576 170.756 67.576C170.009 67.576 169.412 67.8427 168.964 68.376C168.526 68.8987 168.308 69.6347 168.308 70.584C168.308 71.5333 168.526 72.2747 168.964 72.808C169.412 73.3413 170.009 73.608 170.756 73.608C171.812 73.608 172.51 73.144 172.852 72.216H174.82C174.564 73.112 174.084 73.8267 173.38 74.36C172.676 74.8827 171.801 75.144 170.756 75.144C169.913 75.144 169.166 74.9573 168.516 74.584C167.865 74.2 167.353 73.6667 166.98 72.984C166.617 72.2907 166.436 71.4907 166.436 70.584ZM184.622 66.184V75H182.798V73.96C182.51 74.3227 182.131 74.6107 181.662 74.824C181.203 75.0267 180.712 75.128 180.19 75.128C179.496 75.128 178.872 74.984 178.318 74.696C177.774 74.408 177.342 73.9813 177.022 73.416C176.712 72.8507 176.558 72.168 176.558 71.368V66.184H178.366V71.096C178.366 71.8853 178.563 72.4933 178.958 72.92C179.352 73.336 179.891 73.544 180.574 73.544C181.256 73.544 181.795 73.336 182.19 72.92C182.595 72.4933 182.798 71.8853 182.798 71.096V66.184H184.622ZM188.852 67.464C189.119 67.016 189.471 66.6693 189.908 66.424C190.356 66.168 190.884 66.04 191.492 66.04V67.928H191.028C190.313 67.928 189.769 68.1093 189.396 68.472C189.033 68.8347 188.852 69.464 188.852 70.36V75H187.028V66.184H188.852V67.464ZM194.993 67.464C195.259 67.016 195.611 66.6693 196.049 66.424C196.497 66.168 197.025 66.04 197.633 66.04V67.928H197.169C196.454 67.928 195.91 68.1093 195.537 68.472C195.174 68.8347 194.993 69.464 194.993 70.36V75H193.169V66.184H194.993V67.464ZM207.389 70.376C207.389 70.7067 207.368 71.0053 207.325 71.272H200.589C200.643 71.976 200.904 72.5413 201.373 72.968C201.843 73.3947 202.419 73.608 203.101 73.608C204.083 73.608 204.776 73.1973 205.181 72.376H207.149C206.883 73.1867 206.397 73.8533 205.693 74.376C205 74.888 204.136 75.144 203.101 75.144C202.259 75.144 201.501 74.9573 200.829 74.584C200.168 74.2 199.645 73.6667 199.261 72.984C198.888 72.2907 198.701 71.4907 198.701 70.584C198.701 69.6773 198.883 68.8827 199.245 68.2C199.619 67.5067 200.136 66.9733 200.797 66.6C201.469 66.2267 202.237 66.04 203.101 66.04C203.933 66.04 204.675 66.2213 205.325 66.584C205.976 66.9467 206.483 67.4587 206.845 68.12C207.208 68.7707 207.389 69.5227 207.389 70.376ZM205.485 69.8C205.475 69.128 205.235 68.5893 204.765 68.184C204.296 67.7787 203.715 67.576 203.021 67.576C202.392 67.576 201.853 67.7787 201.405 68.184C200.957 68.5787 200.691 69.1173 200.605 69.8H205.485ZM213.632 66.04C214.326 66.04 214.944 66.184 215.488 66.472C216.043 66.76 216.475 67.1867 216.784 67.752C217.094 68.3173 217.248 69 217.248 69.8V75H215.44V70.072C215.44 69.2827 215.243 68.68 214.848 68.264C214.454 67.8373 213.915 67.624 213.232 67.624C212.55 67.624 212.006 67.8373 211.6 68.264C211.206 68.68 211.008 69.2827 211.008 70.072V75H209.184V66.184H211.008V67.192C211.307 66.8293 211.686 66.5467 212.144 66.344C212.614 66.1413 213.11 66.04 213.632 66.04ZM221.703 67.672V72.552C221.703 72.8827 221.778 73.1227 221.927 73.272C222.087 73.4107 222.354 73.48 222.727 73.48H223.847V75H222.407C221.586 75 220.956 74.808 220.519 74.424C220.082 74.04 219.863 73.416 219.863 72.552V67.672H218.823V66.184H219.863V63.992H221.703V66.184H223.847V67.672H221.703ZM229.076 70.584C229.076 69.6773 229.258 68.8827 229.62 68.2C229.994 67.5067 230.506 66.9733 231.156 66.6C231.807 66.2267 232.554 66.04 233.396 66.04C234.463 66.04 235.343 66.296 236.036 66.808C236.74 67.3093 237.215 68.0293 237.46 68.968H235.492C235.332 68.5307 235.076 68.1893 234.724 67.944C234.372 67.6987 233.93 67.576 233.396 67.576C232.65 67.576 232.052 67.8427 231.604 68.376C231.167 68.8987 230.948 69.6347 230.948 70.584C230.948 71.5333 231.167 72.2747 231.604 72.808C232.052 73.3413 232.65 73.608 233.396 73.608C234.452 73.608 235.151 73.144 235.492 72.216H237.46C237.204 73.112 236.724 73.8267 236.02 74.36C235.316 74.8827 234.442 75.144 233.396 75.144C232.554 75.144 231.807 74.9573 231.156 74.584C230.506 74.2 229.994 73.6667 229.62 72.984C229.258 72.2907 229.076 71.4907 229.076 70.584ZM243.102 75.144C242.27 75.144 241.518 74.9573 240.846 74.584C240.174 74.2 239.646 73.6667 239.262 72.984C238.878 72.2907 238.686 71.4907 238.686 70.584C238.686 69.688 238.883 68.8933 239.278 68.2C239.673 67.5067 240.211 66.9733 240.894 66.6C241.577 66.2267 242.339 66.04 243.182 66.04C244.025 66.04 244.787 66.2267 245.47 66.6C246.153 66.9733 246.691 67.5067 247.086 68.2C247.481 68.8933 247.678 69.688 247.678 70.584C247.678 71.48 247.475 72.2747 247.07 72.968C246.665 73.6613 246.11 74.2 245.406 74.584C244.713 74.9573 243.945 75.144 243.102 75.144ZM243.102 73.56C243.571 73.56 244.009 73.448 244.414 73.224C244.83 73 245.166 72.664 245.422 72.216C245.678 71.768 245.806 71.224 245.806 70.584C245.806 69.944 245.683 69.4053 245.438 68.968C245.193 68.52 244.867 68.184 244.462 67.96C244.057 67.736 243.619 67.624 243.15 67.624C242.681 67.624 242.243 67.736 241.838 67.96C241.443 68.184 241.129 68.52 240.894 68.968C240.659 69.4053 240.542 69.944 240.542 70.584C240.542 71.5333 240.782 72.2693 241.262 72.792C241.753 73.304 242.366 73.56 243.102 73.56ZM257.465 66.184V75H255.641V73.96C255.353 74.3227 254.975 74.6107 254.505 74.824C254.047 75.0267 253.556 75.128 253.033 75.128C252.34 75.128 251.716 74.984 251.161 74.696C250.617 74.408 250.185 73.9813 249.865 73.416C249.556 72.8507 249.401 72.168 249.401 71.368V66.184H251.209V71.096C251.209 71.8853 251.407 72.4933 251.801 72.92C252.196 73.336 252.735 73.544 253.417 73.544C254.1 73.544 254.639 73.336 255.033 72.92C255.439 72.4933 255.641 71.8853 255.641 71.096V66.184H257.465ZM261.696 67.464C261.963 67.016 262.315 66.6693 262.752 66.424C263.2 66.168 263.728 66.04 264.336 66.04V67.928H263.872C263.157 67.928 262.613 68.1093 262.24 68.472C261.877 68.8347 261.696 69.464 261.696 70.36V75H259.872V66.184H261.696V67.464ZM269.213 75.144C268.519 75.144 267.895 75.0213 267.341 74.776C266.797 74.52 266.365 74.1787 266.045 73.752C265.725 73.3147 265.554 72.8293 265.533 72.296H267.421C267.453 72.6693 267.629 72.984 267.949 73.24C268.279 73.4853 268.69 73.608 269.181 73.608C269.693 73.608 270.087 73.512 270.365 73.32C270.653 73.1173 270.797 72.8613 270.797 72.552C270.797 72.2213 270.637 71.976 270.317 71.816C270.007 71.656 269.511 71.48 268.829 71.288C268.167 71.1067 267.629 70.9307 267.213 70.76C266.797 70.5893 266.434 70.328 266.125 69.976C265.826 69.624 265.677 69.16 265.677 68.584C265.677 68.1147 265.815 67.688 266.093 67.304C266.37 66.9093 266.765 66.6 267.277 66.376C267.799 66.152 268.397 66.04 269.069 66.04C270.071 66.04 270.877 66.296 271.485 66.808C272.103 67.3093 272.434 67.9973 272.477 68.872H270.653C270.621 68.4773 270.461 68.1627 270.173 67.928C269.885 67.6933 269.495 67.576 269.005 67.576C268.525 67.576 268.157 67.6667 267.901 67.848C267.645 68.0293 267.517 68.2693 267.517 68.568C267.517 68.8027 267.602 69 267.773 69.16C267.943 69.32 268.151 69.448 268.397 69.544C268.642 69.6293 269.005 69.7413 269.485 69.88C270.125 70.0507 270.647 70.2267 271.053 70.408C271.469 70.5787 271.826 70.8347 272.125 71.176C272.423 71.5173 272.578 71.9707 272.589 72.536C272.589 73.0373 272.45 73.4853 272.173 73.88C271.895 74.2747 271.501 74.584 270.989 74.808C270.487 75.032 269.895 75.144 269.213 75.144ZM282.639 70.376C282.639 70.7067 282.618 71.0053 282.575 71.272H275.839C275.893 71.976 276.154 72.5413 276.623 72.968C277.093 73.3947 277.669 73.608 278.351 73.608C279.333 73.608 280.026 73.1973 280.431 72.376H282.399C282.133 73.1867 281.647 73.8533 280.943 74.376C280.25 74.888 279.386 75.144 278.351 75.144C277.509 75.144 276.751 74.9573 276.079 74.584C275.418 74.2 274.895 73.6667 274.511 72.984C274.138 72.2907 273.951 71.4907 273.951 70.584C273.951 69.6773 274.133 68.8827 274.495 68.2C274.869 67.5067 275.386 66.9733 276.047 66.6C276.719 66.2267 277.487 66.04 278.351 66.04C279.183 66.04 279.925 66.2213 280.575 66.584C281.226 66.9467 281.733 67.4587 282.095 68.12C282.458 68.7707 282.639 69.5227 282.639 70.376ZM280.735 69.8C280.725 69.128 280.485 68.5893 280.015 68.184C279.546 67.7787 278.965 67.576 278.271 67.576C277.642 67.576 277.103 67.7787 276.655 68.184C276.207 68.5787 275.941 69.1173 275.855 69.8H280.735Z" fill="#92959E"/>
<path d="M484.579 101.976C484.603 101.024 484.879 100.296 485.407 99.792C485.943 99.288 486.699 99.036 487.675 99.036C488.307 99.036 488.847 99.144 489.295 99.36C489.743 99.576 490.079 99.868 490.303 100.236C490.535 100.604 490.651 101.02 490.651 101.484C490.651 102.044 490.519 102.484 490.255 102.804C489.991 103.116 489.695 103.328 489.367 103.44V103.488C490.327 103.848 490.807 104.516 490.807 105.492C490.807 106.004 490.687 106.456 490.447 106.848C490.207 107.24 489.863 107.544 489.415 107.76C488.975 107.976 488.451 108.084 487.843 108.084C486.803 108.084 485.987 107.836 485.395 107.34C484.803 106.844 484.499 106.068 484.483 105.012H487.075C487.059 105.3 487.099 105.52 487.195 105.672C487.299 105.816 487.475 105.888 487.723 105.888C487.867 105.888 487.987 105.836 488.083 105.732C488.179 105.62 488.227 105.476 488.227 105.3C488.227 105.076 488.151 104.908 487.999 104.796C487.855 104.676 487.607 104.616 487.255 104.616H486.811V102.468H487.243C487.787 102.5 488.059 102.284 488.059 101.82C488.059 101.62 488.015 101.472 487.927 101.376C487.847 101.28 487.743 101.232 487.615 101.232C487.319 101.232 487.171 101.48 487.171 101.976H484.579ZM491.518 105.876C492.59 105.076 493.438 104.352 494.062 103.704C494.686 103.048 494.998 102.436 494.998 101.868C494.998 101.676 494.954 101.528 494.866 101.424C494.786 101.32 494.678 101.268 494.542 101.268C494.382 101.268 494.254 101.352 494.158 101.52C494.07 101.68 494.038 101.928 494.062 102.264H491.482C491.506 101.52 491.666 100.908 491.962 100.428C492.266 99.948 492.658 99.596 493.138 99.372C493.618 99.148 494.146 99.036 494.722 99.036C495.746 99.036 496.494 99.284 496.966 99.78C497.446 100.268 497.686 100.896 497.686 101.664C497.686 102.472 497.426 103.232 496.906 103.944C496.394 104.648 495.75 105.244 494.974 105.732H497.722V107.88H491.518V105.876ZM497.99 101.52C497.99 100.816 498.19 100.28 498.59 99.912C498.99 99.536 499.514 99.348 500.162 99.348C500.802 99.348 501.318 99.536 501.71 99.912C502.11 100.28 502.31 100.816 502.31 101.52C502.31 102.224 502.11 102.76 501.71 103.128C501.318 103.496 500.802 103.68 500.162 103.68C499.514 103.68 498.99 103.496 498.59 103.128C498.19 102.76 497.99 102.224 497.99 101.52ZM506.882 99.468L502.406 108H499.862L504.338 99.468H506.882ZM500.138 100.896C499.866 100.896 499.73 101.104 499.73 101.52C499.73 101.928 499.866 102.132 500.138 102.132C500.282 102.132 500.39 102.08 500.462 101.976C500.542 101.872 500.582 101.72 500.582 101.52C500.582 101.312 500.542 101.156 500.462 101.052C500.39 100.948 500.282 100.896 500.138 100.896ZM504.434 105.948C504.434 105.244 504.634 104.708 505.034 104.34C505.434 103.964 505.954 103.776 506.594 103.776C507.242 103.776 507.762 103.964 508.154 104.34C508.546 104.708 508.742 105.244 508.742 105.948C508.742 106.652 508.546 107.192 508.154 107.568C507.762 107.936 507.242 108.12 506.594 108.12C505.954 108.12 505.434 107.936 505.034 107.568C504.634 107.192 504.434 106.652 504.434 105.948ZM506.582 105.324C506.302 105.324 506.162 105.532 506.162 105.948C506.162 106.364 506.302 106.572 506.582 106.572C506.718 106.572 506.822 106.52 506.894 106.416C506.974 106.312 507.014 106.156 507.014 105.948C507.014 105.748 506.974 105.596 506.894 105.492C506.822 105.38 506.718 105.324 506.582 105.324Z" fill="#15192C"/>
<path d="M40.105 101.575V112H38.395V104.86L35.215 112H34.03L30.835 104.86V112H29.125V101.575H30.97L34.63 109.75L38.275 101.575H40.105ZM41.4825 107.83C41.4825 107 41.6525 106.265 41.9925 105.625C42.3425 104.985 42.8125 104.49 43.4025 104.14C44.0025 103.78 44.6625 103.6 45.3825 103.6C46.0325 103.6 46.5975 103.73 47.0775 103.99C47.5675 104.24 47.9575 104.555 48.2475 104.935V103.735H49.9725V112H48.2475V110.77C47.9575 111.16 47.5625 111.485 47.0625 111.745C46.5625 112.005 45.9925 112.135 45.3525 112.135C44.6425 112.135 43.9925 111.955 43.4025 111.595C42.8125 111.225 42.3425 110.715 41.9925 110.065C41.6525 109.405 41.4825 108.66 41.4825 107.83ZM48.2475 107.86C48.2475 107.29 48.1275 106.795 47.8875 106.375C47.6575 105.955 47.3525 105.635 46.9725 105.415C46.5925 105.195 46.1825 105.085 45.7425 105.085C45.3025 105.085 44.8925 105.195 44.5125 105.415C44.1325 105.625 43.8225 105.94 43.5825 106.36C43.3525 106.77 43.2375 107.26 43.2375 107.83C43.2375 108.4 43.3525 108.9 43.5825 109.33C43.8225 109.76 44.1325 110.09 44.5125 110.32C44.9025 110.54 45.3125 110.65 45.7425 110.65C46.1825 110.65 46.5925 110.54 46.9725 110.32C47.3525 110.1 47.6575 109.78 47.8875 109.36C48.1275 108.93 48.2475 108.43 48.2475 107.86ZM51.3486 107.86C51.3486 107.01 51.5186 106.265 51.8586 105.625C52.2086 104.975 52.6886 104.475 53.2986 104.125C53.9086 103.775 54.6086 103.6 55.3986 103.6C56.3986 103.6 57.2236 103.84 57.8736 104.32C58.5336 104.79 58.9786 105.465 59.2086 106.345H57.3636C57.2136 105.935 56.9736 105.615 56.6436 105.385C56.3136 105.155 55.8986 105.04 55.3986 105.04C54.6986 105.04 54.1386 105.29 53.7186 105.79C53.3086 106.28 53.1036 106.97 53.1036 107.86C53.1036 108.75 53.3086 109.445 53.7186 109.945C54.1386 110.445 54.6986 110.695 55.3986 110.695C56.3886 110.695 57.0436 110.26 57.3636 109.39H59.2086C58.9686 110.23 58.5186 110.9 57.8586 111.4C57.1986 111.89 56.3786 112.135 55.3986 112.135C54.6086 112.135 53.9086 111.96 53.2986 111.61C52.6886 111.25 52.2086 110.75 51.8586 110.11C51.5186 109.46 51.3486 108.71 51.3486 107.86ZM64.8877 103.6C65.5177 103.6 66.0777 103.735 66.5677 104.005C67.0677 104.275 67.4577 104.675 67.7377 105.205C68.0277 105.735 68.1727 106.375 68.1727 107.125V112H66.4777V107.38C66.4777 106.64 66.2927 106.075 65.9227 105.685C65.5527 105.285 65.0477 105.085 64.4077 105.085C63.7677 105.085 63.2577 105.285 62.8777 105.685C62.5077 106.075 62.3227 106.64 62.3227 107.38V112H60.6127V100.9H62.3227V104.695C62.6127 104.345 62.9777 104.075 63.4177 103.885C63.8677 103.695 64.3577 103.6 64.8877 103.6ZM70.9239 102.64C70.6139 102.64 70.3539 102.535 70.1439 102.325C69.9339 102.115 69.8289 101.855 69.8289 101.545C69.8289 101.235 69.9339 100.975 70.1439 100.765C70.3539 100.555 70.6139 100.45 70.9239 100.45C71.2239 100.45 71.4789 100.555 71.6889 100.765C71.8989 100.975 72.0039 101.235 72.0039 101.545C72.0039 101.855 71.8989 102.115 71.6889 102.325C71.4789 102.535 71.2239 102.64 70.9239 102.64ZM71.7639 103.735V112H70.0539V103.735H71.7639ZM77.879 103.6C78.529 103.6 79.109 103.735 79.619 104.005C80.139 104.275 80.544 104.675 80.834 105.205C81.124 105.735 81.269 106.375 81.269 107.125V112H79.574V107.38C79.574 106.64 79.389 106.075 79.019 105.685C78.649 105.285 78.144 105.085 77.504 105.085C76.864 105.085 76.354 105.285 75.974 105.685C75.604 106.075 75.419 106.64 75.419 107.38V112H73.709V103.735H75.419V104.68C75.699 104.34 76.054 104.075 76.484 103.885C76.924 103.695 77.389 103.6 77.879 103.6ZM90.7252 107.665C90.7252 107.975 90.7052 108.255 90.6652 108.505H84.3502C84.4002 109.165 84.6452 109.695 85.0852 110.095C85.5252 110.495 86.0652 110.695 86.7052 110.695C87.6252 110.695 88.2752 110.31 88.6552 109.54H90.5002C90.2502 110.3 89.7952 110.925 89.1352 111.415C88.4852 111.895 87.6752 112.135 86.7052 112.135C85.9152 112.135 85.2052 111.96 84.5752 111.61C83.9552 111.25 83.4652 110.75 83.1052 110.11C82.7552 109.46 82.5802 108.71 82.5802 107.86C82.5802 107.01 82.7502 106.265 83.0902 105.625C83.4402 104.975 83.9252 104.475 84.5452 104.125C85.1752 103.775 85.8952 103.6 86.7052 103.6C87.4852 103.6 88.1802 103.77 88.7902 104.11C89.4002 104.45 89.8752 104.93 90.2152 105.55C90.5552 106.16 90.7252 106.865 90.7252 107.665ZM88.9402 107.125C88.9302 106.495 88.7052 105.99 88.2652 105.61C87.8252 105.23 87.2802 105.04 86.6302 105.04C86.0402 105.04 85.5352 105.23 85.1152 105.61C84.6952 105.98 84.4452 106.485 84.3652 107.125H88.9402ZM97.4145 110.62H100.939V112H95.7045V101.575H97.4145V110.62ZM109.645 107.665C109.645 107.975 109.625 108.255 109.585 108.505H103.27C103.32 109.165 103.565 109.695 104.005 110.095C104.445 110.495 104.985 110.695 105.625 110.695C106.545 110.695 107.195 110.31 107.575 109.54H109.42C109.17 110.3 108.715 110.925 108.055 111.415C107.405 111.895 106.595 112.135 105.625 112.135C104.835 112.135 104.125 111.96 103.495 111.61C102.875 111.25 102.385 110.75 102.025 110.11C101.675 109.46 101.5 108.71 101.5 107.86C101.5 107.01 101.67 106.265 102.01 105.625C102.36 104.975 102.845 104.475 103.465 104.125C104.095 103.775 104.815 103.6 105.625 103.6C106.405 103.6 107.1 103.77 107.71 104.11C108.32 104.45 108.795 104.93 109.135 105.55C109.475 106.16 109.645 106.865 109.645 107.665ZM107.86 107.125C107.85 106.495 107.625 105.99 107.185 105.61C106.745 105.23 106.2 105.04 105.55 105.04C104.96 105.04 104.455 105.23 104.035 105.61C103.615 105.98 103.365 106.485 103.285 107.125H107.86ZM110.457 107.83C110.457 107 110.627 106.265 110.967 105.625C111.317 104.985 111.787 104.49 112.377 104.14C112.977 103.78 113.637 103.6 114.357 103.6C115.007 103.6 115.572 103.73 116.052 103.99C116.542 104.24 116.932 104.555 117.222 104.935V103.735H118.947V112H117.222V110.77C116.932 111.16 116.537 111.485 116.037 111.745C115.537 112.005 114.967 112.135 114.327 112.135C113.617 112.135 112.967 111.955 112.377 111.595C111.787 111.225 111.317 110.715 110.967 110.065C110.627 109.405 110.457 108.66 110.457 107.83ZM117.222 107.86C117.222 107.29 117.102 106.795 116.862 106.375C116.632 105.955 116.327 105.635 115.947 105.415C115.567 105.195 115.157 105.085 114.717 105.085C114.277 105.085 113.867 105.195 113.487 105.415C113.107 105.625 112.797 105.94 112.557 106.36C112.327 106.77 112.212 107.26 112.212 107.83C112.212 108.4 112.327 108.9 112.557 109.33C112.797 109.76 113.107 110.09 113.487 110.32C113.877 110.54 114.287 110.65 114.717 110.65C115.157 110.65 115.567 110.54 115.947 110.32C116.327 110.1 116.632 109.78 116.862 109.36C117.102 108.93 117.222 108.43 117.222 107.86ZM122.603 104.935C122.853 104.515 123.183 104.19 123.593 103.96C124.013 103.72 124.508 103.6 125.078 103.6V105.37H124.643C123.973 105.37 123.463 105.54 123.113 105.88C122.773 106.22 122.603 106.81 122.603 107.65V112H120.893V103.735H122.603V104.935ZM130.52 103.6C131.17 103.6 131.75 103.735 132.26 104.005C132.78 104.275 133.185 104.675 133.475 105.205C133.765 105.735 133.91 106.375 133.91 107.125V112H132.215V107.38C132.215 106.64 132.03 106.075 131.66 105.685C131.29 105.285 130.785 105.085 130.145 105.085C129.505 105.085 128.995 105.285 128.615 105.685C128.245 106.075 128.06 106.64 128.06 107.38V112H126.35V103.735H128.06V104.68C128.34 104.34 128.695 104.075 129.125 103.885C129.565 103.695 130.03 103.6 130.52 103.6ZM136.661 102.64C136.351 102.64 136.091 102.535 135.881 102.325C135.671 102.115 135.566 101.855 135.566 101.545C135.566 101.235 135.671 100.975 135.881 100.765C136.091 100.555 136.351 100.45 136.661 100.45C136.961 100.45 137.216 100.555 137.426 100.765C137.636 100.975 137.741 101.235 137.741 101.545C137.741 101.855 137.636 102.115 137.426 102.325C137.216 102.535 136.961 102.64 136.661 102.64ZM137.501 103.735V112H135.791V103.735H137.501ZM143.616 103.6C144.266 103.6 144.846 103.735 145.356 104.005C145.876 104.275 146.281 104.675 146.571 105.205C146.861 105.735 147.006 106.375 147.006 107.125V112H145.311V107.38C145.311 106.64 145.126 106.075 144.756 105.685C144.386 105.285 143.881 105.085 143.241 105.085C142.601 105.085 142.091 105.285 141.711 105.685C141.341 106.075 141.156 106.64 141.156 107.38V112H139.446V103.735H141.156V104.68C141.436 104.34 141.791 104.075 142.221 103.885C142.661 103.695 143.126 103.6 143.616 103.6ZM152.218 103.6C152.858 103.6 153.423 103.73 153.913 103.99C154.413 104.24 154.803 104.555 155.083 104.935V103.735H156.808V112.135C156.808 112.895 156.648 113.57 156.328 114.16C156.008 114.76 155.543 115.23 154.933 115.57C154.333 115.91 153.613 116.08 152.773 116.08C151.653 116.08 150.723 115.815 149.983 115.285C149.243 114.765 148.823 114.055 148.723 113.155H150.418C150.548 113.585 150.823 113.93 151.243 114.19C151.673 114.46 152.183 114.595 152.773 114.595C153.463 114.595 154.018 114.385 154.438 113.965C154.868 113.545 155.083 112.935 155.083 112.135V110.755C154.793 111.145 154.398 111.475 153.898 111.745C153.408 112.005 152.848 112.135 152.218 112.135C151.498 112.135 150.838 111.955 150.238 111.595C149.648 111.225 149.178 110.715 148.828 110.065C148.488 109.405 148.318 108.66 148.318 107.83C148.318 107 148.488 106.265 148.828 105.625C149.178 104.985 149.648 104.49 150.238 104.14C150.838 103.78 151.498 103.6 152.218 103.6ZM155.083 107.86C155.083 107.29 154.963 106.795 154.723 106.375C154.493 105.955 154.188 105.635 153.808 105.415C153.428 105.195 153.018 105.085 152.578 105.085C152.138 105.085 151.728 105.195 151.348 105.415C150.968 105.625 150.658 105.94 150.418 106.36C150.188 106.77 150.073 107.26 150.073 107.83C150.073 108.4 150.188 108.9 150.418 109.33C150.658 109.76 150.968 110.09 151.348 110.32C151.738 110.54 152.148 110.65 152.578 110.65C153.018 110.65 153.428 110.54 153.808 110.32C154.188 110.1 154.493 109.78 154.723 109.36C154.963 108.93 155.083 108.43 155.083 107.86Z" fill="#15192C"/>
<rect x="28" y="115.527" width="480.999" height="4.92648" rx="2.46324" fill="#FFF7F0"/>
<rect x="28" y="115.527" width="141.934" height="4.92648" rx="2.46324" fill="#FF6A00"/>
<path d="M487.327 168.291C487.007 168.107 486.755 167.867 486.571 167.571C486.395 167.267 486.307 166.907 486.307 166.491C486.307 166.059 486.423 165.667 486.655 165.315C486.887 164.963 487.239 164.683 487.711 164.475C488.191 164.259 488.779 164.151 489.475 164.151C490.171 164.151 490.755 164.259 491.227 164.475C491.707 164.683 492.063 164.963 492.295 165.315C492.527 165.667 492.643 166.059 492.643 166.491C492.643 166.907 492.551 167.267 492.367 167.571C492.191 167.867 491.943 168.107 491.623 168.291C492.431 168.763 492.835 169.471 492.835 170.415C492.835 171.023 492.683 171.539 492.379 171.963C492.075 172.387 491.667 172.707 491.155 172.923C490.643 173.139 490.083 173.247 489.475 173.247C488.867 173.247 488.307 173.139 487.795 172.923C487.283 172.707 486.875 172.387 486.571 171.963C486.267 171.539 486.115 171.023 486.115 170.415C486.115 169.471 486.519 168.763 487.327 168.291ZM490.027 166.935C490.027 166.711 489.975 166.535 489.871 166.407C489.767 166.271 489.635 166.203 489.475 166.203C489.315 166.203 489.183 166.271 489.079 166.407C488.975 166.535 488.923 166.711 488.923 166.935C488.923 167.167 488.975 167.343 489.079 167.463C489.183 167.583 489.315 167.643 489.475 167.643C489.635 167.643 489.767 167.583 489.871 167.463C489.975 167.343 490.027 167.167 490.027 166.935ZM489.475 169.431C489.235 169.431 489.043 169.511 488.899 169.671C488.763 169.823 488.695 170.019 488.695 170.259C488.695 170.499 488.763 170.695 488.899 170.847C489.035 170.999 489.227 171.075 489.475 171.075C489.723 171.075 489.915 170.999 490.051 170.847C490.187 170.695 490.255 170.499 490.255 170.259C490.255 170.019 490.183 169.823 490.039 169.671C489.903 169.511 489.715 169.431 489.475 169.431ZM493.306 166.839V164.343H497.374V173.115H494.578V166.839H493.306ZM497.99 166.635C497.99 165.931 498.19 165.395 498.59 165.027C498.99 164.651 499.514 164.463 500.162 164.463C500.802 164.463 501.318 164.651 501.71 165.027C502.11 165.395 502.31 165.931 502.31 166.635C502.31 167.339 502.11 167.875 501.71 168.243C501.318 168.611 500.802 168.795 500.162 168.795C499.514 168.795 498.99 168.611 498.59 168.243C498.19 167.875 497.99 167.339 497.99 166.635ZM506.882 164.583L502.406 173.115H499.862L504.338 164.583H506.882ZM500.138 166.011C499.866 166.011 499.73 166.219 499.73 166.635C499.73 167.043 499.866 167.247 500.138 167.247C500.282 167.247 500.39 167.195 500.462 167.091C500.542 166.987 500.582 166.835 500.582 166.635C500.582 166.427 500.542 166.271 500.462 166.167C500.39 166.063 500.282 166.011 500.138 166.011ZM504.434 171.063C504.434 170.359 504.634 169.823 505.034 169.455C505.434 169.079 505.954 168.891 506.594 168.891C507.242 168.891 507.762 169.079 508.154 169.455C508.546 169.823 508.742 170.359 508.742 171.063C508.742 171.767 508.546 172.307 508.154 172.683C507.762 173.051 507.242 173.235 506.594 173.235C505.954 173.235 505.434 173.051 505.034 172.683C504.634 172.307 504.434 171.767 504.434 171.063ZM506.582 170.439C506.302 170.439 506.162 170.647 506.162 171.063C506.162 171.479 506.302 171.687 506.582 171.687C506.718 171.687 506.822 171.635 506.894 171.531C506.974 171.427 507.014 171.271 507.014 171.063C507.014 170.863 506.974 170.711 506.894 170.607C506.822 170.495 506.718 170.439 506.582 170.439Z" fill="#15192C"/>
<path d="M35.904 175.728H31.248L30.448 178H28.544L32.528 166.864H34.64L38.624 178H36.704L35.904 175.728ZM35.392 174.24L33.584 169.072L31.76 174.24H35.392ZM44.4843 169.04C45.1776 169.04 45.7963 169.184 46.3403 169.472C46.8949 169.76 47.3269 170.187 47.6363 170.752C47.9456 171.317 48.1003 172 48.1003 172.8V178H46.2923V173.072C46.2923 172.283 46.0949 171.68 45.7003 171.264C45.3056 170.837 44.7669 170.624 44.0843 170.624C43.4016 170.624 42.8576 170.837 42.4523 171.264C42.0576 171.68 41.8603 172.283 41.8603 173.072V178H40.0363V169.184H41.8603V170.192C42.1589 169.829 42.5376 169.547 42.9963 169.344C43.4656 169.141 43.9616 169.04 44.4843 169.04ZM49.4989 173.552C49.4989 172.667 49.6802 171.883 50.0429 171.2C50.4162 170.517 50.9175 169.989 51.5469 169.616C52.1869 169.232 52.8962 169.04 53.6749 169.04C54.2509 169.04 54.8162 169.168 55.3709 169.424C55.9362 169.669 56.3842 170 56.7149 170.416V166.16H58.5549V178H56.7149V176.672C56.4162 177.099 56.0002 177.451 55.4669 177.728C54.9442 178.005 54.3415 178.144 53.6589 178.144C52.8909 178.144 52.1869 177.952 51.5469 177.568C50.9175 177.173 50.4162 176.629 50.0429 175.936C49.6802 175.232 49.4989 174.437 49.4989 173.552ZM56.7149 173.584C56.7149 172.976 56.5869 172.448 56.3309 172C56.0855 171.552 55.7602 171.211 55.3549 170.976C54.9495 170.741 54.5122 170.624 54.0429 170.624C53.5735 170.624 53.1362 170.741 52.7309 170.976C52.3255 171.2 51.9949 171.536 51.7389 171.984C51.4935 172.421 51.3709 172.944 51.3709 173.552C51.3709 174.16 51.4935 174.693 51.7389 175.152C51.9949 175.611 52.3255 175.963 52.7309 176.208C53.1469 176.443 53.5842 176.56 54.0429 176.56C54.5122 176.56 54.9495 176.443 55.3549 176.208C55.7602 175.973 56.0855 175.632 56.3309 175.184C56.5869 174.725 56.7149 174.192 56.7149 173.584ZM62.4546 170.464C62.7213 170.016 63.0733 169.669 63.5106 169.424C63.9586 169.168 64.4866 169.04 65.0946 169.04V170.928H64.6306C63.916 170.928 63.372 171.109 62.9986 171.472C62.636 171.835 62.4546 172.464 62.4546 173.36V178H60.6306V169.184H62.4546V170.464ZM70.2753 178.144C69.4433 178.144 68.6913 177.957 68.0193 177.584C67.3473 177.2 66.8193 176.667 66.4353 175.984C66.0513 175.291 65.8593 174.491 65.8593 173.584C65.8593 172.688 66.0566 171.893 66.4513 171.2C66.8459 170.507 67.3846 169.973 68.0673 169.6C68.7499 169.227 69.5126 169.04 70.3553 169.04C71.1979 169.04 71.9606 169.227 72.6433 169.6C73.3259 169.973 73.8646 170.507 74.2593 171.2C74.6539 171.893 74.8513 172.688 74.8513 173.584C74.8513 174.48 74.6486 175.275 74.2433 175.968C73.8379 176.661 73.2833 177.2 72.5793 177.584C71.8859 177.957 71.1179 178.144 70.2753 178.144ZM70.2753 176.56C70.7446 176.56 71.1819 176.448 71.5873 176.224C72.0033 176 72.3393 175.664 72.5953 175.216C72.8513 174.768 72.9793 174.224 72.9793 173.584C72.9793 172.944 72.8566 172.405 72.6113 171.968C72.3659 171.52 72.0406 171.184 71.6353 170.96C71.2299 170.736 70.7926 170.624 70.3233 170.624C69.8539 170.624 69.4166 170.736 69.0113 170.96C68.6166 171.184 68.3019 171.52 68.0673 171.968C67.8326 172.405 67.7153 172.944 67.7153 173.584C67.7153 174.533 67.9553 175.269 68.4353 175.792C68.9259 176.304 69.5393 176.56 70.2753 176.56ZM77.2624 168.016C76.9317 168.016 76.6544 167.904 76.4304 167.68C76.2064 167.456 76.0944 167.179 76.0944 166.848C76.0944 166.517 76.2064 166.24 76.4304 166.016C76.6544 165.792 76.9317 165.68 77.2624 165.68C77.5824 165.68 77.8544 165.792 78.0784 166.016C78.3024 166.24 78.4144 166.517 78.4144 166.848C78.4144 167.179 78.3024 167.456 78.0784 167.68C77.8544 167.904 77.5824 168.016 77.2624 168.016ZM78.1584 169.184V178H76.3344V169.184H78.1584ZM79.6251 173.552C79.6251 172.667 79.8065 171.883 80.1691 171.2C80.5425 170.517 81.0438 169.989 81.6731 169.616C82.3131 169.232 83.0225 169.04 83.8011 169.04C84.3771 169.04 84.9425 169.168 85.4971 169.424C86.0625 169.669 86.5105 170 86.8411 170.416V166.16H88.6811V178H86.8411V176.672C86.5425 177.099 86.1265 177.451 85.5931 177.728C85.0705 178.005 84.4678 178.144 83.7851 178.144C83.0171 178.144 82.3131 177.952 81.6731 177.568C81.0438 177.173 80.5425 176.629 80.1691 175.936C79.8065 175.232 79.6251 174.437 79.6251 173.552ZM86.8411 173.584C86.8411 172.976 86.7131 172.448 86.4571 172C86.2118 171.552 85.8865 171.211 85.4811 170.976C85.0758 170.741 84.6385 170.624 84.1691 170.624C83.6998 170.624 83.2625 170.741 82.8571 170.976C82.4518 171.2 82.1211 171.536 81.8651 171.984C81.6198 172.421 81.4971 172.944 81.4971 173.552C81.4971 174.16 81.6198 174.693 81.8651 175.152C82.1211 175.611 82.4518 175.963 82.8571 176.208C83.2731 176.443 83.7105 176.56 84.1691 176.56C84.6385 176.56 85.0758 176.443 85.4811 176.208C85.8865 175.973 86.2118 175.632 86.4571 175.184C86.7131 174.725 86.8411 174.192 86.8411 173.584ZM98.2251 166.88C99.4091 166.88 100.444 167.109 101.329 167.568C102.225 168.016 102.913 168.667 103.393 169.52C103.884 170.363 104.129 171.349 104.129 172.48C104.129 173.611 103.884 174.592 103.393 175.424C102.913 176.256 102.225 176.896 101.329 177.344C100.444 177.781 99.4091 178 98.2251 178H94.5931V166.88H98.2251ZM98.2251 176.512C99.5265 176.512 100.524 176.16 101.217 175.456C101.91 174.752 102.257 173.76 102.257 172.48C102.257 171.189 101.91 170.181 101.217 169.456C100.524 168.731 99.5265 168.368 98.2251 168.368H96.4171V176.512H98.2251ZM113.697 173.376C113.697 173.707 113.676 174.005 113.633 174.272H106.897C106.95 174.976 107.212 175.541 107.681 175.968C108.15 176.395 108.726 176.608 109.409 176.608C110.39 176.608 111.084 176.197 111.489 175.376H113.457C113.19 176.187 112.705 176.853 112.001 177.376C111.308 177.888 110.444 178.144 109.409 178.144C108.566 178.144 107.809 177.957 107.137 177.584C106.476 177.2 105.953 176.667 105.569 175.984C105.196 175.291 105.009 174.491 105.009 173.584C105.009 172.677 105.19 171.883 105.553 171.2C105.926 170.507 106.444 169.973 107.105 169.6C107.777 169.227 108.545 169.04 109.409 169.04C110.241 169.04 110.982 169.221 111.633 169.584C112.284 169.947 112.79 170.459 113.153 171.12C113.516 171.771 113.697 172.523 113.697 173.376ZM111.793 172.8C111.782 172.128 111.542 171.589 111.073 171.184C110.604 170.779 110.022 170.576 109.329 170.576C108.7 170.576 108.161 170.779 107.713 171.184C107.265 171.579 106.998 172.117 106.913 172.8H111.793ZM118.58 176.368L121.076 169.184H123.012L119.652 178H117.476L114.132 169.184H116.084L118.58 176.368ZM132.151 173.376C132.151 173.707 132.129 174.005 132.087 174.272H125.351C125.404 174.976 125.665 175.541 126.135 175.968C126.604 176.395 127.18 176.608 127.863 176.608C128.844 176.608 129.537 176.197 129.943 175.376H131.911C131.644 176.187 131.159 176.853 130.455 177.376C129.761 177.888 128.897 178.144 127.863 178.144C127.02 178.144 126.263 177.957 125.591 177.584C124.929 177.2 124.407 176.667 124.023 175.984C123.649 175.291 123.463 174.491 123.463 173.584C123.463 172.677 123.644 171.883 124.007 171.2C124.38 170.507 124.897 169.973 125.559 169.6C126.231 169.227 126.999 169.04 127.863 169.04C128.695 169.04 129.436 169.221 130.087 169.584C130.737 169.947 131.244 170.459 131.607 171.12C131.969 171.771 132.151 172.523 132.151 173.376ZM130.247 172.8C130.236 172.128 129.996 171.589 129.527 171.184C129.057 170.779 128.476 170.576 127.783 170.576C127.153 170.576 126.615 170.779 126.167 171.184C125.719 171.579 125.452 172.117 125.367 172.8H130.247ZM135.45 166.16V178H133.626V166.16H135.45ZM141.348 178.144C140.516 178.144 139.764 177.957 139.092 177.584C138.42 177.2 137.892 176.667 137.508 175.984C137.124 175.291 136.932 174.491 136.932 173.584C136.932 172.688 137.13 171.893 137.524 171.2C137.919 170.507 138.458 169.973 139.14 169.6C139.823 169.227 140.586 169.04 141.428 169.04C142.271 169.04 143.034 169.227 143.716 169.6C144.399 169.973 144.938 170.507 145.332 171.2C145.727 171.893 145.924 172.688 145.924 173.584C145.924 174.48 145.722 175.275 145.316 175.968C144.911 176.661 144.356 177.2 143.652 177.584C142.959 177.957 142.191 178.144 141.348 178.144ZM141.348 176.56C141.818 176.56 142.255 176.448 142.66 176.224C143.076 176 143.412 175.664 143.668 175.216C143.924 174.768 144.052 174.224 144.052 173.584C144.052 172.944 143.93 172.405 143.684 171.968C143.439 171.52 143.114 171.184 142.708 170.96C142.303 170.736 141.866 170.624 141.396 170.624C140.927 170.624 140.49 170.736 140.084 170.96C139.69 171.184 139.375 171.52 139.14 171.968C138.906 172.405 138.788 172.944 138.788 173.584C138.788 174.533 139.028 175.269 139.508 175.792C139.999 176.304 140.612 176.56 141.348 176.56ZM149.231 170.48C149.541 170.075 149.962 169.733 150.495 169.456C151.029 169.179 151.631 169.04 152.303 169.04C153.071 169.04 153.77 169.232 154.399 169.616C155.039 169.989 155.541 170.517 155.903 171.2C156.266 171.883 156.447 172.667 156.447 173.552C156.447 174.437 156.266 175.232 155.903 175.936C155.541 176.629 155.039 177.173 154.399 177.568C153.77 177.952 153.071 178.144 152.303 178.144C151.631 178.144 151.034 178.011 150.511 177.744C149.989 177.467 149.562 177.125 149.231 176.72V182.192H147.407V169.184H149.231V170.48ZM154.591 173.552C154.591 172.944 154.463 172.421 154.207 171.984C153.962 171.536 153.631 171.2 153.215 170.976C152.81 170.741 152.373 170.624 151.903 170.624C151.445 170.624 151.007 170.741 150.591 170.976C150.186 171.211 149.855 171.552 149.599 172C149.354 172.448 149.231 172.976 149.231 173.584C149.231 174.192 149.354 174.725 149.599 175.184C149.855 175.632 150.186 175.973 150.591 176.208C151.007 176.443 151.445 176.56 151.903 176.56C152.373 176.56 152.81 176.443 153.215 176.208C153.631 175.963 153.962 175.611 154.207 175.152C154.463 174.693 154.591 174.16 154.591 173.552ZM168.603 169.04C169.297 169.04 169.915 169.184 170.459 169.472C171.014 169.76 171.446 170.187 171.755 170.752C172.075 171.317 172.235 172 172.235 172.8V178H170.427V173.072C170.427 172.283 170.23 171.68 169.835 171.264C169.441 170.837 168.902 170.624 168.219 170.624C167.537 170.624 166.993 170.837 166.587 171.264C166.193 171.68 165.995 172.283 165.995 173.072V178H164.187V173.072C164.187 172.283 163.99 171.68 163.595 171.264C163.201 170.837 162.662 170.624 161.979 170.624C161.297 170.624 160.753 170.837 160.347 171.264C159.953 171.68 159.755 172.283 159.755 173.072V178H157.931V169.184H159.755V170.192C160.054 169.829 160.433 169.547 160.891 169.344C161.35 169.141 161.841 169.04 162.363 169.04C163.067 169.04 163.697 169.189 164.251 169.488C164.806 169.787 165.233 170.219 165.531 170.784C165.798 170.251 166.214 169.829 166.779 169.52C167.345 169.2 167.953 169.04 168.603 169.04ZM182.316 173.376C182.316 173.707 182.295 174.005 182.252 174.272H175.516C175.57 174.976 175.831 175.541 176.3 175.968C176.77 176.395 177.346 176.608 178.028 176.608C179.01 176.608 179.703 176.197 180.108 175.376H182.076C181.81 176.187 181.324 176.853 180.62 177.376C179.927 177.888 179.063 178.144 178.028 178.144C177.186 178.144 176.428 177.957 175.756 177.584C175.095 177.2 174.572 176.667 174.188 175.984C173.815 175.291 173.628 174.491 173.628 173.584C173.628 172.677 173.81 171.883 174.172 171.2C174.546 170.507 175.063 169.973 175.724 169.6C176.396 169.227 177.164 169.04 178.028 169.04C178.86 169.04 179.602 169.221 180.252 169.584C180.903 169.947 181.41 170.459 181.772 171.12C182.135 171.771 182.316 172.523 182.316 173.376ZM180.412 172.8C180.402 172.128 180.162 171.589 179.692 171.184C179.223 170.779 178.642 170.576 177.948 170.576C177.319 170.576 176.78 170.779 176.332 171.184C175.884 171.579 175.618 172.117 175.532 172.8H180.412ZM188.239 169.04C188.933 169.04 189.551 169.184 190.095 169.472C190.65 169.76 191.082 170.187 191.391 170.752C191.701 171.317 191.855 172 191.855 172.8V178H190.047V173.072C190.047 172.283 189.85 171.68 189.455 171.264C189.061 170.837 188.522 170.624 187.839 170.624C187.157 170.624 186.613 170.837 186.207 171.264C185.813 171.68 185.615 172.283 185.615 173.072V178H183.791V169.184H185.615V170.192C185.914 169.829 186.293 169.547 186.751 169.344C187.221 169.141 187.717 169.04 188.239 169.04ZM195.99 170.672V175.552C195.99 175.883 196.065 176.123 196.214 176.272C196.374 176.411 196.641 176.48 197.014 176.48H198.134V178H196.694C195.873 178 195.243 177.808 194.806 177.424C194.369 177.04 194.15 176.416 194.15 175.552V170.672H193.11V169.184H194.15V166.992H195.99V169.184H198.134V170.672H195.99Z" fill="#15192C"/>
<rect x="28" y="180.642" width="480.999" height="4.92648" rx="2.46324" fill="#F3F0FF"/>
<rect x="28" y="180.642" width="381.12" height="4.92648" rx="2.46324" fill="#551FFF"/>
<path d="M487.059 232.122C487.011 231.882 486.939 231.706 486.843 231.594C486.755 231.482 486.615 231.426 486.423 231.426C486.119 231.426 485.915 231.582 485.811 231.894C485.715 232.198 485.667 232.674 485.667 233.322C485.811 233.098 486.019 232.922 486.291 232.794C486.563 232.666 486.871 232.602 487.215 232.602C487.983 232.602 488.595 232.838 489.051 233.31C489.515 233.782 489.747 234.466 489.747 235.362C489.747 235.962 489.619 236.486 489.363 236.934C489.115 237.374 488.759 237.714 488.295 237.954C487.831 238.194 487.283 238.314 486.651 238.314C485.395 238.314 484.523 237.93 484.035 237.162C483.547 236.386 483.303 235.302 483.303 233.91C483.303 232.822 483.415 231.942 483.639 231.27C483.863 230.598 484.215 230.102 484.695 229.782C485.183 229.462 485.815 229.302 486.591 229.302C487.543 229.302 488.259 229.574 488.739 230.118C489.227 230.662 489.495 231.33 489.543 232.122H487.059ZM486.555 234.642C486.339 234.642 486.167 234.702 486.039 234.822C485.911 234.942 485.847 235.11 485.847 235.326C485.847 235.566 485.907 235.746 486.027 235.866C486.155 235.978 486.331 236.034 486.555 236.034C486.779 236.034 486.951 235.978 487.071 235.866C487.199 235.746 487.263 235.566 487.263 235.326C487.263 235.11 487.199 234.942 487.071 234.822C486.943 234.702 486.771 234.642 486.555 234.642ZM490.417 233.718C490.417 232.334 490.709 231.246 491.293 230.454C491.885 229.662 492.793 229.266 494.017 229.266C495.233 229.266 496.137 229.666 496.729 230.466C497.321 231.258 497.617 232.342 497.617 233.718C497.617 235.102 497.321 236.194 496.729 236.994C496.137 237.786 495.233 238.182 494.017 238.182C492.793 238.182 491.885 237.786 491.293 236.994C490.709 236.194 490.417 235.102 490.417 233.718ZM494.989 233.718C494.989 233.078 494.925 232.598 494.797 232.278C494.669 231.95 494.409 231.786 494.017 231.786C493.617 231.786 493.353 231.95 493.225 232.278C493.097 232.598 493.033 233.078 493.033 233.718C493.033 234.366 493.097 234.854 493.225 235.182C493.353 235.502 493.617 235.662 494.017 235.662C494.409 235.662 494.669 235.502 494.797 235.182C494.925 234.854 494.989 234.366 494.989 233.718ZM497.99 231.75C497.99 231.046 498.19 230.51 498.59 230.142C498.99 229.766 499.514 229.578 500.162 229.578C500.802 229.578 501.318 229.766 501.71 230.142C502.11 230.51 502.31 231.046 502.31 231.75C502.31 232.454 502.11 232.99 501.71 233.358C501.318 233.726 500.802 233.91 500.162 233.91C499.514 233.91 498.99 233.726 498.59 233.358C498.19 232.99 497.99 232.454 497.99 231.75ZM506.882 229.698L502.406 238.23H499.862L504.338 229.698H506.882ZM500.138 231.126C499.866 231.126 499.73 231.334 499.73 231.75C499.73 232.158 499.866 232.362 500.138 232.362C500.282 232.362 500.39 232.31 500.462 232.206C500.542 232.102 500.582 231.95 500.582 231.75C500.582 231.542 500.542 231.386 500.462 231.282C500.39 231.178 500.282 231.126 500.138 231.126ZM504.434 236.178C504.434 235.474 504.634 234.938 505.034 234.57C505.434 234.194 505.954 234.006 506.594 234.006C507.242 234.006 507.762 234.194 508.154 234.57C508.546 234.938 508.742 235.474 508.742 236.178C508.742 236.882 508.546 237.422 508.154 237.798C507.762 238.166 507.242 238.35 506.594 238.35C505.954 238.35 505.434 238.166 505.034 237.798C504.634 237.422 504.434 236.882 504.434 236.178ZM506.582 235.554C506.302 235.554 506.162 235.762 506.162 236.178C506.162 236.594 506.302 236.802 506.582 236.802C506.718 236.802 506.822 236.75 506.894 236.646C506.974 236.542 507.014 236.386 507.014 236.178C507.014 235.978 506.974 235.826 506.894 235.722C506.822 235.61 506.718 235.554 506.582 235.554Z" fill="#15192C"/>
<path d="M31.008 231.88V238.968C31.008 239.811 31.2267 240.445 31.664 240.872C32.112 241.299 32.7307 241.512 33.52 241.512C34.32 241.512 34.9387 241.299 35.376 240.872C35.824 240.445 36.048 239.811 36.048 238.968V231.88H37.872V238.936C37.872 239.843 37.6747 240.611 37.28 241.24C36.8853 241.869 36.3573 242.339 35.696 242.648C35.0347 242.957 34.304 243.112 33.504 243.112C32.704 243.112 31.9733 242.957 31.312 242.648C30.6613 242.339 30.144 241.869 29.76 241.24C29.376 240.611 29.184 239.843 29.184 238.936V231.88H31.008ZM41.7509 231.88V243H39.9269V231.88H41.7509ZM49.7456 227.896L45.3936 245.8H43.6016L47.9376 227.896H49.7456ZM53.5324 231.88V238.968C53.5324 239.811 53.751 240.445 54.1884 240.872C54.6364 241.299 55.255 241.512 56.0444 241.512C56.8444 241.512 57.463 241.299 57.9004 240.872C58.3484 240.445 58.5724 239.811 58.5724 238.968V231.88H60.3964V238.936C60.3964 239.843 60.199 240.611 59.8044 241.24C59.4097 241.869 58.8817 242.339 58.2204 242.648C57.559 242.957 56.8284 243.112 56.0284 243.112C55.2284 243.112 54.4977 242.957 53.8364 242.648C53.1857 242.339 52.6684 241.869 52.2844 241.24C51.9004 240.611 51.7084 239.843 51.7084 238.936V231.88H53.5324ZM67.5553 237.448L71.0113 243H68.9633L66.4513 238.968L64.0993 243H62.0673L65.5233 237.448L62.0513 231.88H64.0993L66.6273 235.944L68.9953 231.88H71.0273L67.5553 237.448ZM80.162 231.88C81.346 231.88 82.3807 232.109 83.266 232.568C84.162 233.016 84.85 233.667 85.33 234.52C85.8207 235.363 86.066 236.349 86.066 237.48C86.066 238.611 85.8207 239.592 85.33 240.424C84.85 241.256 84.162 241.896 83.266 242.344C82.3807 242.781 81.346 243 80.162 243H76.53V231.88H80.162ZM80.162 241.512C81.4633 241.512 82.4607 241.16 83.154 240.456C83.8473 239.752 84.194 238.76 84.194 237.48C84.194 236.189 83.8473 235.181 83.154 234.456C82.4607 233.731 81.4633 233.368 80.162 233.368H78.354V241.512H80.162ZM95.6337 238.376C95.6337 238.707 95.6124 239.005 95.5697 239.272H88.8337C88.8871 239.976 89.1484 240.541 89.6177 240.968C90.0871 241.395 90.6631 241.608 91.3457 241.608C92.3271 241.608 93.0204 241.197 93.4257 240.376H95.3937C95.1271 241.187 94.6417 241.853 93.9377 242.376C93.2444 242.888 92.3804 243.144 91.3457 243.144C90.5031 243.144 89.7457 242.957 89.0737 242.584C88.4124 242.2 87.8897 241.667 87.5057 240.984C87.1324 240.291 86.9457 239.491 86.9457 238.584C86.9457 237.677 87.1271 236.883 87.4897 236.2C87.8631 235.507 88.3804 234.973 89.0417 234.6C89.7137 234.227 90.4817 234.04 91.3457 234.04C92.1777 234.04 92.9191 234.221 93.5697 234.584C94.2204 234.947 94.7271 235.459 95.0897 236.12C95.4524 236.771 95.6337 237.523 95.6337 238.376ZM93.7297 237.8C93.7191 237.128 93.4791 236.589 93.0097 236.184C92.5404 235.779 91.9591 235.576 91.2657 235.576C90.6364 235.576 90.0977 235.779 89.6497 236.184C89.2017 236.579 88.9351 237.117 88.8497 237.8H93.7297ZM100.309 243.144C99.6154 243.144 98.9914 243.021 98.4368 242.776C97.8928 242.52 97.4608 242.179 97.1408 241.752C96.8208 241.315 96.6501 240.829 96.6288 240.296H98.5168C98.5488 240.669 98.7248 240.984 99.0448 241.24C99.3754 241.485 99.7861 241.608 100.277 241.608C100.789 241.608 101.183 241.512 101.461 241.32C101.749 241.117 101.893 240.861 101.893 240.552C101.893 240.221 101.733 239.976 101.413 239.816C101.103 239.656 100.607 239.48 99.9248 239.288C99.2634 239.107 98.7248 238.931 98.3088 238.76C97.8928 238.589 97.5301 238.328 97.2208 237.976C96.9221 237.624 96.7728 237.16 96.7728 236.584C96.7728 236.115 96.9114 235.688 97.1888 235.304C97.4661 234.909 97.8608 234.6 98.3728 234.376C98.8954 234.152 99.4928 234.04 100.165 234.04C101.167 234.04 101.973 234.296 102.581 234.808C103.199 235.309 103.53 235.997 103.573 236.872H101.749C101.717 236.477 101.557 236.163 101.269 235.928C100.981 235.693 100.591 235.576 100.101 235.576C99.6208 235.576 99.2528 235.667 98.9968 235.848C98.7408 236.029 98.6128 236.269 98.6128 236.568C98.6128 236.803 98.6981 237 98.8688 237.16C99.0394 237.32 99.2474 237.448 99.4928 237.544C99.7381 237.629 100.101 237.741 100.581 237.88C101.221 238.051 101.743 238.227 102.149 238.408C102.565 238.579 102.922 238.835 103.221 239.176C103.519 239.517 103.674 239.971 103.685 240.536C103.685 241.037 103.546 241.485 103.269 241.88C102.991 242.275 102.597 242.584 102.085 242.808C101.583 243.032 100.991 243.144 100.309 243.144ZM106.264 233.016C105.933 233.016 105.656 232.904 105.432 232.68C105.208 232.456 105.096 232.179 105.096 231.848C105.096 231.517 105.208 231.24 105.432 231.016C105.656 230.792 105.933 230.68 106.264 230.68C106.584 230.68 106.856 230.792 107.08 231.016C107.304 231.24 107.416 231.517 107.416 231.848C107.416 232.179 107.304 232.456 107.08 232.68C106.856 232.904 106.584 233.016 106.264 233.016ZM107.16 234.184V243H105.336V234.184H107.16ZM112.786 234.04C113.469 234.04 114.072 234.179 114.594 234.456C115.128 234.723 115.544 235.059 115.842 235.464V234.184H117.682V243.144C117.682 243.955 117.512 244.675 117.17 245.304C116.829 245.944 116.333 246.445 115.682 246.808C115.042 247.171 114.274 247.352 113.378 247.352C112.184 247.352 111.192 247.069 110.402 246.504C109.613 245.949 109.165 245.192 109.058 244.232H110.866C111.005 244.691 111.298 245.059 111.746 245.336C112.205 245.624 112.749 245.768 113.378 245.768C114.114 245.768 114.706 245.544 115.154 245.096C115.613 244.648 115.842 243.997 115.842 243.144V241.672C115.533 242.088 115.112 242.44 114.578 242.728C114.056 243.005 113.458 243.144 112.786 243.144C112.018 243.144 111.314 242.952 110.674 242.568C110.045 242.173 109.544 241.629 109.17 240.936C108.808 240.232 108.626 239.437 108.626 238.552C108.626 237.667 108.808 236.883 109.17 236.2C109.544 235.517 110.045 234.989 110.674 234.616C111.314 234.232 112.018 234.04 112.786 234.04ZM115.842 238.584C115.842 237.976 115.714 237.448 115.458 237C115.213 236.552 114.888 236.211 114.482 235.976C114.077 235.741 113.64 235.624 113.17 235.624C112.701 235.624 112.264 235.741 111.858 235.976C111.453 236.2 111.122 236.536 110.866 236.984C110.621 237.421 110.498 237.944 110.498 238.552C110.498 239.16 110.621 239.693 110.866 240.152C111.122 240.611 111.453 240.963 111.858 241.208C112.274 241.443 112.712 241.56 113.17 241.56C113.64 241.56 114.077 241.443 114.482 241.208C114.888 240.973 115.213 240.632 115.458 240.184C115.714 239.725 115.842 239.192 115.842 238.584ZM124.206 234.04C124.899 234.04 125.518 234.184 126.062 234.472C126.617 234.76 127.049 235.187 127.358 235.752C127.667 236.317 127.822 237 127.822 237.8V243H126.014V238.072C126.014 237.283 125.817 236.68 125.422 236.264C125.027 235.837 124.489 235.624 123.806 235.624C123.123 235.624 122.579 235.837 122.174 236.264C121.779 236.68 121.582 237.283 121.582 238.072V243H119.758V234.184H121.582V235.192C121.881 234.829 122.259 234.547 122.718 234.344C123.187 234.141 123.683 234.04 124.206 234.04Z" fill="#15192C"/>
<rect x="28" y="245.757" width="480.999" height="4.92648" rx="2.46324" fill="#FFF2F5"/>
<rect x="28" y="245.757" width="266.784" height="4.92648" rx="2.46324" fill="#FD2254"/>
<defs>
<filter id="filter0_d_3186_933" x="0" y="0" width="549" height="295" filterUnits="userSpaceOnUse" color-interpolation-filters="sRGB">
<feFlood flood-opacity="0" result="BackgroundImageFix"/>
<feColorMatrix in="SourceAlpha" type="matrix" values="0 0 0 0 0 0 0 0 0 0 0 0 0 0 0 0 0 0 127 0" result="hardAlpha"/>
<feOffset dy="4"/>
<feGaussianBlur stdDeviation="2"/>
<feComposite in2="hardAlpha" operator="out"/>
<feColorMatrix type="matrix" values="0 0 0 0 0 0 0 0 0 0 0 0 0 0 0 0 0 0 0.25 0"/>
<feBlend mode="normal" in2="BackgroundImageFix" result="effect1_dropShadow_3186_933"/>
<feBlend mode="normal" in="SourceGraphic" in2="effect1_dropShadow_3186_933" result="shape"/>
</filter>
</defs>
</svg>
