<svg width="685" height="21" viewBox="0 0 685 21" fill="none" xmlns="http://www.w3.org/2000/svg">
<line x1="290" y1="11" x2="-4.37114e-08" y2="11" stroke="#94A3B8"/>
<path d="M310.801 8.36364C310.741 7.85985 310.5 7.46875 310.075 7.19034C309.651 6.91193 309.131 6.77273 308.514 6.77273C308.063 6.77273 307.669 6.84564 307.331 6.99148C306.996 7.13731 306.734 7.33783 306.545 7.59304C306.36 7.84825 306.267 8.13826 306.267 8.46307C306.267 8.73485 306.332 8.96851 306.461 9.16406C306.594 9.3563 306.763 9.51705 306.968 9.64631C307.174 9.77225 307.389 9.87666 307.614 9.95952C307.84 10.0391 308.047 10.1037 308.236 10.1534L309.27 10.4318C309.535 10.5014 309.83 10.5975 310.155 10.7202C310.483 10.8428 310.796 11.0102 311.094 11.2223C311.396 11.4311 311.645 11.6996 311.84 12.0277C312.036 12.3558 312.134 12.7585 312.134 13.2358C312.134 13.786 311.989 14.2831 311.701 14.7273C311.416 15.1714 310.998 15.5244 310.448 15.7862C309.901 16.0481 309.237 16.179 308.455 16.179C307.725 16.179 307.094 16.0613 306.56 15.826C306.03 15.5907 305.612 15.2625 305.308 14.8416C305.006 14.4207 304.835 13.9318 304.795 13.375H306.068C306.101 13.7595 306.231 14.0777 306.456 14.3295C306.685 14.5781 306.973 14.7637 307.321 14.8864C307.672 15.0057 308.05 15.0653 308.455 15.0653C308.925 15.0653 309.348 14.9891 309.722 14.8366C310.097 14.6809 310.393 14.4654 310.612 14.1903C310.831 13.9119 310.94 13.5871 310.94 13.2159C310.94 12.8778 310.846 12.6027 310.657 12.3906C310.468 12.1785 310.219 12.0062 309.911 11.8736C309.603 11.741 309.27 11.625 308.912 11.5256L307.659 11.1676C306.864 10.9389 306.234 10.6125 305.77 10.1882C305.306 9.76397 305.074 9.20881 305.074 8.52273C305.074 7.95265 305.228 7.45549 305.536 7.03125C305.848 6.60369 306.265 6.27225 306.789 6.03693C307.316 5.7983 307.904 5.67898 308.554 5.67898C309.21 5.67898 309.794 5.79664 310.304 6.03196C310.814 6.26397 311.219 6.58215 311.517 6.98651C311.819 7.39086 311.978 7.8499 311.994 8.36364H310.801ZM314.002 16V8.36364H315.175V16H314.002ZM314.598 7.09091C314.369 7.09091 314.172 7.01302 314.007 6.85724C313.844 6.70147 313.763 6.5142 313.763 6.29545C313.763 6.0767 313.844 5.88944 314.007 5.73366C314.172 5.57789 314.369 5.5 314.598 5.5C314.827 5.5 315.022 5.57789 315.185 5.73366C315.351 5.88944 315.433 6.0767 315.433 6.29545C315.433 6.5142 315.351 6.70147 315.185 6.85724C315.022 7.01302 314.827 7.09091 314.598 7.09091ZM320.406 19.0227C319.839 19.0227 319.352 18.9498 318.945 18.804C318.537 18.6615 318.197 18.4725 317.925 18.2372C317.657 18.0052 317.443 17.7566 317.284 17.4915L318.219 16.8352C318.325 16.9744 318.459 17.1335 318.621 17.3125C318.784 17.4948 319.006 17.6522 319.288 17.7848C319.573 17.9207 319.946 17.9886 320.406 17.9886C321.023 17.9886 321.531 17.8395 321.933 17.5412C322.334 17.2429 322.534 16.7756 322.534 16.1392V14.5881H322.435C322.348 14.7273 322.226 14.8996 322.067 15.1051C321.911 15.3073 321.686 15.4879 321.391 15.647C321.099 15.8028 320.705 15.8807 320.207 15.8807C319.591 15.8807 319.037 15.7348 318.547 15.4432C318.06 15.1515 317.674 14.7273 317.388 14.1705C317.107 13.6136 316.966 12.9375 316.966 12.142C316.966 11.3598 317.103 10.6787 317.379 10.0987C317.654 9.51539 318.036 9.06463 318.527 8.74645C319.018 8.42495 319.584 8.2642 320.227 8.2642C320.724 8.2642 321.119 8.34706 321.411 8.51278C321.705 8.67519 321.931 8.8608 322.087 9.0696C322.246 9.27509 322.368 9.44413 322.455 9.5767H322.574V8.36364H323.707V16.2188C323.707 16.875 323.558 17.4086 323.26 17.8196C322.965 18.2339 322.567 18.5372 322.067 18.7294C321.57 18.925 321.016 19.0227 320.406 19.0227ZM320.366 14.8267C320.837 14.8267 321.235 14.719 321.56 14.5036C321.884 14.2881 322.131 13.9782 322.3 13.5739C322.469 13.1695 322.554 12.6856 322.554 12.1222C322.554 11.572 322.471 11.0864 322.305 10.6655C322.14 10.2446 321.894 9.91477 321.57 9.67614C321.245 9.4375 320.844 9.31818 320.366 9.31818C319.869 9.31818 319.455 9.44413 319.124 9.69602C318.795 9.94792 318.549 10.286 318.383 10.7102C318.22 11.1345 318.139 11.6051 318.139 12.1222C318.139 12.6525 318.222 13.1214 318.388 13.5291C318.557 13.9335 318.805 14.2517 319.134 14.4837C319.465 14.7124 319.876 14.8267 320.366 14.8267ZM327.028 11.4062V16H325.855V8.36364H326.989V9.55682H327.088C327.267 9.16903 327.539 8.85748 327.903 8.62216C328.268 8.38352 328.739 8.2642 329.315 8.2642C329.832 8.2642 330.285 8.37027 330.673 8.58239C331.06 8.79119 331.362 9.10938 331.577 9.53693C331.793 9.96117 331.901 10.4981 331.901 11.1477V16H330.727V11.2273C330.727 10.6274 330.571 10.16 330.26 9.82528C329.948 9.48722 329.521 9.31818 328.977 9.31818C328.603 9.31818 328.268 9.39938 327.973 9.56179C327.681 9.72419 327.451 9.96117 327.282 10.2727C327.113 10.5843 327.028 10.9621 327.028 11.4062ZM337.982 16V8.36364H339.155V16H337.982ZM338.579 7.09091C338.35 7.09091 338.153 7.01302 337.987 6.85724C337.825 6.70147 337.743 6.5142 337.743 6.29545C337.743 6.0767 337.825 5.88944 337.987 5.73366C338.153 5.57789 338.35 5.5 338.579 5.5C338.807 5.5 339.003 5.57789 339.165 5.73366C339.331 5.88944 339.414 6.0767 339.414 6.29545C339.414 6.5142 339.331 6.70147 339.165 6.85724C339.003 7.01302 338.807 7.09091 338.579 7.09091ZM342.478 11.4062V16H341.304V8.36364H342.438V9.55682H342.537C342.716 9.16903 342.988 8.85748 343.353 8.62216C343.717 8.38352 344.188 8.2642 344.765 8.2642C345.282 8.2642 345.734 8.37027 346.122 8.58239C346.51 8.79119 346.811 9.10938 347.027 9.53693C347.242 9.96117 347.35 10.4981 347.35 11.1477V16H346.176V11.2273C346.176 10.6274 346.021 10.16 345.709 9.82528C345.398 9.48722 344.97 9.31818 344.426 9.31818C344.052 9.31818 343.717 9.39938 343.422 9.56179C343.131 9.72419 342.9 9.96117 342.731 10.2727C342.562 10.5843 342.478 10.9621 342.478 11.4062ZM355.161 16L352.835 8.36364H354.068L355.718 14.2102H355.798L357.428 8.36364H358.681L360.292 14.1903H360.372L362.022 8.36364H363.255L360.928 16H359.775L358.105 10.1335H357.985L356.315 16H355.161ZM364.806 16V8.36364H365.98V16H364.806ZM365.403 7.09091C365.174 7.09091 364.977 7.01302 364.811 6.85724C364.649 6.70147 364.568 6.5142 364.568 6.29545C364.568 6.0767 364.649 5.88944 364.811 5.73366C364.977 5.57789 365.174 5.5 365.403 5.5C365.632 5.5 365.827 5.57789 365.99 5.73366C366.155 5.88944 366.238 6.0767 366.238 6.29545C366.238 6.5142 366.155 6.70147 365.99 6.85724C365.827 7.01302 365.632 7.09091 365.403 7.09091ZM371.45 8.36364V9.35795H367.492V8.36364H371.45ZM368.646 6.53409H369.819V13.8125C369.819 14.1439 369.867 14.3925 369.963 14.5582C370.063 14.7206 370.188 14.83 370.341 14.8864C370.497 14.9394 370.661 14.9659 370.833 14.9659C370.962 14.9659 371.068 14.9593 371.151 14.946C371.234 14.9295 371.3 14.9162 371.35 14.9062L371.589 15.9602C371.509 15.9901 371.398 16.0199 371.256 16.0497C371.113 16.0829 370.933 16.0994 370.714 16.0994C370.382 16.0994 370.058 16.0282 369.739 15.8857C369.424 15.7431 369.163 15.526 368.954 15.2344C368.748 14.9427 368.646 14.5748 368.646 14.1307V6.53409ZM374.552 11.4062V16H373.379V5.81818H374.552V9.55682H374.651C374.83 9.16241 375.099 8.84919 375.457 8.61719C375.818 8.38187 376.299 8.2642 376.898 8.2642C377.419 8.2642 377.875 8.36861 378.266 8.57741C378.657 8.78291 378.96 9.09943 379.175 9.52699C379.394 9.95123 379.504 10.4915 379.504 11.1477V16H378.33V11.2273C378.33 10.6207 378.173 10.1518 377.858 9.82031C377.546 9.48556 377.114 9.31818 376.56 9.31818C376.176 9.31818 375.831 9.39938 375.526 9.56179C375.225 9.72419 374.986 9.96117 374.81 10.2727C374.638 10.5843 374.552 10.9621 374.552 11.4062Z" fill="#94A3B8"/>
<line x1="685" y1="11" x2="395" y2="11" stroke="#94A3B8"/>
</svg>
