<svg width="690" height="21" viewBox="0 0 690 21" fill="none" xmlns="http://www.w3.org/2000/svg">
<line x1="290" y1="11" x2="-4.37114e-08" y2="11" stroke="#94A3B8"/>
<path d="M310.801 8.36364C310.741 7.85985 310.5 7.46875 310.075 7.19034C309.651 6.91193 309.131 6.77273 308.514 6.77273C308.063 6.77273 307.669 6.84564 307.331 6.99148C306.996 7.13731 306.734 7.33783 306.545 7.59304C306.36 7.84825 306.267 8.13826 306.267 8.46307C306.267 8.73485 306.332 8.96851 306.461 9.16406C306.594 9.3563 306.763 9.51705 306.968 9.64631C307.174 9.77225 307.389 9.87666 307.614 9.95952C307.84 10.0391 308.047 10.1037 308.236 10.1534L309.27 10.4318C309.535 10.5014 309.83 10.5975 310.155 10.7202C310.483 10.8428 310.796 11.0102 311.094 11.2223C311.396 11.4311 311.645 11.6996 311.84 12.0277C312.036 12.3558 312.134 12.7585 312.134 13.2358C312.134 13.786 311.989 14.2831 311.701 14.7273C311.416 15.1714 310.998 15.5244 310.448 15.7862C309.901 16.0481 309.237 16.179 308.455 16.179C307.725 16.179 307.094 16.0613 306.56 15.826C306.03 15.5907 305.612 15.2625 305.308 14.8416C305.006 14.4207 304.835 13.9318 304.795 13.375H306.068C306.101 13.7595 306.231 14.0777 306.456 14.3295C306.685 14.5781 306.973 14.7637 307.321 14.8864C307.672 15.0057 308.05 15.0653 308.455 15.0653C308.925 15.0653 309.348 14.9891 309.722 14.8366C310.097 14.6809 310.393 14.4654 310.612 14.1903C310.831 13.9119 310.94 13.5871 310.94 13.2159C310.94 12.8778 310.846 12.6027 310.657 12.3906C310.468 12.1785 310.219 12.0062 309.911 11.8736C309.603 11.741 309.27 11.625 308.912 11.5256L307.659 11.1676C306.864 10.9389 306.234 10.6125 305.77 10.1882C305.306 9.76397 305.074 9.20881 305.074 8.52273C305.074 7.95265 305.228 7.45549 305.536 7.03125C305.848 6.60369 306.265 6.27225 306.789 6.03693C307.316 5.7983 307.904 5.67898 308.554 5.67898C309.21 5.67898 309.794 5.79664 310.304 6.03196C310.814 6.26397 311.219 6.58215 311.517 6.98651C311.819 7.39086 311.978 7.8499 311.994 8.36364H310.801ZM314.002 16V8.36364H315.175V16H314.002ZM314.598 7.09091C314.369 7.09091 314.172 7.01302 314.007 6.85724C313.844 6.70147 313.763 6.5142 313.763 6.29545C313.763 6.0767 313.844 5.88944 314.007 5.73366C314.172 5.57789 314.369 5.5 314.598 5.5C314.827 5.5 315.022 5.57789 315.185 5.73366C315.351 5.88944 315.433 6.0767 315.433 6.29545C315.433 6.5142 315.351 6.70147 315.185 6.85724C315.022 7.01302 314.827 7.09091 314.598 7.09091ZM320.406 19.0227C319.839 19.0227 319.352 18.9498 318.945 18.804C318.537 18.6615 318.197 18.4725 317.925 18.2372C317.657 18.0052 317.443 17.7566 317.284 17.4915L318.219 16.8352C318.325 16.9744 318.459 17.1335 318.621 17.3125C318.784 17.4948 319.006 17.6522 319.288 17.7848C319.573 17.9207 319.946 17.9886 320.406 17.9886C321.023 17.9886 321.531 17.8395 321.933 17.5412C322.334 17.2429 322.534 16.7756 322.534 16.1392V14.5881H322.435C322.348 14.7273 322.226 14.8996 322.067 15.1051C321.911 15.3073 321.686 15.4879 321.391 15.647C321.099 15.8028 320.705 15.8807 320.207 15.8807C319.591 15.8807 319.037 15.7348 318.547 15.4432C318.06 15.1515 317.674 14.7273 317.388 14.1705C317.107 13.6136 316.966 12.9375 316.966 12.142C316.966 11.3598 317.103 10.6787 317.379 10.0987C317.654 9.51539 318.036 9.06463 318.527 8.74645C319.018 8.42495 319.584 8.2642 320.227 8.2642C320.724 8.2642 321.119 8.34706 321.411 8.51278C321.705 8.67519 321.931 8.8608 322.087 9.0696C322.246 9.27509 322.368 9.44413 322.455 9.5767H322.574V8.36364H323.707V16.2188C323.707 16.875 323.558 17.4086 323.26 17.8196C322.965 18.2339 322.567 18.5372 322.067 18.7294C321.57 18.925 321.016 19.0227 320.406 19.0227ZM320.366 14.8267C320.837 14.8267 321.235 14.719 321.56 14.5036C321.884 14.2881 322.131 13.9782 322.3 13.5739C322.469 13.1695 322.554 12.6856 322.554 12.1222C322.554 11.572 322.471 11.0864 322.305 10.6655C322.14 10.2446 321.894 9.91477 321.57 9.67614C321.245 9.4375 320.844 9.31818 320.366 9.31818C319.869 9.31818 319.455 9.44413 319.124 9.69602C318.795 9.94792 318.549 10.286 318.383 10.7102C318.22 11.1345 318.139 11.6051 318.139 12.1222C318.139 12.6525 318.222 13.1214 318.388 13.5291C318.557 13.9335 318.805 14.2517 319.134 14.4837C319.465 14.7124 319.876 14.8267 320.366 14.8267ZM327.028 11.4062V16H325.855V8.36364H326.989V9.55682H327.088C327.267 9.16903 327.539 8.85748 327.903 8.62216C328.268 8.38352 328.739 8.2642 329.315 8.2642C329.832 8.2642 330.285 8.37027 330.673 8.58239C331.06 8.79119 331.362 9.10938 331.577 9.53693C331.793 9.96117 331.901 10.4981 331.901 11.1477V16H330.727V11.2273C330.727 10.6274 330.571 10.16 330.26 9.82528C329.948 9.48722 329.521 9.31818 328.977 9.31818C328.603 9.31818 328.268 9.39938 327.973 9.56179C327.681 9.72419 327.451 9.96117 327.282 10.2727C327.113 10.5843 327.028 10.9621 327.028 11.4062ZM342.795 12.8778V8.36364H343.968V16H342.795V14.7074H342.715C342.536 15.0952 342.258 15.425 341.88 15.6967C341.502 15.9652 341.025 16.0994 340.448 16.0994C339.971 16.0994 339.546 15.995 339.175 15.7862C338.804 15.5741 338.512 15.2559 338.3 14.8317C338.088 14.4041 337.982 13.8655 337.982 13.2159V8.36364H339.155V13.1364C339.155 13.6932 339.311 14.1373 339.623 14.4688C339.938 14.8002 340.339 14.9659 340.826 14.9659C341.117 14.9659 341.414 14.8913 341.716 14.7422C342.021 14.593 342.276 14.3643 342.481 14.0561C342.69 13.7479 342.795 13.3551 342.795 12.8778ZM346.117 18.8636V8.36364H347.25V9.5767H347.39C347.476 9.44413 347.595 9.27509 347.748 9.0696C347.903 8.8608 348.125 8.67519 348.414 8.51278C348.705 8.34706 349.1 8.2642 349.597 8.2642C350.24 8.2642 350.807 8.42495 351.297 8.74645C351.788 9.06794 352.171 9.52367 352.446 10.1136C352.721 10.7036 352.858 11.3996 352.858 12.2017C352.858 13.0104 352.721 13.7114 352.446 14.3047C352.171 14.8946 351.789 15.352 351.302 15.6768C350.815 15.9983 350.253 16.1591 349.617 16.1591C349.126 16.1591 348.734 16.0779 348.439 15.9155C348.144 15.7498 347.917 15.5625 347.757 15.3537C347.598 15.1416 347.476 14.9659 347.39 14.8267H347.29V18.8636H346.117ZM347.27 12.1818C347.27 12.7585 347.355 13.2673 347.524 13.7081C347.693 14.1456 347.94 14.4886 348.265 14.7372C348.589 14.9825 348.987 15.1051 349.458 15.1051C349.948 15.1051 350.358 14.9759 350.686 14.7173C351.017 14.4555 351.266 14.1042 351.431 13.6634C351.6 13.2192 351.685 12.7254 351.685 12.1818C351.685 11.6449 351.602 11.161 351.436 10.7301C351.274 10.2959 351.027 9.95289 350.696 9.70099C350.368 9.44579 349.955 9.31818 349.458 9.31818C348.98 9.31818 348.579 9.43916 348.255 9.68111C347.93 9.91974 347.685 10.2545 347.519 10.6854C347.353 11.1129 347.27 11.6117 347.27 12.1818ZM360.316 16L357.989 8.36364H359.222L360.873 14.2102H360.952L362.583 8.36364H363.836L365.446 14.1903H365.526L367.176 8.36364H368.409L366.083 16H364.929L363.259 10.1335H363.14L361.469 16H360.316ZM369.961 16V8.36364H371.134V16H369.961ZM370.557 7.09091C370.328 7.09091 370.131 7.01302 369.966 6.85724C369.803 6.70147 369.722 6.5142 369.722 6.29545C369.722 6.0767 369.803 5.88944 369.966 5.73366C370.131 5.57789 370.328 5.5 370.557 5.5C370.786 5.5 370.981 5.57789 371.144 5.73366C371.31 5.88944 371.392 6.0767 371.392 6.29545C371.392 6.5142 371.31 6.70147 371.144 6.85724C370.981 7.01302 370.786 7.09091 370.557 7.09091ZM376.604 8.36364V9.35795H372.646V8.36364H376.604ZM373.8 6.53409H374.973V13.8125C374.973 14.1439 375.021 14.3925 375.117 14.5582C375.217 14.7206 375.343 14.83 375.495 14.8864C375.651 14.9394 375.815 14.9659 375.987 14.9659C376.117 14.9659 376.223 14.9593 376.306 14.946C376.388 14.9295 376.455 14.9162 376.504 14.9062L376.743 15.9602C376.664 15.9901 376.552 16.0199 376.41 16.0497C376.267 16.0829 376.087 16.0994 375.868 16.0994C375.537 16.0994 375.212 16.0282 374.894 15.8857C374.579 15.7431 374.317 15.526 374.108 15.2344C373.903 14.9427 373.8 14.5748 373.8 14.1307V6.53409ZM379.706 11.4062V16H378.533V5.81818H379.706V9.55682H379.806C379.985 9.16241 380.253 8.84919 380.611 8.61719C380.972 8.38187 381.453 8.2642 382.053 8.2642C382.573 8.2642 383.029 8.36861 383.42 8.57741C383.811 8.78291 384.114 9.09943 384.33 9.52699C384.548 9.95123 384.658 10.4915 384.658 11.1477V16H383.485V11.2273C383.485 10.6207 383.327 10.1518 383.012 9.82031C382.701 9.48556 382.268 9.31818 381.715 9.31818C381.33 9.31818 380.985 9.39938 380.681 9.56179C380.379 9.72419 380.14 9.96117 379.965 10.2727C379.792 10.5843 379.706 10.9621 379.706 11.4062Z" fill="#94A3B8"/>
<line x1="690" y1="11" x2="400" y2="11" stroke="#94A3B8"/>
</svg>
