<svg width="592" height="401" viewBox="0 0 592 401" fill="none" xmlns="http://www.w3.org/2000/svg">
<g filter="url(#filter0_b_2717_1090)">
<ellipse cx="116.416" cy="131.656" rx="116.416" ry="131.656" transform="matrix(0.7121 0.702078 -0.433868 0.900977 402.242 0)" fill="#DCF0FF" fill-opacity="0.25"/>
</g>
<g filter="url(#filter1_b_2717_1090)">
<ellipse cx="67.7398" cy="76.6075" rx="67.7398" ry="76.6075" transform="matrix(0.7121 0.702078 -0.433868 0.900977 305.771 97)" fill="#DCF0FF" fill-opacity="0.25"/>
</g>
<path d="M20.3438 199H30.9688V170.094H16.0625V178.219H9.03125V165.094H59.9375V178.219H52.9062V170.094H38V199H48.625V204H20.3438V199ZM54.7812 180.406H62.1875V166.656H63.4375V181.594H54.7812V180.406ZM40.25 172.281H51.5938V173.469H41.5V197.125H40.25V172.281ZM10.9062 180.406H18.3125V172.281H29.6562V173.469H19.5625V181.594H10.9062V180.406ZM50.875 206.188V200.75H52.125V207.375H22.2188V206.188H50.875ZM69.4062 189.5C69.4062 187.292 69.8125 185.188 70.625 183.188C71.4375 181.188 72.6562 179.427 74.2812 177.906C75.9062 176.385 77.9271 175.177 80.3438 174.281C82.7604 173.365 85.5625 172.906 88.75 172.906C91.75 172.906 94.4271 173.312 96.7812 174.125C99.1354 174.917 101.135 176.073 102.781 177.594C104.427 179.115 105.677 180.979 106.531 183.188C107.406 185.375 107.844 187.875 107.844 190.688H76.25C76.4375 192.188 76.9167 193.521 77.6875 194.688C78.4792 195.854 79.4792 196.844 80.6875 197.656C81.8958 198.448 83.2604 199.052 84.7812 199.469C86.3229 199.885 87.9271 200.094 89.5938 200.094C90.9479 200.094 92.3229 199.99 93.7188 199.781C95.1354 199.552 96.4688 199.25 97.7188 198.875C98.9688 198.5 100.083 198.083 101.062 197.625C102.042 197.146 102.792 196.656 103.312 196.156H104.5L107.438 199.344C105.292 201.177 102.677 202.573 99.5938 203.531C96.5312 204.469 93.1458 204.938 89.4375 204.938C86.2083 204.938 83.3438 204.542 80.8438 203.75C78.3646 202.958 76.2708 201.865 74.5625 200.469C72.875 199.073 71.5938 197.438 70.7188 195.562C69.8438 193.688 69.4062 191.667 69.4062 189.5ZM109.969 192.875C110.01 192.562 110.042 192.229 110.062 191.875C110.083 191.5 110.094 191.104 110.094 190.688C110.094 188.917 109.906 187.229 109.531 185.625C109.177 184 108.646 182.5 107.938 181.125C107.25 179.729 106.396 178.458 105.375 177.312C104.354 176.167 103.198 175.188 101.906 174.375C103.281 174.917 104.542 175.667 105.688 176.625C106.854 177.562 107.854 178.708 108.688 180.062C109.521 181.417 110.167 182.979 110.625 184.75C111.104 186.521 111.344 188.5 111.344 190.688C111.344 190.854 111.333 191.062 111.312 191.312C111.312 191.562 111.302 191.844 111.281 192.156C111.26 192.469 111.229 192.792 111.188 193.125C111.167 193.438 111.135 193.75 111.094 194.062H81.5625C81.9583 194.729 82.6875 195.417 83.75 196.125C84.8125 196.812 86.1875 197.396 87.875 197.875C86.8333 197.875 85.8542 197.75 84.9375 197.5C84.0417 197.25 83.2188 196.906 82.4688 196.469C81.7396 196.031 81.0938 195.51 80.5312 194.906C79.9896 194.281 79.5625 193.604 79.25 192.875H109.969ZM100.625 186.781C100.292 185.344 99.7708 184.062 99.0625 182.938C98.375 181.812 97.5208 180.875 96.5 180.125C95.4792 179.354 94.3125 178.771 93 178.375C91.6875 177.958 90.25 177.75 88.6875 177.75C87 177.75 85.4583 177.979 84.0625 178.438C82.6875 178.875 81.4792 179.5 80.4375 180.312C79.3958 181.104 78.5312 182.052 77.8438 183.156C77.1771 184.26 76.7083 185.469 76.4375 186.781H100.625ZM79.2812 185.438C80.0521 183.729 81.2604 182.385 82.9062 181.406C84.5729 180.427 86.5 179.938 88.6875 179.938C89.5833 179.938 90.4479 180.01 91.2812 180.156C92.1354 180.302 92.9167 180.531 93.625 180.844C94.3542 181.135 94.9896 181.5 95.5312 181.938C96.0729 182.375 96.5 182.875 96.8125 183.438C95.625 182.646 94.3542 182.062 93 181.688C91.6458 181.312 90.1875 181.125 88.625 181.125C86.8125 181.125 85.2188 181.5 83.8438 182.25C82.4688 183 81.4271 184.062 80.7188 185.438H79.2812ZM73.1875 202.625C75.2083 204.062 77.5521 205.177 80.2188 205.969C82.9062 206.76 85.9792 207.156 89.4375 207.156C92.8125 207.156 95.9688 206.771 98.9062 206C101.865 205.229 104.531 204.052 106.906 202.469L107.75 203.375C105.062 205.188 102.229 206.469 99.25 207.219C96.2917 207.969 93.1875 208.344 89.9375 208.344C85.7083 208.344 82.1979 207.833 79.4062 206.812C76.6354 205.792 74.5625 204.396 73.1875 202.625ZM119.562 195.406H126C126.562 196.26 127.365 197.01 128.406 197.656C129.448 198.302 130.635 198.833 131.969 199.25C133.323 199.667 134.802 199.979 136.406 200.188C138.01 200.396 139.656 200.5 141.344 200.5C142.74 200.5 143.927 200.396 144.906 200.188C145.885 199.979 146.677 199.688 147.281 199.312C147.885 198.938 148.323 198.5 148.594 198C148.865 197.5 149 196.948 149 196.344C149 195.073 147.979 193.99 145.938 193.094C143.917 192.177 140.708 191.479 136.312 191C133.396 190.688 130.958 190.26 129 189.719C127.042 189.156 125.458 188.479 124.25 187.688C123.062 186.896 122.208 185.99 121.688 184.969C121.188 183.948 120.938 182.823 120.938 181.594C120.938 180.531 121.271 179.479 121.938 178.438C122.604 177.396 123.615 176.469 124.969 175.656C126.344 174.823 128.052 174.156 130.094 173.656C132.156 173.156 134.573 172.906 137.344 172.906C138.24 172.906 139.156 172.969 140.094 173.094C141.031 173.219 141.948 173.406 142.844 173.656C143.74 173.885 144.594 174.167 145.406 174.5C146.219 174.833 146.948 175.208 147.594 175.625V173.875H154.312V182.312H147.594C147.365 181.667 146.885 181.052 146.156 180.469C145.427 179.885 144.562 179.375 143.562 178.938C142.562 178.5 141.5 178.156 140.375 177.906C139.25 177.635 138.188 177.5 137.188 177.5C135.875 177.5 134.635 177.594 133.469 177.781C132.302 177.969 131.292 178.24 130.438 178.594C129.583 178.927 128.906 179.333 128.406 179.812C127.906 180.292 127.656 180.823 127.656 181.406C127.656 181.948 127.844 182.438 128.219 182.875C128.615 183.312 129.26 183.719 130.156 184.094C131.073 184.469 132.281 184.823 133.781 185.156C135.302 185.469 137.188 185.76 139.438 186.031C142.438 186.406 144.969 186.885 147.031 187.469C149.094 188.052 150.771 188.771 152.062 189.625C153.354 190.458 154.281 191.438 154.844 192.562C155.427 193.688 155.719 194.979 155.719 196.438C155.719 197.5 155.396 198.542 154.75 199.562C154.104 200.562 153.156 201.469 151.906 202.281C150.677 203.073 149.156 203.708 147.344 204.188C145.552 204.688 143.49 204.938 141.156 204.938C139.656 204.938 138.25 204.875 136.938 204.75C135.625 204.646 134.365 204.458 133.156 204.188C131.948 203.917 130.781 203.573 129.656 203.156C128.531 202.74 127.406 202.229 126.281 201.625V204H119.562V195.406ZM149.125 184.5H156.562V175.188H157.812V185.688H149.125V184.5ZM129.938 181.406C130 181.135 130.25 180.885 130.688 180.656C131.125 180.427 131.677 180.229 132.344 180.062C133.031 179.875 133.781 179.729 134.594 179.625C135.427 179.521 136.26 179.469 137.094 179.469C137.802 179.469 138.531 179.521 139.281 179.625C140.052 179.729 140.771 179.875 141.438 180.062C142.125 180.25 142.74 180.49 143.281 180.781C143.844 181.052 144.281 181.365 144.594 181.719C144.115 181.51 143.542 181.344 142.875 181.219C142.208 181.073 141.521 180.958 140.812 180.875C140.125 180.792 139.448 180.729 138.781 180.688C138.115 180.646 137.552 180.625 137.094 180.625C135.406 180.625 133.938 180.708 132.688 180.875C131.458 181.042 130.542 181.219 129.938 181.406ZM121.375 187.594C121.958 188.344 122.656 189.01 123.469 189.594C124.281 190.177 125.26 190.698 126.406 191.156C127.552 191.615 128.885 192.01 130.406 192.344C131.927 192.656 133.677 192.927 135.656 193.156C137.469 193.365 139.042 193.594 140.375 193.844C141.708 194.073 142.823 194.333 143.719 194.625C144.615 194.917 145.312 195.25 145.812 195.625C146.312 195.979 146.635 196.385 146.781 196.844C146.344 196.552 145.844 196.302 145.281 196.094C144.719 195.865 144 195.656 143.125 195.469C142.25 195.281 141.167 195.094 139.875 194.906C138.604 194.719 137.021 194.51 135.125 194.281C131.208 193.823 128.115 193.083 125.844 192.062C123.573 191.021 122.083 189.531 121.375 187.594ZM128.531 206.188V204.875C129.115 205.146 129.854 205.406 130.75 205.656C131.646 205.927 132.646 206.167 133.75 206.375C134.875 206.604 136.062 206.781 137.312 206.906C138.562 207.052 139.833 207.125 141.125 207.125C143.708 207.125 146.042 206.833 148.125 206.25C150.208 205.688 151.979 204.927 153.438 203.969C154.896 202.99 156.01 201.865 156.781 200.594C157.573 199.302 157.969 197.948 157.969 196.531C157.969 195.969 157.938 195.448 157.875 194.969C157.812 194.49 157.698 194.031 157.531 193.594C157.385 193.156 157.177 192.719 156.906 192.281C156.656 191.844 156.333 191.385 155.938 190.906C158.125 192.198 159.219 194.073 159.219 196.531C159.219 198.198 158.792 199.75 157.938 201.188C157.083 202.625 155.865 203.865 154.281 204.906C152.719 205.969 150.823 206.802 148.594 207.406C146.365 208.01 143.865 208.312 141.094 208.312C140.073 208.312 139.042 208.26 138 208.156C136.958 208.073 135.948 207.948 134.969 207.781C133.99 207.615 133.062 207.417 132.188 207.188C131.312 206.958 130.531 206.698 129.844 206.406V207.438H121.094V206.188H128.531ZM172.406 179.156H165.531V173.844H172.406V167.531L179.125 164.719V173.844H194.656V179.156H179.125V194.062C179.125 195.625 179.615 196.792 180.594 197.562C181.573 198.312 182.906 198.688 184.594 198.688H193.406V204H184.594C182.906 204 181.323 203.823 179.844 203.469C178.365 203.094 177.073 202.479 175.969 201.625C174.865 200.75 173.99 199.604 173.344 198.188C172.719 196.75 172.406 194.958 172.406 192.812V179.156ZM181.375 166.438L182.625 165.875V171.969H181.375V166.438ZM181.312 181H196.906V175.25H198.156V182.188H182.562V196.594C181.854 196.406 181.438 195.99 181.312 195.344V181ZM167.406 181.344H171.156V182.531H167.406V181.344ZM172.219 201.312C172.885 202.25 173.625 203.031 174.438 203.656C175.271 204.281 176.198 204.781 177.219 205.156C178.24 205.531 179.354 205.792 180.562 205.938C181.771 206.104 183.094 206.188 184.531 206.188H195.656V200.094H196.906V207.375H184.375C182.771 207.375 181.312 207.271 180 207.062C178.688 206.854 177.521 206.51 176.5 206.031C175.5 205.573 174.635 204.948 173.906 204.156C173.198 203.385 172.635 202.438 172.219 201.312ZM211.719 159.812H219.375V166.062H211.719V159.812ZM213.594 168.25H221.625V161.562H222.875V169.438H213.594V168.25ZM205.156 199.312H213.594L212.656 179.156H205.156V173.844H219.375V199.312H226.562V204H205.156V199.312ZM221.562 175.438H222.812V197.438H221.562V175.438ZM207.031 181.344H211.344V182.531H207.031V181.344ZM228.812 206.188V201.062H230.062V207.375H207.031V206.188H228.812ZM235.781 199.312H242.656V179.156H235.781V173.844H249.375V178.531C250 177.74 250.75 177 251.625 176.312C252.5 175.625 253.479 175.031 254.562 174.531C255.667 174.031 256.854 173.635 258.125 173.344C259.417 173.052 260.781 172.906 262.219 172.906C265.156 172.906 267.667 173.479 269.75 174.625C271.854 175.771 273.479 177.542 274.625 179.938C275.396 178.917 276.292 177.979 277.312 177.125C278.354 176.25 279.49 175.5 280.719 174.875C281.948 174.25 283.26 173.771 284.656 173.438C286.073 173.083 287.552 172.906 289.094 172.906C291.24 172.906 293.177 173.219 294.906 173.844C296.635 174.469 298.104 175.427 299.312 176.719C300.542 177.99 301.479 179.604 302.125 181.562C302.792 183.5 303.125 185.792 303.125 188.438V199.312H310V204H291.094V199.312H296.406V191.25C296.406 189.292 296.323 187.583 296.156 186.125C295.99 184.667 295.708 183.542 295.312 182.75C294.521 181.104 293.448 179.938 292.094 179.25C290.76 178.562 289.188 178.219 287.375 178.219C286.333 178.219 285.271 178.417 284.188 178.812C283.104 179.188 282.062 179.719 281.062 180.406C280.062 181.094 279.135 181.906 278.281 182.844C277.427 183.781 276.708 184.792 276.125 185.875C276.167 186.292 276.198 186.719 276.219 187.156C276.24 187.573 276.25 188 276.25 188.438V199.312H281.562V204H264.219V199.312H269.531V191.094C269.531 189.406 269.448 187.906 269.281 186.594C269.135 185.26 268.917 184.219 268.625 183.469C267.896 181.573 266.833 180.229 265.438 179.438C264.042 178.625 262.396 178.219 260.5 178.219C259.458 178.219 258.406 178.406 257.344 178.781C256.281 179.156 255.25 179.677 254.25 180.344C253.271 181.01 252.354 181.802 251.5 182.719C250.667 183.635 249.958 184.625 249.375 185.688V199.312H254.688V204H235.781V199.312ZM298.75 173.844C300.167 174.198 301.375 174.802 302.375 175.656C303.375 176.49 304.188 177.552 304.812 178.844C305.438 180.135 305.896 181.625 306.188 183.312C306.479 185 306.625 186.854 306.625 188.875V197.438H305.375V188.656C305.375 186.823 305.229 185.125 304.938 183.562C304.667 181.979 304.25 180.562 303.688 179.312C303.125 178.042 302.427 176.948 301.594 176.031C300.781 175.115 299.833 174.385 298.75 173.844ZM271.875 173.844C272.875 173.969 273.75 174.25 274.5 174.688C275.271 175.125 275.865 175.604 276.281 176.125L275.375 176.969C275.25 176.719 275.052 176.438 274.781 176.125C274.531 175.812 274.24 175.51 273.906 175.219C273.594 174.906 273.25 174.635 272.875 174.406C272.521 174.156 272.188 173.969 271.875 173.844ZM278.5 186.5C279.021 185.583 279.625 184.75 280.312 184C281 183.25 281.74 182.615 282.531 182.094C283.323 181.552 284.156 181.135 285.031 180.844C285.906 180.552 286.802 180.406 287.719 180.406C289.156 180.406 290.333 180.677 291.25 181.219C292.188 181.76 292.865 182.448 293.281 183.281C292.635 182.802 291.865 182.406 290.969 182.094C290.073 181.76 288.969 181.594 287.656 181.594C286.844 181.594 286.031 181.74 285.219 182.031C284.427 182.302 283.677 182.677 282.969 183.156C282.281 183.635 281.656 184.188 281.094 184.812C280.531 185.438 280.083 186.083 279.75 186.75V197.438H278.5V186.5ZM251.625 186.5C252.146 185.583 252.75 184.75 253.438 184C254.125 183.25 254.865 182.615 255.656 182.094C256.448 181.552 257.281 181.135 258.156 180.844C259.031 180.552 259.927 180.406 260.844 180.406C262.281 180.406 263.458 180.677 264.375 181.219C265.312 181.76 265.99 182.448 266.406 183.281C265.76 182.802 264.99 182.406 264.094 182.094C263.198 181.76 262.094 181.594 260.781 181.594C259.969 181.594 259.156 181.74 258.344 182.031C257.552 182.302 256.802 182.677 256.094 183.156C255.406 183.635 254.781 184.188 254.219 184.812C253.656 185.438 253.208 186.083 252.875 186.75V197.438H251.625V186.5ZM237.656 181.344H241.344V182.531H237.656V181.344ZM312.25 206.188V201.062H313.5V207.375H292.969V206.188H312.25ZM283.812 206.188V201.062H285.062V207.375H266.094V206.188H283.812ZM256.938 206.188V201.062H258.188V207.375H237.656V206.188H256.938ZM318.281 189.406C318.281 187.135 318.771 185 319.75 183C320.729 180.979 322.094 179.229 323.844 177.75C325.615 176.25 327.729 175.073 330.188 174.219C332.646 173.344 335.344 172.906 338.281 172.906C341.365 172.906 344.115 173.323 346.531 174.156C348.969 174.969 351.021 176.104 352.688 177.562C354.375 179.021 355.656 180.75 356.531 182.75C357.427 184.75 357.875 186.927 357.875 189.281C357.875 191.552 357.385 193.646 356.406 195.562C355.448 197.479 354.073 199.135 352.281 200.531C350.51 201.906 348.375 202.99 345.875 203.781C343.396 204.552 340.625 204.938 337.562 204.938C334.667 204.938 332.031 204.51 329.656 203.656C327.302 202.781 325.281 201.625 323.594 200.188C321.906 198.75 320.594 197.104 319.656 195.25C318.74 193.375 318.281 191.427 318.281 189.406ZM323.188 202.562C325.208 204.021 327.438 205.146 329.875 205.938C332.333 206.729 335.104 207.125 338.188 207.125C341.062 207.125 343.823 206.729 346.469 205.938C349.115 205.167 351.448 204.021 353.469 202.5C355.49 200.979 357.104 199.115 358.312 196.906C359.521 194.677 360.125 192.135 360.125 189.281C360.125 187.885 359.927 186.479 359.531 185.062C359.156 183.625 358.615 182.25 357.906 180.938C357.219 179.625 356.375 178.406 355.375 177.281C354.375 176.135 353.26 175.167 352.031 174.375C353.427 175 354.698 175.823 355.844 176.844C357.01 177.865 358 179.031 358.812 180.344C359.625 181.635 360.25 183.042 360.688 184.562C361.146 186.083 361.375 187.656 361.375 189.281C361.375 191.323 361.083 193.219 360.5 194.969C359.917 196.698 359.104 198.271 358.062 199.688C357.042 201.083 355.812 202.323 354.375 203.406C352.958 204.49 351.396 205.385 349.688 206.094C347.979 206.823 346.156 207.375 344.219 207.75C342.302 208.125 340.344 208.312 338.344 208.312C336.677 208.312 335.083 208.177 333.562 207.906C332.042 207.656 330.625 207.281 329.312 206.781C328.021 206.302 326.854 205.708 325.812 205C324.771 204.292 323.896 203.479 323.188 202.562ZM325.219 189.281C325.219 190.885 325.521 192.354 326.125 193.688C326.75 195 327.625 196.135 328.75 197.094C329.875 198.031 331.219 198.76 332.781 199.281C334.365 199.802 336.115 200.062 338.031 200.062C339.969 200.062 341.729 199.802 343.312 199.281C344.896 198.74 346.26 198 347.406 197.062C348.552 196.104 349.438 194.969 350.062 193.656C350.688 192.323 351 190.865 351 189.281C351 187.719 350.688 186.25 350.062 184.875C349.438 183.479 348.562 182.26 347.438 181.219C346.312 180.156 344.958 179.323 343.375 178.719C341.812 178.094 340.083 177.781 338.188 177.781C336.208 177.781 334.417 178.083 332.812 178.688C331.229 179.271 329.875 180.083 328.75 181.125C327.625 182.146 326.75 183.354 326.125 184.75C325.521 186.146 325.219 187.656 325.219 189.281ZM327.406 189.406C327.406 188.094 327.667 186.865 328.188 185.719C328.708 184.552 329.438 183.552 330.375 182.719C331.333 181.865 332.469 181.198 333.781 180.719C335.115 180.219 336.583 179.969 338.188 179.969C339.208 179.969 340.198 180.083 341.156 180.312C342.115 180.521 343 180.833 343.812 181.25C344.625 181.667 345.344 182.177 345.969 182.781C346.594 183.365 347.094 184.031 347.469 184.781C346.094 183.531 344.656 182.615 343.156 182.031C341.677 181.448 340 181.156 338.125 181.156C336.771 181.156 335.521 181.375 334.375 181.812C333.229 182.25 332.229 182.844 331.375 183.594C330.521 184.344 329.854 185.219 329.375 186.219C328.896 187.219 328.656 188.281 328.656 189.406C328.656 190.344 328.771 191.219 329 192.031C329.229 192.844 329.615 193.604 330.156 194.312C330.719 195 331.458 195.625 332.375 196.188C333.292 196.75 334.438 197.25 335.812 197.688C334.562 197.604 333.417 197.344 332.375 196.906C331.354 196.448 330.469 195.854 329.719 195.125C328.99 194.396 328.417 193.542 328 192.562C327.604 191.583 327.406 190.531 327.406 189.406ZM369.906 199.312H376.781V179.156H369.906V173.844H383.5V178.562C384.146 177.771 384.917 177.031 385.812 176.344C386.729 175.656 387.75 175.062 388.875 174.562C390 174.042 391.219 173.635 392.531 173.344C393.844 173.052 395.219 172.906 396.656 172.906C398.823 172.906 400.792 173.219 402.562 173.844C404.333 174.448 405.844 175.396 407.094 176.688C408.344 177.958 409.302 179.573 409.969 181.531C410.656 183.469 411 185.771 411 188.438V199.312H417.875V204H398.969V199.312H404.281V191.094C404.281 189.406 404.198 187.906 404.031 186.594C403.885 185.26 403.667 184.219 403.375 183.469C403 182.51 402.521 181.698 401.938 181.031C401.375 180.365 400.729 179.823 400 179.406C399.292 178.99 398.51 178.688 397.656 178.5C396.802 178.312 395.896 178.219 394.938 178.219C393.917 178.219 392.854 178.406 391.75 178.781C390.667 179.156 389.604 179.688 388.562 180.375C387.542 181.042 386.583 181.833 385.688 182.75C384.812 183.667 384.083 184.656 383.5 185.719V199.312H388.812V204H369.906V199.312ZM413.25 188.656C413.25 186.823 413.104 185.125 412.812 183.562C412.542 181.979 412.125 180.562 411.562 179.312C411 178.042 410.302 176.948 409.469 176.031C408.656 175.115 407.708 174.385 406.625 173.844C408.042 174.198 409.25 174.802 410.25 175.656C411.25 176.49 412.062 177.552 412.688 178.844C413.312 180.135 413.771 181.625 414.062 183.312C414.354 185 414.5 186.854 414.5 188.875V197.438H413.25V188.656ZM385.75 186.5C386.271 185.583 386.885 184.75 387.594 184C388.323 183.25 389.104 182.615 389.938 182.094C390.792 181.552 391.677 181.135 392.594 180.844C393.531 180.552 394.458 180.406 395.375 180.406C396.812 180.406 397.979 180.677 398.875 181.219C399.771 181.76 400.427 182.448 400.844 183.281C400.198 182.802 399.438 182.396 398.562 182.062C397.708 181.729 396.625 181.562 395.312 181.562C394.5 181.562 393.677 181.719 392.844 182.031C392.01 182.323 391.219 182.719 390.469 183.219C389.719 183.719 389.042 184.292 388.438 184.938C387.833 185.583 387.354 186.24 387 186.906V197.438H385.75V186.5ZM371.781 181.344H375.469V182.531H371.781V181.344ZM420.125 206.188V201.062H421.375V207.375H400.844V206.188H420.125ZM391.062 206.188V201.062H392.312V207.375H371.781V206.188H391.062ZM433.031 159.812H440.688V166.062H433.031V159.812ZM434.906 168.25H442.938V161.562H444.188V169.438H434.906V168.25ZM426.469 199.312H434.906L433.969 179.156H426.469V173.844H440.688V199.312H447.875V204H426.469V199.312ZM442.875 175.438H444.125V197.438H442.875V175.438ZM428.344 181.344H432.656V182.531H428.344V181.344ZM450.125 206.188V201.062H451.375V207.375H428.344V206.188H450.125ZM455.781 189.031C455.781 187.094 456.188 185.167 457 183.25C457.812 181.333 459.01 179.615 460.594 178.094C462.198 176.552 464.177 175.302 466.531 174.344C468.885 173.385 471.594 172.906 474.656 172.906C475.635 172.906 476.677 172.979 477.781 173.125C478.906 173.271 480.021 173.51 481.125 173.844C482.25 174.177 483.344 174.625 484.406 175.188C485.469 175.729 486.438 176.396 487.312 177.188V173.844H500.75V179.156H493.875V199.312H500.75V204H487.312V199.938C486.5 200.75 485.573 201.469 484.531 202.094C483.51 202.719 482.417 203.24 481.25 203.656C480.104 204.073 478.906 204.385 477.656 204.594C476.427 204.823 475.198 204.938 473.969 204.938C470.969 204.938 468.333 204.51 466.062 203.656C463.792 202.802 461.896 201.656 460.375 200.219C458.854 198.76 457.708 197.073 456.938 195.156C456.167 193.219 455.781 191.177 455.781 189.031ZM496.125 181.344H503V176.219H504.25V182.531H497.375V197.438H496.125V181.344ZM462.562 188.781C462.562 190.51 462.865 192.073 463.469 193.469C464.094 194.865 464.938 196.052 466 197.031C467.062 198.01 468.323 198.771 469.781 199.312C471.24 199.854 472.812 200.125 474.5 200.125C475.479 200.125 476.469 200.031 477.469 199.844C478.49 199.635 479.469 199.333 480.406 198.938C481.365 198.521 482.26 198.01 483.094 197.406C483.948 196.781 484.677 196.052 485.281 195.219C485.906 194.365 486.396 193.396 486.75 192.312C487.125 191.229 487.312 190.021 487.312 188.688C487.312 187.208 486.969 185.812 486.281 184.5C485.594 183.167 484.667 182 483.5 181C482.354 180 481.01 179.208 479.469 178.625C477.927 178.042 476.302 177.75 474.594 177.75C472.885 177.75 471.292 178.01 469.812 178.531C468.354 179.052 467.083 179.792 466 180.75C464.938 181.708 464.094 182.875 463.469 184.25C462.865 185.604 462.562 187.115 462.562 188.781ZM464.719 188.938C464.719 187.625 464.958 186.427 465.438 185.344C465.938 184.24 466.625 183.292 467.5 182.5C468.375 181.688 469.417 181.062 470.625 180.625C471.833 180.167 473.156 179.938 474.594 179.938C475.677 179.938 476.656 180.062 477.531 180.312C478.406 180.542 479.167 180.833 479.812 181.188C480.458 181.521 480.99 181.875 481.406 182.25C481.823 182.604 482.115 182.917 482.281 183.188C481.156 182.562 480 182.062 478.812 181.688C477.625 181.312 476.219 181.125 474.594 181.125C473.281 181.125 472.094 181.344 471.031 181.781C469.99 182.198 469.094 182.771 468.344 183.5C467.594 184.229 467.01 185.073 466.594 186.031C466.198 186.99 466 188 466 189.062C466 190.062 466.115 191 466.344 191.875C466.573 192.75 466.938 193.562 467.438 194.312C467.958 195.042 468.625 195.719 469.438 196.344C470.271 196.948 471.271 197.479 472.438 197.938C471.125 197.708 469.979 197.323 469 196.781C468.042 196.219 467.24 195.542 466.594 194.75C465.969 193.958 465.5 193.073 465.188 192.094C464.875 191.094 464.719 190.042 464.719 188.938ZM503 206.188V201.062H504.25V207.375H489.188V206.188H503ZM459.812 202.656C460.667 203.344 461.635 203.958 462.719 204.5C463.802 205.062 464.958 205.531 466.188 205.906C467.417 206.302 468.688 206.604 470 206.812C471.333 207.021 472.667 207.125 474 207.125C476.312 207.125 478.469 206.833 480.469 206.25C482.49 205.688 484.281 204.896 485.844 203.875V205.312C484.281 206.25 482.469 206.979 480.406 207.5C478.365 208.042 476.24 208.312 474.031 208.312C472.51 208.312 471.021 208.188 469.562 207.938C468.104 207.708 466.75 207.354 465.5 206.875C464.25 206.396 463.135 205.802 462.156 205.094C461.177 204.385 460.396 203.573 459.812 202.656ZM511.938 199.312H518.812V165.094H511.938V160.406H525.531V199.312H532.406V204H511.938V199.312ZM527.719 162H528.969V197.438H527.719V162ZM513.812 167.281H517.5V168.469H513.812V167.281ZM534.656 206.188V201.062H535.906V207.375H513.812V206.188H534.656ZM543.062 195.406H549.5C550.062 196.26 550.865 197.01 551.906 197.656C552.948 198.302 554.135 198.833 555.469 199.25C556.823 199.667 558.302 199.979 559.906 200.188C561.51 200.396 563.156 200.5 564.844 200.5C566.24 200.5 567.427 200.396 568.406 200.188C569.385 199.979 570.177 199.688 570.781 199.312C571.385 198.938 571.823 198.5 572.094 198C572.365 197.5 572.5 196.948 572.5 196.344C572.5 195.073 571.479 193.99 569.438 193.094C567.417 192.177 564.208 191.479 559.812 191C556.896 190.688 554.458 190.26 552.5 189.719C550.542 189.156 548.958 188.479 547.75 187.688C546.562 186.896 545.708 185.99 545.188 184.969C544.688 183.948 544.438 182.823 544.438 181.594C544.438 180.531 544.771 179.479 545.438 178.438C546.104 177.396 547.115 176.469 548.469 175.656C549.844 174.823 551.552 174.156 553.594 173.656C555.656 173.156 558.073 172.906 560.844 172.906C561.74 172.906 562.656 172.969 563.594 173.094C564.531 173.219 565.448 173.406 566.344 173.656C567.24 173.885 568.094 174.167 568.906 174.5C569.719 174.833 570.448 175.208 571.094 175.625V173.875H577.812V182.312H571.094C570.865 181.667 570.385 181.052 569.656 180.469C568.927 179.885 568.062 179.375 567.062 178.938C566.062 178.5 565 178.156 563.875 177.906C562.75 177.635 561.688 177.5 560.688 177.5C559.375 177.5 558.135 177.594 556.969 177.781C555.802 177.969 554.792 178.24 553.938 178.594C553.083 178.927 552.406 179.333 551.906 179.812C551.406 180.292 551.156 180.823 551.156 181.406C551.156 181.948 551.344 182.438 551.719 182.875C552.115 183.312 552.76 183.719 553.656 184.094C554.573 184.469 555.781 184.823 557.281 185.156C558.802 185.469 560.688 185.76 562.938 186.031C565.938 186.406 568.469 186.885 570.531 187.469C572.594 188.052 574.271 188.771 575.562 189.625C576.854 190.458 577.781 191.438 578.344 192.562C578.927 193.688 579.219 194.979 579.219 196.438C579.219 197.5 578.896 198.542 578.25 199.562C577.604 200.562 576.656 201.469 575.406 202.281C574.177 203.073 572.656 203.708 570.844 204.188C569.052 204.688 566.99 204.938 564.656 204.938C563.156 204.938 561.75 204.875 560.438 204.75C559.125 204.646 557.865 204.458 556.656 204.188C555.448 203.917 554.281 203.573 553.156 203.156C552.031 202.74 550.906 202.229 549.781 201.625V204H543.062V195.406ZM572.625 184.5H580.062V175.188H581.312V185.688H572.625V184.5ZM553.438 181.406C553.5 181.135 553.75 180.885 554.188 180.656C554.625 180.427 555.177 180.229 555.844 180.062C556.531 179.875 557.281 179.729 558.094 179.625C558.927 179.521 559.76 179.469 560.594 179.469C561.302 179.469 562.031 179.521 562.781 179.625C563.552 179.729 564.271 179.875 564.938 180.062C565.625 180.25 566.24 180.49 566.781 180.781C567.344 181.052 567.781 181.365 568.094 181.719C567.615 181.51 567.042 181.344 566.375 181.219C565.708 181.073 565.021 180.958 564.312 180.875C563.625 180.792 562.948 180.729 562.281 180.688C561.615 180.646 561.052 180.625 560.594 180.625C558.906 180.625 557.438 180.708 556.188 180.875C554.958 181.042 554.042 181.219 553.438 181.406ZM544.875 187.594C545.458 188.344 546.156 189.01 546.969 189.594C547.781 190.177 548.76 190.698 549.906 191.156C551.052 191.615 552.385 192.01 553.906 192.344C555.427 192.656 557.177 192.927 559.156 193.156C560.969 193.365 562.542 193.594 563.875 193.844C565.208 194.073 566.323 194.333 567.219 194.625C568.115 194.917 568.812 195.25 569.312 195.625C569.812 195.979 570.135 196.385 570.281 196.844C569.844 196.552 569.344 196.302 568.781 196.094C568.219 195.865 567.5 195.656 566.625 195.469C565.75 195.281 564.667 195.094 563.375 194.906C562.104 194.719 560.521 194.51 558.625 194.281C554.708 193.823 551.615 193.083 549.344 192.062C547.073 191.021 545.583 189.531 544.875 187.594ZM552.031 206.188V204.875C552.615 205.146 553.354 205.406 554.25 205.656C555.146 205.927 556.146 206.167 557.25 206.375C558.375 206.604 559.562 206.781 560.812 206.906C562.062 207.052 563.333 207.125 564.625 207.125C567.208 207.125 569.542 206.833 571.625 206.25C573.708 205.688 575.479 204.927 576.938 203.969C578.396 202.99 579.51 201.865 580.281 200.594C581.073 199.302 581.469 197.948 581.469 196.531C581.469 195.969 581.438 195.448 581.375 194.969C581.312 194.49 581.198 194.031 581.031 193.594C580.885 193.156 580.677 192.719 580.406 192.281C580.156 191.844 579.833 191.385 579.438 190.906C581.625 192.198 582.719 194.073 582.719 196.531C582.719 198.198 582.292 199.75 581.438 201.188C580.583 202.625 579.365 203.865 577.781 204.906C576.219 205.969 574.323 206.802 572.094 207.406C569.865 208.01 567.365 208.312 564.594 208.312C563.573 208.312 562.542 208.26 561.5 208.156C560.458 208.073 559.448 207.948 558.469 207.781C557.49 207.615 556.562 207.417 555.688 207.188C554.812 206.958 554.031 206.698 553.344 206.406V207.438H544.594V206.188H552.031Z" fill="#7C76BB"/>
<defs>
<filter id="filter0_b_2717_1090" x="315.338" y="44.2874" width="225.366" height="312.128" filterUnits="userSpaceOnUse" color-interpolation-filters="sRGB">
<feFlood flood-opacity="0" result="BackgroundImageFix"/>
<feGaussianBlur in="BackgroundImageFix" stdDeviation="6"/>
<feComposite in2="SourceAlpha" operator="in" result="effect1_backgroundBlur_2717_1090"/>
<feBlend mode="normal" in="SourceGraphic" in2="effect1_backgroundBlur_2717_1090" result="shape"/>
</filter>
<filter id="filter1_b_2717_1090" x="250.185" y="117.752" width="141.17" height="191.656" filterUnits="userSpaceOnUse" color-interpolation-filters="sRGB">
<feFlood flood-opacity="0" result="BackgroundImageFix"/>
<feGaussianBlur in="BackgroundImageFix" stdDeviation="6"/>
<feComposite in2="SourceAlpha" operator="in" result="effect1_backgroundBlur_2717_1090"/>
<feBlend mode="normal" in="SourceGraphic" in2="effect1_backgroundBlur_2717_1090" result="shape"/>
</filter>
</defs>
</svg>
