<svg width="557" height="486" viewBox="0 0 557 486" fill="none" xmlns="http://www.w3.org/2000/svg">
<g filter="url(#filter0_d_3165_1015)">
<rect x="4" width="541" height="478" rx="16.8931" fill="white"/>
<path d="M274.069 199.826C259.918 211.86 248.447 226.449 240.328 242.738C232.21 259.028 227.607 276.688 226.789 294.685C225.972 312.681 228.957 330.651 235.568 347.54C242.18 364.43 252.286 379.898 265.293 393.039L282.796 377.496C271.974 366.562 263.565 353.692 258.064 339.639C252.563 325.587 250.079 310.635 250.759 295.661C251.44 280.688 255.269 265.993 262.025 252.44C268.78 238.887 278.324 226.748 290.098 216.735L274.069 199.826Z" fill="#D0D2DA"/>
<path d="M521 300.5C521 272.777 512.522 245.648 496.591 222.391C480.66 199.135 457.958 180.748 431.229 169.452C404.5 158.156 374.889 154.436 345.976 158.74C317.062 163.045 290.084 175.191 268.303 193.709L297.781 224.816C313.218 211.693 332.337 203.085 352.828 200.034C373.319 196.984 394.305 199.62 413.247 207.626C432.19 215.631 448.279 228.662 459.57 245.144C470.86 261.626 476.869 280.853 476.869 300.5H521Z" fill="#FD2254"/>
<path d="M263.434 394.587C283.354 414.734 309.209 428.743 337.641 434.794C366.073 440.846 395.769 438.661 422.874 428.523C449.978 418.384 473.238 400.762 489.634 377.943C506.03 355.124 514.804 328.162 514.817 300.56L488.3 300.549C488.29 323.115 481.117 345.156 467.713 363.811C454.309 382.467 435.293 396.874 413.135 405.162C390.976 413.45 366.698 415.236 343.454 410.289C320.21 405.342 299.074 393.889 282.789 377.418L263.434 394.587Z" fill="#00B7FE"/>
<path d="M49.608 31.152V34.44H45.144V48H41.04V34.44H36.576V31.152H49.608ZM55.2917 36.84C55.7717 36.104 56.3717 35.528 57.0917 35.112C57.8117 34.68 58.6117 34.464 59.4917 34.464V38.808H58.3637C57.3397 38.808 56.5717 39.032 56.0597 39.48C55.5477 39.912 55.2917 40.68 55.2917 41.784V48H51.1877V34.608H55.2917V36.84ZM73.5973 41.088C73.5973 41.472 73.5733 41.872 73.5253 42.288H64.2373C64.3013 43.12 64.5653 43.76 65.0293 44.208C65.5093 44.64 66.0933 44.856 66.7813 44.856C67.8053 44.856 68.5173 44.424 68.9173 43.56H73.2853C73.0613 44.44 72.6533 45.232 72.0613 45.936C71.4853 46.64 70.7573 47.192 69.8773 47.592C68.9973 47.992 68.0133 48.192 66.9253 48.192C65.6133 48.192 64.4453 47.912 63.4213 47.352C62.3973 46.792 61.5973 45.992 61.0213 44.952C60.4453 43.912 60.1573 42.696 60.1573 41.304C60.1573 39.912 60.4373 38.696 60.9973 37.656C61.5733 36.616 62.3733 35.816 63.3973 35.256C64.4213 34.696 65.5973 34.416 66.9253 34.416C68.2213 34.416 69.3733 34.688 70.3813 35.232C71.3893 35.776 72.1733 36.552 72.7333 37.56C73.3093 38.568 73.5973 39.744 73.5973 41.088ZM69.3973 40.008C69.3973 39.304 69.1573 38.744 68.6773 38.328C68.1973 37.912 67.5973 37.704 66.8773 37.704C66.1893 37.704 65.6053 37.904 65.1253 38.304C64.6613 38.704 64.3733 39.272 64.2613 40.008H69.3973ZM83.4424 34.464C85.0104 34.464 86.2584 34.976 87.1864 36C88.1304 37.008 88.6024 38.4 88.6024 40.176V48H84.5224V40.728C84.5224 39.832 84.2904 39.136 83.8264 38.64C83.3624 38.144 82.7384 37.896 81.9544 37.896C81.1704 37.896 80.5464 38.144 80.0824 38.64C79.6184 39.136 79.3864 39.832 79.3864 40.728V48H75.2824V34.608H79.3864V36.384C79.8024 35.792 80.3624 35.328 81.0664 34.992C81.7704 34.64 82.5624 34.464 83.4424 34.464ZM90.1583 41.28C90.1583 39.904 90.4143 38.696 90.9263 37.656C91.4543 36.616 92.1663 35.816 93.0623 35.256C93.9583 34.696 94.9583 34.416 96.0623 34.416C96.9423 34.416 97.7423 34.6 98.4623 34.968C99.1983 35.336 99.7743 35.832 100.19 36.456V30.24H104.294V48H100.19V46.08C99.8063 46.72 99.2543 47.232 98.5343 47.616C97.8303 48 97.0063 48.192 96.0623 48.192C94.9583 48.192 93.9583 47.912 93.0623 47.352C92.1663 46.776 91.4543 45.968 90.9263 44.928C90.4143 43.872 90.1583 42.656 90.1583 41.28ZM100.19 41.304C100.19 40.28 99.9023 39.472 99.3263 38.88C98.7663 38.288 98.0783 37.992 97.2623 37.992C96.4463 37.992 95.7503 38.288 95.1743 38.88C94.6143 39.456 94.3343 40.256 94.3343 41.28C94.3343 42.304 94.6143 43.12 95.1743 43.728C95.7503 44.32 96.4463 44.616 97.2623 44.616C98.0783 44.616 98.7663 44.32 99.3263 43.728C99.9023 43.136 100.19 42.328 100.19 41.304ZM108.847 33.216C108.127 33.216 107.535 33.008 107.071 32.592C106.623 32.16 106.399 31.632 106.399 31.008C106.399 30.368 106.623 29.84 107.071 29.424C107.535 28.992 108.127 28.776 108.847 28.776C109.551 28.776 110.127 28.992 110.575 29.424C111.039 29.84 111.271 30.368 111.271 31.008C111.271 31.632 111.039 32.16 110.575 32.592C110.127 33.008 109.551 33.216 108.847 33.216ZM110.887 34.608V48H106.783V34.608H110.887ZM121.541 34.464C123.109 34.464 124.357 34.976 125.285 36C126.229 37.008 126.701 38.4 126.701 40.176V48H122.621V40.728C122.621 39.832 122.389 39.136 121.925 38.64C121.461 38.144 120.837 37.896 120.053 37.896C119.269 37.896 118.645 38.144 118.181 38.64C117.717 39.136 117.485 39.832 117.485 40.728V48H113.381V34.608H117.485V36.384C117.901 35.792 118.461 35.328 119.165 34.992C119.869 34.64 120.661 34.464 121.541 34.464ZM134.161 34.416C135.105 34.416 135.929 34.608 136.633 34.992C137.353 35.376 137.905 35.88 138.289 36.504V34.608H142.393V47.976C142.393 49.208 142.145 50.32 141.649 51.312C141.169 52.32 140.425 53.12 139.417 53.712C138.425 54.304 137.185 54.6 135.697 54.6C133.713 54.6 132.105 54.128 130.873 53.184C129.641 52.256 128.937 50.992 128.761 49.392H132.817C132.945 49.904 133.249 50.304 133.729 50.592C134.209 50.896 134.801 51.048 135.505 51.048C136.353 51.048 137.025 50.8 137.521 50.304C138.033 49.824 138.289 49.048 138.289 47.976V46.08C137.889 46.704 137.337 47.216 136.633 47.616C135.929 48 135.105 48.192 134.161 48.192C133.057 48.192 132.057 47.912 131.161 47.352C130.265 46.776 129.553 45.968 129.025 44.928C128.513 43.872 128.257 42.656 128.257 41.28C128.257 39.904 128.513 38.696 129.025 37.656C129.553 36.616 130.265 35.816 131.161 35.256C132.057 34.696 133.057 34.416 134.161 34.416ZM138.289 41.304C138.289 40.28 138.001 39.472 137.425 38.88C136.865 38.288 136.177 37.992 135.361 37.992C134.545 37.992 133.849 38.288 133.273 38.88C132.713 39.456 132.433 40.256 132.433 41.28C132.433 42.304 132.713 43.12 133.273 43.728C133.849 44.32 134.545 44.616 135.361 44.616C136.177 44.616 136.865 44.32 137.425 43.728C138.001 43.136 138.289 42.328 138.289 41.304Z" fill="#15192C"/>
<path d="M44.096 77.848V79.032H41.056V89H39.6V79.032H36.544V77.848H44.096ZM49.7123 89.144C48.8909 89.144 48.1443 88.9573 47.4723 88.584C46.8109 88.2107 46.2883 87.6827 45.9043 87C45.5309 86.3067 45.3443 85.5067 45.3443 84.6C45.3443 83.704 45.5363 82.9147 45.9203 82.232C46.3149 81.5387 46.8483 81.0107 47.5203 80.648C48.1923 80.2747 48.9443 80.088 49.7763 80.088C50.6083 80.088 51.3603 80.2747 52.0323 80.648C52.7043 81.0107 53.2323 81.5333 53.6163 82.216C54.0109 82.8987 54.2083 83.6933 54.2083 84.6C54.2083 85.5067 54.0056 86.3067 53.6003 87C53.2056 87.6827 52.6669 88.2107 51.9843 88.584C51.3016 88.9573 50.5443 89.144 49.7123 89.144ZM49.7123 87.864C50.2349 87.864 50.7256 87.7413 51.1843 87.496C51.6429 87.2507 52.0109 86.8827 52.2883 86.392C52.5763 85.9013 52.7203 85.304 52.7203 84.6C52.7203 83.896 52.5816 83.2987 52.3043 82.808C52.0269 82.3173 51.6643 81.9547 51.2163 81.72C50.7683 81.4747 50.2829 81.352 49.7603 81.352C49.2269 81.352 48.7363 81.4747 48.2883 81.72C47.8509 81.9547 47.4989 82.3173 47.2323 82.808C46.9656 83.2987 46.8323 83.896 46.8323 84.6C46.8323 85.3147 46.9603 85.9173 47.2163 86.408C47.4829 86.8987 47.8349 87.2667 48.2723 87.512C48.7096 87.7467 49.1896 87.864 49.7123 87.864ZM57.8986 81.432V86.6C57.8986 87.0267 57.9893 87.3307 58.1706 87.512C58.352 87.6827 58.6666 87.768 59.1146 87.768H60.1866V89H58.8746C58.064 89 57.456 88.8133 57.0506 88.44C56.6453 88.0667 56.4426 87.4533 56.4426 86.6V81.432H55.3066V80.232H56.4426V78.024H57.8986V80.232H60.1866V81.432H57.8986ZM61.4068 84.584C61.4068 83.688 61.5881 82.904 61.9508 82.232C62.3134 81.5493 62.8094 81.0213 63.4388 80.648C64.0788 80.2747 64.7881 80.088 65.5668 80.088C66.3348 80.088 67.0014 80.2533 67.5668 80.584C68.1321 80.9147 68.5534 81.3307 68.8308 81.832V80.232H70.3028V89H68.8308V87.368C68.5428 87.88 68.1108 88.3067 67.5348 88.648C66.9694 88.9787 66.3081 89.144 65.5508 89.144C64.7721 89.144 64.0681 88.952 63.4388 88.568C62.8094 88.184 62.3134 87.6453 61.9508 86.952C61.5881 86.2587 61.4068 85.4693 61.4068 84.584ZM68.8308 84.6C68.8308 83.9387 68.6974 83.3627 68.4308 82.872C68.1641 82.3813 67.8014 82.008 67.3428 81.752C66.8948 81.4853 66.3988 81.352 65.8548 81.352C65.3108 81.352 64.8148 81.48 64.3668 81.736C63.9188 81.992 63.5614 82.3653 63.2948 82.856C63.0281 83.3467 62.8948 83.9227 62.8948 84.584C62.8948 85.256 63.0281 85.8427 63.2948 86.344C63.5614 86.8347 63.9188 87.2133 64.3668 87.48C64.8148 87.736 65.3108 87.864 65.8548 87.864C66.3988 87.864 66.8948 87.736 67.3428 87.48C67.8014 87.2133 68.1641 86.8347 68.4308 86.344C68.6974 85.8427 68.8308 85.2613 68.8308 84.6ZM74.2193 77.16V89H72.7633V77.16H74.2193ZM84.5824 80.088C85.3397 80.088 86.001 80.2533 86.5664 80.584C87.1424 80.9147 87.569 81.3307 87.8464 81.832V80.232H89.3184V89.192C89.3184 89.992 89.1477 90.7013 88.8064 91.32C88.465 91.9493 87.9744 92.44 87.3344 92.792C86.705 93.144 85.969 93.32 85.1264 93.32C83.9744 93.32 83.0144 93.048 82.2464 92.504C81.4784 91.96 81.025 91.2187 80.8864 90.28H82.3264C82.4864 90.8133 82.817 91.24 83.3184 91.56C83.8197 91.8907 84.4224 92.056 85.1264 92.056C85.9264 92.056 86.577 91.8053 87.0784 91.304C87.5904 90.8027 87.8464 90.0987 87.8464 89.192V87.352C87.5584 87.864 87.1317 88.2907 86.5664 88.632C86.001 88.9733 85.3397 89.144 84.5824 89.144C83.8037 89.144 83.0944 88.952 82.4544 88.568C81.825 88.184 81.329 87.6453 80.9664 86.952C80.6037 86.2587 80.4224 85.4693 80.4224 84.584C80.4224 83.688 80.6037 82.904 80.9664 82.232C81.329 81.5493 81.825 81.0213 82.4544 80.648C83.0944 80.2747 83.8037 80.088 84.5824 80.088ZM87.8464 84.6C87.8464 83.9387 87.713 83.3627 87.4464 82.872C87.1797 82.3813 86.817 82.008 86.3584 81.752C85.9104 81.4853 85.4144 81.352 84.8704 81.352C84.3264 81.352 83.8304 81.48 83.3824 81.736C82.9344 81.992 82.577 82.3653 82.3104 82.856C82.0437 83.3467 81.9104 83.9227 81.9104 84.584C81.9104 85.256 82.0437 85.8427 82.3104 86.344C82.577 86.8347 82.9344 87.2133 83.3824 87.48C83.8304 87.736 84.3264 87.864 84.8704 87.864C85.4144 87.864 85.9104 87.736 86.3584 87.48C86.817 87.2133 87.1797 86.8347 87.4464 86.344C87.713 85.8427 87.8464 85.2613 87.8464 84.6ZM93.2349 81.656C93.4909 81.1547 93.8535 80.7653 94.3229 80.488C94.8029 80.2107 95.3842 80.072 96.0669 80.072V81.576H95.6829C94.0509 81.576 93.2349 82.4613 93.2349 84.232V89H91.7789V80.232H93.2349V81.656ZM101.572 89.144C100.75 89.144 100.004 88.9573 99.3316 88.584C98.6703 88.2107 98.1476 87.6827 97.7636 87C97.3903 86.3067 97.2036 85.5067 97.2036 84.6C97.2036 83.704 97.3956 82.9147 97.7796 82.232C98.1743 81.5387 98.7076 81.0107 99.3796 80.648C100.052 80.2747 100.804 80.088 101.636 80.088C102.468 80.088 103.22 80.2747 103.892 80.648C104.564 81.0107 105.092 81.5333 105.476 82.216C105.87 82.8987 106.068 83.6933 106.068 84.6C106.068 85.5067 105.865 86.3067 105.46 87C105.065 87.6827 104.526 88.2107 103.844 88.584C103.161 88.9573 102.404 89.144 101.572 89.144ZM101.572 87.864C102.094 87.864 102.585 87.7413 103.044 87.496C103.502 87.2507 103.87 86.8827 104.148 86.392C104.436 85.9013 104.58 85.304 104.58 84.6C104.58 83.896 104.441 83.2987 104.164 82.808C103.886 82.3173 103.524 81.9547 103.076 81.72C102.628 81.4747 102.142 81.352 101.62 81.352C101.086 81.352 100.596 81.4747 100.148 81.72C99.7103 81.9547 99.3583 82.3173 99.0916 82.808C98.825 83.2987 98.6916 83.896 98.6916 84.6C98.6916 85.3147 98.8196 85.9173 99.0756 86.408C99.3423 86.8987 99.6943 87.2667 100.132 87.512C100.569 87.7467 101.049 87.864 101.572 87.864ZM119.662 80.232L116.926 89H115.422L113.31 82.04L111.198 89H109.694L106.942 80.232H108.43L110.446 87.592L112.622 80.232H114.11L116.238 87.608L118.222 80.232H119.662ZM122.883 81.432V86.6C122.883 87.0267 122.974 87.3307 123.155 87.512C123.336 87.6827 123.651 87.768 124.099 87.768H125.171V89H123.859C123.048 89 122.44 88.8133 122.035 88.44C121.63 88.0667 121.427 87.4533 121.427 86.6V81.432H120.291V80.232H121.427V78.024H122.883V80.232H125.171V81.432H122.883ZM131.287 80.072C131.948 80.072 132.546 80.216 133.079 80.504C133.612 80.7813 134.028 81.2027 134.327 81.768C134.636 82.3333 134.791 83.0213 134.791 83.832V89H133.351V84.04C133.351 83.1653 133.132 82.4987 132.695 82.04C132.258 81.5707 131.66 81.336 130.903 81.336C130.135 81.336 129.522 81.576 129.063 82.056C128.615 82.536 128.391 83.2347 128.391 84.152V89H126.935V77.16H128.391V81.48C128.679 81.032 129.074 80.6853 129.575 80.44C130.087 80.1947 130.658 80.072 131.287 80.072ZM142.187 78.808C141.91 78.808 141.675 78.712 141.483 78.52C141.291 78.328 141.195 78.0933 141.195 77.816C141.195 77.5387 141.291 77.304 141.483 77.112C141.675 76.92 141.91 76.824 142.187 76.824C142.454 76.824 142.678 76.92 142.859 77.112C143.051 77.304 143.147 77.5387 143.147 77.816C143.147 78.0933 143.051 78.328 142.859 78.52C142.678 78.712 142.454 78.808 142.187 78.808ZM142.891 80.232V89H141.435V80.232H142.891ZM149.645 80.072C150.711 80.072 151.575 80.3973 152.237 81.048C152.898 81.688 153.229 82.616 153.229 83.832V89H151.789V84.04C151.789 83.1653 151.57 82.4987 151.133 82.04C150.695 81.5707 150.098 81.336 149.341 81.336C148.573 81.336 147.959 81.576 147.501 82.056C147.053 82.536 146.829 83.2347 146.829 84.152V89H145.373V80.232H146.829V81.48C147.117 81.032 147.506 80.6853 147.997 80.44C148.498 80.1947 149.047 80.072 149.645 80.072ZM166.737 77.848V79.032H163.697V89H162.241V79.032H159.185V77.848H166.737ZM172.353 89.144C171.532 89.144 170.785 88.9573 170.113 88.584C169.452 88.2107 168.929 87.6827 168.545 87C168.172 86.3067 167.985 85.5067 167.985 84.6C167.985 83.704 168.177 82.9147 168.561 82.232C168.956 81.5387 169.489 81.0107 170.161 80.648C170.833 80.2747 171.585 80.088 172.417 80.088C173.249 80.088 174.001 80.2747 174.673 80.648C175.345 81.0107 175.873 81.5333 176.257 82.216C176.652 82.8987 176.849 83.6933 176.849 84.6C176.849 85.5067 176.646 86.3067 176.241 87C175.846 87.6827 175.308 88.2107 174.625 88.584C173.942 88.9573 173.185 89.144 172.353 89.144ZM172.353 87.864C172.876 87.864 173.366 87.7413 173.825 87.496C174.284 87.2507 174.652 86.8827 174.929 86.392C175.217 85.9013 175.361 85.304 175.361 84.6C175.361 83.896 175.222 83.2987 174.945 82.808C174.668 82.3173 174.305 81.9547 173.857 81.72C173.409 81.4747 172.924 81.352 172.401 81.352C171.868 81.352 171.377 81.4747 170.929 81.72C170.492 81.9547 170.14 82.3173 169.873 82.808C169.606 83.2987 169.473 83.896 169.473 84.6C169.473 85.3147 169.601 85.9173 169.857 86.408C170.124 86.8987 170.476 87.2667 170.913 87.512C171.35 87.7467 171.83 87.864 172.353 87.864ZM178.219 84.584C178.219 83.688 178.401 82.904 178.763 82.232C179.126 81.5493 179.622 81.0213 180.251 80.648C180.891 80.2747 181.606 80.088 182.395 80.088C183.078 80.088 183.713 80.248 184.299 80.568C184.886 80.8773 185.334 81.288 185.643 81.8V77.16H187.115V89H185.643V87.352C185.355 87.8747 184.929 88.3067 184.363 88.648C183.798 88.9787 183.137 89.144 182.379 89.144C181.601 89.144 180.891 88.952 180.251 88.568C179.622 88.184 179.126 87.6453 178.763 86.952C178.401 86.2587 178.219 85.4693 178.219 84.584ZM185.643 84.6C185.643 83.9387 185.51 83.3627 185.243 82.872C184.977 82.3813 184.614 82.008 184.155 81.752C183.707 81.4853 183.211 81.352 182.667 81.352C182.123 81.352 181.627 81.48 181.179 81.736C180.731 81.992 180.374 82.3653 180.107 82.856C179.841 83.3467 179.707 83.9227 179.707 84.584C179.707 85.256 179.841 85.8427 180.107 86.344C180.374 86.8347 180.731 87.2133 181.179 87.48C181.627 87.736 182.123 87.864 182.667 87.864C183.211 87.864 183.707 87.736 184.155 87.48C184.614 87.2133 184.977 86.8347 185.243 86.344C185.51 85.8427 185.643 85.2613 185.643 84.6ZM189.032 84.584C189.032 83.688 189.213 82.904 189.576 82.232C189.938 81.5493 190.434 81.0213 191.064 80.648C191.704 80.2747 192.413 80.088 193.192 80.088C193.96 80.088 194.626 80.2533 195.192 80.584C195.757 80.9147 196.178 81.3307 196.456 81.832V80.232H197.928V89H196.456V87.368C196.168 87.88 195.736 88.3067 195.16 88.648C194.594 88.9787 193.933 89.144 193.176 89.144C192.397 89.144 191.693 88.952 191.064 88.568C190.434 88.184 189.938 87.6453 189.576 86.952C189.213 86.2587 189.032 85.4693 189.032 84.584ZM196.456 84.6C196.456 83.9387 196.322 83.3627 196.056 82.872C195.789 82.3813 195.426 82.008 194.968 81.752C194.52 81.4853 194.024 81.352 193.48 81.352C192.936 81.352 192.44 81.48 191.992 81.736C191.544 81.992 191.186 82.3653 190.92 82.856C190.653 83.3467 190.52 83.9227 190.52 84.584C190.52 85.256 190.653 85.8427 190.92 86.344C191.186 86.8347 191.544 87.2133 191.992 87.48C192.44 87.736 192.936 87.864 193.48 87.864C194.024 87.864 194.52 87.736 194.968 87.48C195.426 87.2133 195.789 86.8347 196.056 86.344C196.322 85.8427 196.456 85.2613 196.456 84.6ZM207.94 80.232L202.66 93.128H201.156L202.884 88.904L199.348 80.232H200.964L203.716 87.336L206.436 80.232H207.94ZM212.508 89.144C211.836 89.144 211.233 89.032 210.7 88.808C210.167 88.5733 209.745 88.2533 209.436 87.848C209.127 87.432 208.956 86.9573 208.924 86.424H210.428C210.471 86.8613 210.673 87.2187 211.036 87.496C211.409 87.7733 211.895 87.912 212.492 87.912C213.047 87.912 213.484 87.7893 213.804 87.544C214.124 87.2987 214.284 86.9893 214.284 86.616C214.284 86.232 214.113 85.9493 213.772 85.768C213.431 85.576 212.903 85.3893 212.188 85.208C211.537 85.0373 211.004 84.8667 210.588 84.696C210.183 84.5147 209.831 84.2533 209.532 83.912C209.244 83.56 209.1 83.1013 209.1 82.536C209.1 82.088 209.233 81.6773 209.5 81.304C209.767 80.9307 210.145 80.6373 210.636 80.424C211.127 80.2 211.687 80.088 212.316 80.088C213.287 80.088 214.071 80.3333 214.668 80.824C215.265 81.3147 215.585 81.9867 215.628 82.84H214.172C214.14 82.3813 213.953 82.0133 213.612 81.736C213.281 81.4587 212.833 81.32 212.268 81.32C211.745 81.32 211.329 81.432 211.02 81.656C210.711 81.88 210.556 82.1733 210.556 82.536C210.556 82.824 210.647 83.064 210.828 83.256C211.02 83.4373 211.255 83.5867 211.532 83.704C211.82 83.8107 212.215 83.9333 212.716 84.072C213.345 84.2427 213.857 84.4133 214.252 84.584C214.647 84.744 214.983 84.9893 215.26 85.32C215.548 85.6507 215.697 86.0827 215.708 86.616C215.708 87.096 215.575 87.528 215.308 87.912C215.041 88.296 214.663 88.6 214.172 88.824C213.692 89.0373 213.137 89.144 212.508 89.144ZM233.341 77.928V89H231.885V80.744L228.205 89H227.181L223.485 80.728V89H222.029V77.928H223.597L227.693 87.08L231.789 77.928H233.341ZM235.266 84.584C235.266 83.688 235.447 82.904 235.81 82.232C236.173 81.5493 236.669 81.0213 237.298 80.648C237.938 80.2747 238.647 80.088 239.426 80.088C240.194 80.088 240.861 80.2533 241.426 80.584C241.991 80.9147 242.413 81.3307 242.69 81.832V80.232H244.162V89H242.69V87.368C242.402 87.88 241.97 88.3067 241.394 88.648C240.829 88.9787 240.167 89.144 239.41 89.144C238.631 89.144 237.927 88.952 237.298 88.568C236.669 88.184 236.173 87.6453 235.81 86.952C235.447 86.2587 235.266 85.4693 235.266 84.584ZM242.69 84.6C242.69 83.9387 242.557 83.3627 242.29 82.872C242.023 82.3813 241.661 82.008 241.202 81.752C240.754 81.4853 240.258 81.352 239.714 81.352C239.17 81.352 238.674 81.48 238.226 81.736C237.778 81.992 237.421 82.3653 237.154 82.856C236.887 83.3467 236.754 83.9227 236.754 84.584C236.754 85.256 236.887 85.8427 237.154 86.344C237.421 86.8347 237.778 87.2133 238.226 87.48C238.674 87.736 239.17 87.864 239.714 87.864C240.258 87.864 240.754 87.736 241.202 87.48C241.661 87.2133 242.023 86.8347 242.29 86.344C242.557 85.8427 242.69 85.2613 242.69 84.6ZM248.079 81.656C248.335 81.1547 248.697 80.7653 249.167 80.488C249.647 80.2107 250.228 80.072 250.911 80.072V81.576H250.527C248.895 81.576 248.079 82.4613 248.079 84.232V89H246.623V80.232H248.079V81.656ZM257.487 89L254.047 85.128V89H252.591V77.16H254.047V84.12L257.423 80.232H259.455L255.327 84.6L259.471 89H257.487ZM268.826 84.28C268.826 84.5573 268.81 84.8507 268.778 85.16H261.77C261.823 86.024 262.116 86.7013 262.65 87.192C263.194 87.672 263.85 87.912 264.618 87.912C265.247 87.912 265.77 87.768 266.186 87.48C266.612 87.1813 266.911 86.7867 267.082 86.296H268.65C268.415 87.1387 267.946 87.8267 267.242 88.36C266.538 88.8827 265.663 89.144 264.618 89.144C263.786 89.144 263.039 88.9573 262.378 88.584C261.727 88.2107 261.215 87.6827 260.842 87C260.468 86.3067 260.282 85.5067 260.282 84.6C260.282 83.6933 260.463 82.8987 260.826 82.216C261.188 81.5333 261.695 81.0107 262.346 80.648C263.007 80.2747 263.764 80.088 264.618 80.088C265.45 80.088 266.186 80.2693 266.826 80.632C267.466 80.9947 267.956 81.496 268.298 82.136C268.65 82.7653 268.826 83.48 268.826 84.28ZM267.322 83.976C267.322 83.4213 267.199 82.9467 266.954 82.552C266.708 82.1467 266.372 81.8427 265.946 81.64C265.53 81.4267 265.066 81.32 264.554 81.32C263.818 81.32 263.188 81.5547 262.666 82.024C262.154 82.4933 261.86 83.144 261.786 83.976H267.322ZM272.524 81.432V86.6C272.524 87.0267 272.614 87.3307 272.796 87.512C272.977 87.6827 273.292 87.768 273.74 87.768H274.812V89H273.5C272.689 89 272.081 88.8133 271.676 88.44C271.27 88.0667 271.068 87.4533 271.068 86.6V81.432H269.932V80.232H271.068V78.024H272.524V80.232H274.812V81.432H272.524ZM282.297 81.864C282.596 81.3413 283.033 80.9147 283.609 80.584C284.185 80.2533 284.841 80.088 285.577 80.088C286.367 80.088 287.076 80.2747 287.705 80.648C288.335 81.0213 288.831 81.5493 289.193 82.232C289.556 82.904 289.737 83.688 289.737 84.584C289.737 85.4693 289.556 86.2587 289.193 86.952C288.831 87.6453 288.329 88.184 287.689 88.568C287.06 88.952 286.356 89.144 285.577 89.144C284.82 89.144 284.153 88.9787 283.577 88.648C283.012 88.3173 282.585 87.896 282.297 87.384V89H280.841V77.16H282.297V81.864ZM288.249 84.584C288.249 83.9227 288.116 83.3467 287.849 82.856C287.583 82.3653 287.22 81.992 286.761 81.736C286.313 81.48 285.817 81.352 285.273 81.352C284.74 81.352 284.244 81.4853 283.785 81.752C283.337 82.008 282.975 82.3867 282.697 82.888C282.431 83.3787 282.297 83.9493 282.297 84.6C282.297 85.2613 282.431 85.8427 282.697 86.344C282.975 86.8347 283.337 87.2133 283.785 87.48C284.244 87.736 284.74 87.864 285.273 87.864C285.817 87.864 286.313 87.736 286.761 87.48C287.22 87.2133 287.583 86.8347 287.849 86.344C288.116 85.8427 288.249 85.256 288.249 84.584ZM299.206 80.232L293.926 93.128H292.422L294.15 88.904L290.614 80.232H292.23L294.982 87.336L297.702 80.232H299.206ZM304.519 87.832C305.874 86.744 306.935 85.8533 307.703 85.16C308.471 84.456 309.116 83.7253 309.639 82.968C310.172 82.2 310.439 81.448 310.439 80.712C310.439 80.0187 310.268 79.4747 309.927 79.08C309.596 78.6747 309.058 78.472 308.311 78.472C307.586 78.472 307.02 78.7013 306.615 79.16C306.22 79.608 306.007 80.2107 305.975 80.968H304.567C304.61 79.7733 304.972 78.8507 305.655 78.2C306.338 77.5493 307.218 77.224 308.295 77.224C309.394 77.224 310.263 77.528 310.903 78.136C311.554 78.744 311.879 79.5813 311.879 80.648C311.879 81.5333 311.612 82.3973 311.079 83.24C310.556 84.072 309.959 84.808 309.287 85.448C308.615 86.0773 307.756 86.8133 306.711 87.656H312.215V88.872H304.519V87.832ZM321.274 78.696H315.658V82.344C315.904 82.0027 316.266 81.7253 316.746 81.512C317.226 81.288 317.744 81.176 318.298 81.176C319.184 81.176 319.904 81.3627 320.458 81.736C321.013 82.0987 321.408 82.5733 321.642 83.16C321.888 83.736 322.01 84.3493 322.01 85C322.01 85.768 321.866 86.456 321.578 87.064C321.29 87.672 320.848 88.152 320.25 88.504C319.664 88.856 318.933 89.032 318.058 89.032C316.938 89.032 316.032 88.744 315.338 88.168C314.645 87.592 314.224 86.824 314.074 85.864H315.498C315.637 86.472 315.93 86.9467 316.378 87.288C316.826 87.6293 317.392 87.8 318.074 87.8C318.917 87.8 319.552 87.5493 319.978 87.048C320.405 86.536 320.618 85.864 320.618 85.032C320.618 84.2 320.405 83.56 319.978 83.112C319.552 82.6533 318.922 82.424 318.09 82.424C317.525 82.424 317.029 82.5627 316.602 82.84C316.186 83.1067 315.882 83.4747 315.69 83.944H314.314V77.416H321.274V78.696ZM323.625 80.04C323.625 79.3147 323.844 78.7387 324.281 78.312C324.718 77.8747 325.278 77.656 325.961 77.656C326.644 77.656 327.204 77.8747 327.641 78.312C328.078 78.7387 328.297 79.3147 328.297 80.04C328.297 80.776 328.078 81.3627 327.641 81.8C327.204 82.2267 326.644 82.44 325.961 82.44C325.278 82.44 324.718 82.2267 324.281 81.8C323.844 81.3627 323.625 80.776 323.625 80.04ZM332.969 77.832L326.489 89H325.049L331.529 77.832H332.969ZM325.961 78.552C325.598 78.552 325.31 78.68 325.097 78.936C324.894 79.1813 324.793 79.5493 324.793 80.04C324.793 80.5307 324.894 80.904 325.097 81.16C325.31 81.416 325.598 81.544 325.961 81.544C326.324 81.544 326.612 81.416 326.825 81.16C327.038 80.8933 327.145 80.52 327.145 80.04C327.145 79.5493 327.038 79.1813 326.825 78.936C326.612 78.68 326.324 78.552 325.961 78.552ZM329.753 86.792C329.753 86.056 329.972 85.4747 330.409 85.048C330.846 84.6107 331.406 84.392 332.089 84.392C332.772 84.392 333.326 84.6107 333.753 85.048C334.19 85.4747 334.409 86.056 334.409 86.792C334.409 87.5173 334.19 88.0987 333.753 88.536C333.326 88.9733 332.772 89.192 332.089 89.192C331.406 89.192 330.846 88.9787 330.409 88.552C329.972 88.1147 329.753 87.528 329.753 86.792ZM332.073 85.304C331.71 85.304 331.422 85.432 331.209 85.688C330.996 85.9333 330.889 86.3013 330.889 86.792C330.889 87.272 330.996 87.64 331.209 87.896C331.422 88.1413 331.71 88.264 332.073 88.264C332.436 88.264 332.724 88.1413 332.937 87.896C333.15 87.64 333.257 87.272 333.257 86.792C333.257 86.3013 333.15 85.9333 332.937 85.688C332.724 85.432 332.436 85.304 332.073 85.304Z" fill="#92959E"/>
<path d="M78.912 141.88V153H77.088V145.384L73.696 153H72.432L69.024 145.384V153H67.2V141.88H69.168L73.072 150.6L76.96 141.88H78.912ZM80.7014 148.552C80.7014 147.667 80.8827 146.883 81.2454 146.2C81.6187 145.517 82.12 144.989 82.7494 144.616C83.3894 144.232 84.0934 144.04 84.8614 144.04C85.5547 144.04 86.1574 144.179 86.6694 144.456C87.192 144.723 87.608 145.059 87.9174 145.464V144.184H89.7574V153H87.9174V151.688C87.608 152.104 87.1867 152.451 86.6534 152.728C86.12 153.005 85.512 153.144 84.8294 153.144C84.072 153.144 83.3787 152.952 82.7494 152.568C82.12 152.173 81.6187 151.629 81.2454 150.936C80.8827 150.232 80.7014 149.437 80.7014 148.552ZM87.9174 148.584C87.9174 147.976 87.7894 147.448 87.5334 147C87.288 146.552 86.9627 146.211 86.5574 145.976C86.152 145.741 85.7147 145.624 85.2454 145.624C84.776 145.624 84.3387 145.741 83.9334 145.976C83.528 146.2 83.1974 146.536 82.9414 146.984C82.696 147.421 82.5734 147.944 82.5734 148.552C82.5734 149.16 82.696 149.693 82.9414 150.152C83.1974 150.611 83.528 150.963 83.9334 151.208C84.3494 151.443 84.7867 151.56 85.2454 151.56C85.7147 151.56 86.152 151.443 86.5574 151.208C86.9627 150.973 87.288 150.632 87.5334 150.184C87.7894 149.725 87.9174 149.192 87.9174 148.584ZM91.5451 148.584C91.5451 147.677 91.7265 146.883 92.0891 146.2C92.4625 145.507 92.9745 144.973 93.6251 144.6C94.2758 144.227 95.0225 144.04 95.8651 144.04C96.9318 144.04 97.8118 144.296 98.5051 144.808C99.2091 145.309 99.6838 146.029 99.9291 146.968H97.9611C97.8011 146.531 97.5451 146.189 97.1931 145.944C96.8411 145.699 96.3985 145.576 95.8651 145.576C95.1185 145.576 94.5211 145.843 94.0731 146.376C93.6358 146.899 93.4171 147.635 93.4171 148.584C93.4171 149.533 93.6358 150.275 94.0731 150.808C94.5211 151.341 95.1185 151.608 95.8651 151.608C96.9211 151.608 97.6198 151.144 97.9611 150.216H99.9291C99.6731 151.112 99.1931 151.827 98.4891 152.36C97.7851 152.883 96.9105 153.144 95.8651 153.144C95.0225 153.144 94.2758 152.957 93.6251 152.584C92.9745 152.2 92.4625 151.667 92.0891 150.984C91.7265 150.291 91.5451 149.491 91.5451 148.584ZM106.307 144.04C106.979 144.04 107.576 144.184 108.099 144.472C108.632 144.76 109.048 145.187 109.347 145.752C109.656 146.317 109.811 147 109.811 147.8V153H108.003V148.072C108.003 147.283 107.806 146.68 107.411 146.264C107.016 145.837 106.478 145.624 105.795 145.624C105.112 145.624 104.568 145.837 104.163 146.264C103.768 146.68 103.571 147.283 103.571 148.072V153H101.747V141.16H103.571V145.208C103.88 144.835 104.27 144.547 104.739 144.344C105.219 144.141 105.742 144.04 106.307 144.04ZM113.066 143.016C112.735 143.016 112.458 142.904 112.234 142.68C112.01 142.456 111.898 142.179 111.898 141.848C111.898 141.517 112.01 141.24 112.234 141.016C112.458 140.792 112.735 140.68 113.066 140.68C113.386 140.68 113.658 140.792 113.882 141.016C114.106 141.24 114.218 141.517 114.218 141.848C114.218 142.179 114.106 142.456 113.882 142.68C113.658 142.904 113.386 143.016 113.066 143.016ZM113.962 144.184V153H112.138V144.184H113.962ZM120.804 144.04C121.498 144.04 122.116 144.184 122.66 144.472C123.215 144.76 123.647 145.187 123.956 145.752C124.266 146.317 124.42 147 124.42 147.8V153H122.612V148.072C122.612 147.283 122.415 146.68 122.02 146.264C121.626 145.837 121.087 145.624 120.404 145.624C119.722 145.624 119.178 145.837 118.772 146.264C118.378 146.68 118.18 147.283 118.18 148.072V153H116.356V144.184H118.18V145.192C118.479 144.829 118.858 144.547 119.316 144.344C119.786 144.141 120.282 144.04 120.804 144.04ZM134.827 148.376C134.827 148.707 134.806 149.005 134.763 149.272H128.027C128.08 149.976 128.342 150.541 128.811 150.968C129.28 151.395 129.856 151.608 130.539 151.608C131.52 151.608 132.214 151.197 132.619 150.376H134.587C134.32 151.187 133.835 151.853 133.131 152.376C132.438 152.888 131.574 153.144 130.539 153.144C129.696 153.144 128.939 152.957 128.267 152.584C127.606 152.2 127.083 151.667 126.699 150.984C126.326 150.291 126.139 149.491 126.139 148.584C126.139 147.677 126.32 146.883 126.683 146.2C127.056 145.507 127.574 144.973 128.235 144.6C128.907 144.227 129.675 144.04 130.539 144.04C131.371 144.04 132.112 144.221 132.763 144.584C133.414 144.947 133.92 145.459 134.283 146.12C134.646 146.771 134.827 147.523 134.827 148.376ZM132.923 147.8C132.912 147.128 132.672 146.589 132.203 146.184C131.734 145.779 131.152 145.576 130.459 145.576C129.83 145.576 129.291 145.779 128.843 146.184C128.395 146.579 128.128 147.117 128.043 147.8H132.923ZM142.602 151.528H146.362V153H140.778V141.88H142.602V151.528ZM155.968 148.376C155.968 148.707 155.946 149.005 155.904 149.272H149.168C149.221 149.976 149.482 150.541 149.952 150.968C150.421 151.395 150.997 151.608 151.68 151.608C152.661 151.608 153.354 151.197 153.76 150.376H155.728C155.461 151.187 154.976 151.853 154.272 152.376C153.578 152.888 152.714 153.144 151.68 153.144C150.837 153.144 150.08 152.957 149.408 152.584C148.746 152.2 148.224 151.667 147.84 150.984C147.466 150.291 147.28 149.491 147.28 148.584C147.28 147.677 147.461 146.883 147.824 146.2C148.197 145.507 148.714 144.973 149.376 144.6C150.048 144.227 150.816 144.04 151.68 144.04C152.512 144.04 153.253 144.221 153.904 144.584C154.554 144.947 155.061 145.459 155.424 146.12C155.786 146.771 155.968 147.523 155.968 148.376ZM154.064 147.8C154.053 147.128 153.813 146.589 153.344 146.184C152.874 145.779 152.293 145.576 151.6 145.576C150.97 145.576 150.432 145.779 149.984 146.184C149.536 146.579 149.269 147.117 149.184 147.8H154.064ZM157.155 148.552C157.155 147.667 157.336 146.883 157.699 146.2C158.072 145.517 158.573 144.989 159.203 144.616C159.843 144.232 160.547 144.04 161.315 144.04C162.008 144.04 162.611 144.179 163.123 144.456C163.645 144.723 164.061 145.059 164.371 145.464V144.184H166.211V153H164.371V151.688C164.061 152.104 163.64 152.451 163.107 152.728C162.573 153.005 161.965 153.144 161.283 153.144C160.525 153.144 159.832 152.952 159.203 152.568C158.573 152.173 158.072 151.629 157.699 150.936C157.336 150.232 157.155 149.437 157.155 148.552ZM164.371 148.584C164.371 147.976 164.243 147.448 163.987 147C163.741 146.552 163.416 146.211 163.011 145.976C162.605 145.741 162.168 145.624 161.699 145.624C161.229 145.624 160.792 145.741 160.387 145.976C159.981 146.2 159.651 146.536 159.395 146.984C159.149 147.421 159.027 147.944 159.027 148.552C159.027 149.16 159.149 149.693 159.395 150.152C159.651 150.611 159.981 150.963 160.387 151.208C160.803 151.443 161.24 151.56 161.699 151.56C162.168 151.56 162.605 151.443 163.011 151.208C163.416 150.973 163.741 150.632 163.987 150.184C164.243 149.725 164.371 149.192 164.371 148.584ZM170.43 145.464C170.697 145.016 171.049 144.669 171.486 144.424C171.934 144.168 172.462 144.04 173.07 144.04V145.928H172.606C171.892 145.928 171.348 146.109 170.974 146.472C170.612 146.835 170.43 147.464 170.43 148.36V153H168.606V144.184H170.43V145.464ZM179.195 144.04C179.888 144.04 180.507 144.184 181.051 144.472C181.606 144.76 182.038 145.187 182.347 145.752C182.656 146.317 182.811 147 182.811 147.8V153H181.003V148.072C181.003 147.283 180.806 146.68 180.411 146.264C180.016 145.837 179.478 145.624 178.795 145.624C178.112 145.624 177.568 145.837 177.163 146.264C176.768 146.68 176.571 147.283 176.571 148.072V153H174.747V144.184H176.571V145.192C176.87 144.829 177.248 144.547 177.707 144.344C178.176 144.141 178.672 144.04 179.195 144.04ZM186.066 143.016C185.735 143.016 185.458 142.904 185.234 142.68C185.01 142.456 184.898 142.179 184.898 141.848C184.898 141.517 185.01 141.24 185.234 141.016C185.458 140.792 185.735 140.68 186.066 140.68C186.386 140.68 186.658 140.792 186.882 141.016C187.106 141.24 187.218 141.517 187.218 141.848C187.218 142.179 187.106 142.456 186.882 142.68C186.658 142.904 186.386 143.016 186.066 143.016ZM186.962 144.184V153H185.138V144.184H186.962ZM193.804 144.04C194.498 144.04 195.116 144.184 195.66 144.472C196.215 144.76 196.647 145.187 196.956 145.752C197.266 146.317 197.42 147 197.42 147.8V153H195.612V148.072C195.612 147.283 195.415 146.68 195.02 146.264C194.626 145.837 194.087 145.624 193.404 145.624C192.722 145.624 192.178 145.837 191.772 146.264C191.378 146.68 191.18 147.283 191.18 148.072V153H189.356V144.184H191.18V145.192C191.479 144.829 191.858 144.547 192.316 144.344C192.786 144.141 193.282 144.04 193.804 144.04ZM203.299 144.04C203.982 144.04 204.584 144.179 205.107 144.456C205.64 144.723 206.056 145.059 206.355 145.464V144.184H208.195V153.144C208.195 153.955 208.024 154.675 207.683 155.304C207.342 155.944 206.846 156.445 206.195 156.808C205.555 157.171 204.787 157.352 203.891 157.352C202.696 157.352 201.704 157.069 200.915 156.504C200.126 155.949 199.678 155.192 199.571 154.232H201.379C201.518 154.691 201.811 155.059 202.259 155.336C202.718 155.624 203.262 155.768 203.891 155.768C204.627 155.768 205.219 155.544 205.667 155.096C206.126 154.648 206.355 153.997 206.355 153.144V151.672C206.046 152.088 205.624 152.44 205.091 152.728C204.568 153.005 203.971 153.144 203.299 153.144C202.531 153.144 201.827 152.952 201.187 152.568C200.558 152.173 200.056 151.629 199.683 150.936C199.32 150.232 199.139 149.437 199.139 148.552C199.139 147.667 199.32 146.883 199.683 146.2C200.056 145.517 200.558 144.989 201.187 144.616C201.827 144.232 202.531 144.04 203.299 144.04ZM206.355 148.584C206.355 147.976 206.227 147.448 205.971 147C205.726 146.552 205.4 146.211 204.995 145.976C204.59 145.741 204.152 145.624 203.683 145.624C203.214 145.624 202.776 145.741 202.371 145.976C201.966 146.2 201.635 146.536 201.379 146.984C201.134 147.421 201.011 147.944 201.011 148.552C201.011 149.16 201.134 149.693 201.379 150.152C201.635 150.611 201.966 150.963 202.371 151.208C202.787 151.443 203.224 151.56 203.683 151.56C204.152 151.56 204.59 151.443 204.995 151.208C205.4 150.973 205.726 150.632 205.971 150.184C206.227 149.725 206.355 149.192 206.355 148.584Z" fill="#15192C"/>
<path d="M67.5181 185.563C67.5901 184.447 68.0161 183.577 68.7961 182.953C69.5881 182.329 70.5961 182.017 71.8201 182.017C72.6601 182.017 73.3861 182.167 73.9981 182.467C74.6101 182.767 75.0721 183.175 75.3841 183.691C75.6961 184.207 75.8521 184.789 75.8521 185.437C75.8521 186.181 75.6541 186.817 75.2581 187.345C74.8621 187.873 74.3881 188.227 73.8361 188.407V188.479C74.5441 188.695 75.0961 189.091 75.4921 189.667C75.8881 190.231 76.0861 190.957 76.0861 191.845C76.0861 192.553 75.9241 193.183 75.6001 193.735C75.2761 194.287 74.7961 194.725 74.1601 195.049C73.5241 195.361 72.7621 195.517 71.8741 195.517C70.5781 195.517 69.5101 195.187 68.6701 194.527C67.8421 193.855 67.3981 192.895 67.3381 191.647H69.3181C69.3661 192.283 69.6121 192.805 70.0561 193.213C70.5001 193.609 71.1001 193.807 71.8561 193.807C72.5881 193.807 73.1521 193.609 73.5481 193.213C73.9441 192.805 74.1421 192.283 74.1421 191.647C74.1421 190.807 73.8721 190.213 73.3321 189.865C72.8041 189.505 71.9881 189.325 70.8841 189.325H70.4161V187.633H70.9021C71.8741 187.621 72.6121 187.459 73.1161 187.147C73.6321 186.835 73.8901 186.343 73.8901 185.671C73.8901 185.095 73.7041 184.639 73.3321 184.303C72.9601 183.955 72.4321 183.781 71.7481 183.781C71.0761 183.781 70.5541 183.955 70.1821 184.303C69.8101 184.639 69.5881 185.059 69.5161 185.563H67.5181ZM85.2976 185.365C85.1656 184.813 84.9256 184.399 84.5776 184.123C84.2296 183.847 83.7436 183.709 83.1196 183.709C82.1716 183.709 81.4636 184.075 80.9956 184.807C80.5276 185.527 80.2816 186.727 80.2576 188.407C80.5696 187.879 81.0256 187.471 81.6256 187.183C82.2256 186.895 82.8736 186.751 83.5696 186.751C84.3616 186.751 85.0576 186.925 85.6576 187.273C86.2696 187.609 86.7436 188.101 87.0796 188.749C87.4276 189.397 87.6016 190.171 87.6016 191.071C87.6016 191.911 87.4336 192.661 87.0976 193.321C86.7736 193.981 86.2876 194.503 85.6396 194.887C84.9916 195.259 84.2116 195.445 83.2996 195.445C82.0636 195.445 81.0916 195.175 80.3836 194.635C79.6876 194.083 79.1956 193.309 78.9076 192.313C78.6316 191.317 78.4936 190.075 78.4936 188.587C78.4936 184.195 80.0416 181.999 83.1376 181.999C84.3376 181.999 85.2796 182.323 85.9636 182.971C86.6596 183.619 87.0676 184.417 87.1876 185.365H85.2976ZM83.1196 188.479C82.3876 188.479 81.7636 188.701 81.2476 189.145C80.7436 189.577 80.4916 190.207 80.4916 191.035C80.4916 191.863 80.7256 192.523 81.1936 193.015C81.6736 193.495 82.3396 193.735 83.1916 193.735C83.9476 193.735 84.5416 193.501 84.9736 193.033C85.4176 192.565 85.6396 191.941 85.6396 191.161C85.6396 190.345 85.4236 189.697 84.9916 189.217C84.5716 188.725 83.9476 188.479 83.1196 188.479ZM89.4665 185.491C89.4665 184.615 89.7185 183.931 90.2225 183.439C90.7385 182.935 91.3985 182.683 92.2025 182.683C93.0065 182.683 93.6605 182.935 94.1645 183.439C94.6805 183.931 94.9385 184.615 94.9385 185.491C94.9385 186.367 94.6805 187.057 94.1645 187.561C93.6605 188.065 93.0065 188.317 92.2025 188.317C91.3985 188.317 90.7385 188.065 90.2225 187.561C89.7185 187.057 89.4665 186.367 89.4665 185.491ZM100.446 182.917L93.2645 195.445H91.2485L98.4305 182.917H100.446ZM92.2025 183.925C91.4465 183.925 91.0685 184.447 91.0685 185.491C91.0685 186.547 91.4465 187.075 92.2025 187.075C92.5625 187.075 92.8385 186.949 93.0305 186.697C93.2345 186.433 93.3365 186.031 93.3365 185.491C93.3365 184.447 92.9585 183.925 92.2025 183.925ZM96.7925 192.853C96.7925 191.977 97.0445 191.293 97.5485 190.801C98.0645 190.297 98.7245 190.045 99.5285 190.045C100.32 190.045 100.968 190.297 101.472 190.801C101.988 191.293 102.246 191.977 102.246 192.853C102.246 193.729 101.988 194.419 101.472 194.923C100.968 195.427 100.32 195.679 99.5285 195.679C98.7245 195.679 98.0645 195.427 97.5485 194.923C97.0445 194.419 96.7925 193.729 96.7925 192.853ZM99.5105 191.287C98.7545 191.287 98.3765 191.809 98.3765 192.853C98.3765 193.897 98.7545 194.419 99.5105 194.419C100.266 194.419 100.644 193.897 100.644 192.853C100.644 191.809 100.266 191.287 99.5105 191.287Z" fill="#15192C"/>
<ellipse cx="43.0682" cy="148.751" rx="6.06822" ry="5.6623" fill="#FD2254"/>
<path d="M81.68 262.917L78.384 274.037H76.32L73.984 265.621L71.504 274.037L69.456 274.053L66.304 262.917H68.24L70.544 271.973L73.04 262.917H75.088L77.408 271.925L79.728 262.917H81.68ZM91.2644 269.413C91.2644 269.743 91.243 270.042 91.2004 270.309H84.4644C84.5177 271.013 84.779 271.578 85.2484 272.005C85.7177 272.431 86.2937 272.645 86.9764 272.645C87.9577 272.645 88.651 272.234 89.0564 271.413H91.0244C90.7577 272.223 90.2724 272.89 89.5684 273.413C88.875 273.925 88.011 274.181 86.9764 274.181C86.1337 274.181 85.3764 273.994 84.7044 273.621C84.043 273.237 83.5204 272.703 83.1364 272.021C82.763 271.327 82.5764 270.527 82.5764 269.621C82.5764 268.714 82.7577 267.919 83.1204 267.237C83.4937 266.543 84.011 266.01 84.6724 265.637C85.3444 265.263 86.1124 265.077 86.9764 265.077C87.8084 265.077 88.5497 265.258 89.2004 265.621C89.851 265.983 90.3577 266.495 90.7204 267.157C91.083 267.807 91.2644 268.559 91.2644 269.413ZM89.3604 268.837C89.3497 268.165 89.1097 267.626 88.6404 267.221C88.171 266.815 87.5897 266.613 86.8964 266.613C86.267 266.613 85.7284 266.815 85.2804 267.221C84.8324 267.615 84.5657 268.154 84.4804 268.837H89.3604ZM94.8834 266.533C95.1927 266.106 95.614 265.759 96.1474 265.493C96.6914 265.215 97.294 265.077 97.9554 265.077C98.734 265.077 99.438 265.263 100.067 265.637C100.697 266.01 101.193 266.543 101.555 267.237C101.918 267.919 102.099 268.703 102.099 269.589C102.099 270.474 101.918 271.269 101.555 271.973C101.193 272.666 100.691 273.21 100.051 273.605C99.422 273.989 98.7234 274.181 97.9554 274.181C97.2727 274.181 96.6647 274.047 96.1314 273.781C95.6087 273.514 95.1927 273.173 94.8834 272.757V274.037H93.0594V262.197H94.8834V266.533ZM100.243 269.589C100.243 268.981 100.115 268.458 99.8594 268.021C99.614 267.573 99.2834 267.237 98.8674 267.013C98.462 266.778 98.0247 266.661 97.5554 266.661C97.0967 266.661 96.6594 266.778 96.2434 267.013C95.838 267.247 95.5074 267.589 95.2514 268.037C95.006 268.485 94.8834 269.013 94.8834 269.621C94.8834 270.229 95.006 270.762 95.2514 271.221C95.5074 271.669 95.838 272.01 96.2434 272.245C96.6594 272.479 97.0967 272.597 97.5554 272.597C98.0247 272.597 98.462 272.479 98.8674 272.245C99.2834 271.999 99.614 271.647 99.8594 271.189C100.115 270.73 100.243 270.197 100.243 269.589ZM110.671 267.477V269.013H104.095V267.477H110.671ZM116.895 262.917C118.079 262.917 119.113 263.146 119.999 263.605C120.895 264.053 121.583 264.703 122.063 265.557C122.553 266.399 122.799 267.386 122.799 268.517C122.799 269.647 122.553 270.629 122.063 271.461C121.583 272.293 120.895 272.933 119.999 273.381C119.113 273.818 118.079 274.037 116.895 274.037H113.263V262.917H116.895ZM116.895 272.549C118.196 272.549 119.193 272.197 119.887 271.493C120.58 270.789 120.927 269.797 120.927 268.517C120.927 267.226 120.58 266.218 119.887 265.493C119.193 264.767 118.196 264.405 116.895 264.405H115.087V272.549H116.895ZM132.686 269.413C132.686 269.743 132.665 270.042 132.622 270.309H125.886C125.94 271.013 126.201 271.578 126.67 272.005C127.14 272.431 127.716 272.645 128.398 272.645C129.38 272.645 130.073 272.234 130.478 271.413H132.446C132.18 272.223 131.694 272.89 130.99 273.413C130.297 273.925 129.433 274.181 128.398 274.181C127.556 274.181 126.798 273.994 126.126 273.621C125.465 273.237 124.942 272.703 124.558 272.021C124.185 271.327 123.998 270.527 123.998 269.621C123.998 268.714 124.18 267.919 124.542 267.237C124.916 266.543 125.433 266.01 126.094 265.637C126.766 265.263 127.534 265.077 128.398 265.077C129.23 265.077 129.972 265.258 130.622 265.621C131.273 265.983 131.78 266.495 132.142 267.157C132.505 267.807 132.686 268.559 132.686 269.413ZM130.782 268.837C130.772 268.165 130.532 267.626 130.062 267.221C129.593 266.815 129.012 266.613 128.318 266.613C127.689 266.613 127.15 266.815 126.702 267.221C126.254 267.615 125.988 268.154 125.902 268.837H130.782ZM137.889 272.405L140.385 265.221H142.321L138.961 274.037H136.785L133.441 265.221H135.393L137.889 272.405ZM151.78 269.413C151.78 269.743 151.759 270.042 151.716 270.309H144.98C145.033 271.013 145.295 271.578 145.764 272.005C146.233 272.431 146.809 272.645 147.492 272.645C148.473 272.645 149.167 272.234 149.572 271.413H151.54C151.273 272.223 150.788 272.89 150.084 273.413C149.391 273.925 148.527 274.181 147.492 274.181C146.649 274.181 145.892 273.994 145.22 273.621C144.559 273.237 144.036 272.703 143.652 272.021C143.279 271.327 143.092 270.527 143.092 269.621C143.092 268.714 143.273 267.919 143.636 267.237C144.009 266.543 144.527 266.01 145.188 265.637C145.86 265.263 146.628 265.077 147.492 265.077C148.324 265.077 149.065 265.258 149.716 265.621C150.367 265.983 150.873 266.495 151.236 267.157C151.599 267.807 151.78 268.559 151.78 269.413ZM149.876 268.837C149.865 268.165 149.625 267.626 149.156 267.221C148.687 266.815 148.105 266.613 147.412 266.613C146.783 266.613 146.244 266.815 145.796 267.221C145.348 267.615 145.081 268.154 144.996 268.837H149.876ZM155.399 262.197V274.037H153.575V262.197H155.399ZM161.618 274.181C160.786 274.181 160.034 273.994 159.362 273.621C158.69 273.237 158.162 272.703 157.778 272.021C157.394 271.327 157.202 270.527 157.202 269.621C157.202 268.725 157.399 267.93 157.794 267.237C158.188 266.543 158.727 266.01 159.41 265.637C160.092 265.263 160.855 265.077 161.698 265.077C162.54 265.077 163.303 265.263 163.986 265.637C164.668 266.01 165.207 266.543 165.602 267.237C165.996 267.93 166.194 268.725 166.194 269.621C166.194 270.517 165.991 271.311 165.586 272.005C165.18 272.698 164.626 273.237 163.922 273.621C163.228 273.994 162.46 274.181 161.618 274.181ZM161.618 272.597C162.087 272.597 162.524 272.485 162.93 272.261C163.346 272.037 163.682 271.701 163.938 271.253C164.194 270.805 164.322 270.261 164.322 269.621C164.322 268.981 164.199 268.442 163.954 268.005C163.708 267.557 163.383 267.221 162.978 266.997C162.572 266.773 162.135 266.661 161.666 266.661C161.196 266.661 160.759 266.773 160.354 266.997C159.959 267.221 159.644 267.557 159.41 268.005C159.175 268.442 159.058 268.981 159.058 269.621C159.058 270.57 159.298 271.306 159.778 271.829C160.268 272.341 160.882 272.597 161.618 272.597ZM169.821 266.517C170.13 266.111 170.552 265.77 171.085 265.493C171.618 265.215 172.221 265.077 172.893 265.077C173.661 265.077 174.36 265.269 174.989 265.653C175.629 266.026 176.13 266.554 176.493 267.237C176.856 267.919 177.037 268.703 177.037 269.589C177.037 270.474 176.856 271.269 176.493 271.973C176.13 272.666 175.629 273.21 174.989 273.605C174.36 273.989 173.661 274.181 172.893 274.181C172.221 274.181 171.624 274.047 171.101 273.781C170.578 273.503 170.152 273.162 169.821 272.757V278.229H167.997V265.221H169.821V266.517ZM175.181 269.589C175.181 268.981 175.053 268.458 174.797 268.021C174.552 267.573 174.221 267.237 173.805 267.013C173.4 266.778 172.962 266.661 172.493 266.661C172.034 266.661 171.597 266.778 171.181 267.013C170.776 267.247 170.445 267.589 170.189 268.037C169.944 268.485 169.821 269.013 169.821 269.621C169.821 270.229 169.944 270.762 170.189 271.221C170.445 271.669 170.776 272.01 171.181 272.245C171.597 272.479 172.034 272.597 172.493 272.597C172.962 272.597 173.4 272.479 173.805 272.245C174.221 271.999 174.552 271.647 174.797 271.189C175.053 270.73 175.181 270.197 175.181 269.589ZM189.513 265.077C190.206 265.077 190.825 265.221 191.369 265.509C191.923 265.797 192.355 266.223 192.665 266.789C192.985 267.354 193.145 268.037 193.145 268.837V274.037H191.337V269.109C191.337 268.319 191.139 267.717 190.745 267.301C190.35 266.874 189.811 266.661 189.129 266.661C188.446 266.661 187.902 266.874 187.497 267.301C187.102 267.717 186.905 268.319 186.905 269.109V274.037H185.097V269.109C185.097 268.319 184.899 267.717 184.505 267.301C184.11 266.874 183.571 266.661 182.889 266.661C182.206 266.661 181.662 266.874 181.257 267.301C180.862 267.717 180.665 268.319 180.665 269.109V274.037H178.841V265.221H180.665V266.229C180.963 265.866 181.342 265.583 181.801 265.381C182.259 265.178 182.75 265.077 183.273 265.077C183.977 265.077 184.606 265.226 185.161 265.525C185.715 265.823 186.142 266.255 186.441 266.821C186.707 266.287 187.123 265.866 187.689 265.557C188.254 265.237 188.862 265.077 189.513 265.077ZM203.546 269.413C203.546 269.743 203.524 270.042 203.482 270.309H196.746C196.799 271.013 197.06 271.578 197.53 272.005C197.999 272.431 198.575 272.645 199.258 272.645C200.239 272.645 200.932 272.234 201.338 271.413H203.306C203.039 272.223 202.554 272.89 201.85 273.413C201.156 273.925 200.292 274.181 199.258 274.181C198.415 274.181 197.658 273.994 196.986 273.621C196.324 273.237 195.802 272.703 195.418 272.021C195.044 271.327 194.858 270.527 194.858 269.621C194.858 268.714 195.039 267.919 195.402 267.237C195.775 266.543 196.292 266.01 196.954 265.637C197.626 265.263 198.394 265.077 199.258 265.077C200.09 265.077 200.831 265.258 201.482 265.621C202.132 265.983 202.639 266.495 203.002 267.157C203.364 267.807 203.546 268.559 203.546 269.413ZM201.642 268.837C201.631 268.165 201.391 267.626 200.922 267.221C200.452 266.815 199.871 266.613 199.178 266.613C198.548 266.613 198.01 266.815 197.562 267.221C197.114 267.615 196.847 268.154 196.762 268.837H201.642ZM209.789 265.077C210.482 265.077 211.101 265.221 211.645 265.509C212.199 265.797 212.631 266.223 212.941 266.789C213.25 267.354 213.405 268.037 213.405 268.837V274.037H211.597V269.109C211.597 268.319 211.399 267.717 211.005 267.301C210.61 266.874 210.071 266.661 209.389 266.661C208.706 266.661 208.162 266.874 207.757 267.301C207.362 267.717 207.165 268.319 207.165 269.109V274.037H205.341V265.221H207.165V266.229C207.463 265.866 207.842 265.583 208.301 265.381C208.77 265.178 209.266 265.077 209.789 265.077ZM217.859 266.709V271.589C217.859 271.919 217.934 272.159 218.083 272.309C218.243 272.447 218.51 272.517 218.883 272.517H220.003V274.037H218.563C217.742 274.037 217.113 273.845 216.675 273.461C216.238 273.077 216.019 272.453 216.019 271.589V266.709H214.979V265.221H216.019V263.029H217.859V265.221H220.003V266.709H217.859Z" fill="#15192C"/>
<path d="M67.5541 306.78C67.6381 305.676 68.0641 304.812 68.8321 304.188C69.6001 303.564 70.5961 303.252 71.8201 303.252C72.6361 303.252 73.3381 303.402 73.9261 303.702C74.5261 303.99 74.9761 304.386 75.2761 304.89C75.5881 305.394 75.7441 305.964 75.7441 306.6C75.7441 307.344 75.5281 307.986 75.0961 308.526C74.6761 309.066 74.1241 309.414 73.4401 309.57V309.66C74.2201 309.852 74.8381 310.23 75.2941 310.794C75.7501 311.358 75.9781 312.096 75.9781 313.008C75.9781 313.692 75.8221 314.31 75.5101 314.862C75.1981 315.402 74.7301 315.828 74.1061 316.14C73.4821 316.452 72.7321 316.608 71.8561 316.608C70.5841 316.608 69.5401 316.278 68.7241 315.618C67.9081 314.946 67.4521 313.998 67.3561 312.774H68.9401C69.0241 313.494 69.3181 314.082 69.8221 314.538C70.3261 314.994 70.9981 315.222 71.8381 315.222C72.6781 315.222 73.3141 315.006 73.7461 314.574C74.1901 314.13 74.4121 313.56 74.4121 312.864C74.4121 311.964 74.1121 311.316 73.5121 310.92C72.9121 310.524 72.0061 310.326 70.7941 310.326H70.3801V308.958H70.8121C71.9161 308.946 72.7501 308.766 73.3141 308.418C73.8781 308.058 74.1601 307.506 74.1601 306.762C74.1601 306.126 73.9501 305.616 73.5301 305.232C73.1221 304.848 72.5341 304.656 71.7661 304.656C71.0221 304.656 70.4221 304.848 69.9661 305.232C69.5101 305.616 69.2401 306.132 69.1561 306.78H67.5541ZM80.5657 309.75C79.8937 309.486 79.3777 309.102 79.0177 308.598C78.6577 308.094 78.4777 307.482 78.4777 306.762C78.4777 306.114 78.6397 305.532 78.9637 305.016C79.2877 304.488 79.7677 304.074 80.4037 303.774C81.0517 303.462 81.8317 303.306 82.7437 303.306C83.6557 303.306 84.4297 303.462 85.0657 303.774C85.7137 304.074 86.1997 304.488 86.5237 305.016C86.8597 305.532 87.0277 306.114 87.0277 306.762C87.0277 307.458 86.8417 308.07 86.4697 308.598C86.0977 309.114 85.5877 309.498 84.9397 309.75C85.6837 309.978 86.2717 310.38 86.7037 310.956C87.1477 311.52 87.3697 312.204 87.3697 313.008C87.3697 313.788 87.1777 314.472 86.7937 315.06C86.4097 315.636 85.8637 316.086 85.1557 316.41C84.4597 316.722 83.6557 316.878 82.7437 316.878C81.8317 316.878 81.0277 316.722 80.3317 316.41C79.6477 316.086 79.1137 315.636 78.7297 315.06C78.3457 314.472 78.1537 313.788 78.1537 313.008C78.1537 312.204 78.3697 311.514 78.8017 310.938C79.2337 310.362 79.8217 309.966 80.5657 309.75ZM85.4437 306.96C85.4437 306.228 85.2037 305.664 84.7237 305.268C84.2437 304.872 83.5837 304.674 82.7437 304.674C81.9157 304.674 81.2617 304.872 80.7817 305.268C80.3017 305.664 80.0617 306.234 80.0617 306.978C80.0617 307.65 80.3077 308.19 80.7997 308.598C81.3037 309.006 81.9517 309.21 82.7437 309.21C83.5477 309.21 84.1957 309.006 84.6877 308.598C85.1917 308.178 85.4437 307.632 85.4437 306.96ZM82.7437 310.47C81.8557 310.47 81.1297 310.68 80.5657 311.1C80.0017 311.508 79.7197 312.126 79.7197 312.954C79.7197 313.722 79.9897 314.34 80.5297 314.808C81.0817 315.276 81.8197 315.51 82.7437 315.51C83.6677 315.51 84.3997 315.276 84.9397 314.808C85.4797 314.34 85.7497 313.722 85.7497 312.954C85.7497 312.15 85.4737 311.538 84.9217 311.118C84.3697 310.686 83.6437 310.47 82.7437 310.47ZM89.1852 306.438C89.1852 305.622 89.4312 304.974 89.9232 304.494C90.4152 304.002 91.0452 303.756 91.8132 303.756C92.5812 303.756 93.2112 304.002 93.7032 304.494C94.1952 304.974 94.4412 305.622 94.4412 306.438C94.4412 307.266 94.1952 307.926 93.7032 308.418C93.2112 308.898 92.5812 309.138 91.8132 309.138C91.0452 309.138 90.4152 308.898 89.9232 308.418C89.4312 307.926 89.1852 307.266 89.1852 306.438ZM99.6972 303.954L92.4072 316.518H90.7872L98.0772 303.954H99.6972ZM91.8132 304.764C91.4052 304.764 91.0812 304.908 90.8412 305.196C90.6132 305.472 90.4992 305.886 90.4992 306.438C90.4992 306.99 90.6132 307.41 90.8412 307.698C91.0812 307.986 91.4052 308.13 91.8132 308.13C92.2212 308.13 92.5452 307.986 92.7852 307.698C93.0252 307.398 93.1452 306.978 93.1452 306.438C93.1452 305.886 93.0252 305.472 92.7852 305.196C92.5452 304.908 92.2212 304.764 91.8132 304.764ZM96.0792 314.034C96.0792 313.206 96.3252 312.552 96.8172 312.072C97.3092 311.58 97.9392 311.334 98.7072 311.334C99.4752 311.334 100.099 311.58 100.579 312.072C101.071 312.552 101.317 313.206 101.317 314.034C101.317 314.85 101.071 315.504 100.579 315.996C100.099 316.488 99.4752 316.734 98.7072 316.734C97.9392 316.734 97.3092 316.494 96.8172 316.014C96.3252 315.522 96.0792 314.862 96.0792 314.034ZM98.6892 312.36C98.2812 312.36 97.9572 312.504 97.7172 312.792C97.4772 313.068 97.3572 313.482 97.3572 314.034C97.3572 314.574 97.4772 314.988 97.7172 315.276C97.9572 315.552 98.2812 315.69 98.6892 315.69C99.0972 315.69 99.4212 315.552 99.6612 315.276C99.9012 314.988 100.021 314.574 100.021 314.034C100.021 313.482 99.9012 313.068 99.6612 312.792C99.4212 312.504 99.0972 312.36 98.6892 312.36Z" fill="#15192C"/>
<ellipse cx="43.0682" cy="269.825" rx="6.06822" ry="5.6623" fill="#00B7FE"/>
<path d="M66.592 389.526C66.592 388.438 66.8427 387.462 67.344 386.598C67.856 385.734 68.544 385.062 69.408 384.582C70.2827 384.091 71.2373 383.846 72.272 383.846C73.456 383.846 74.5067 384.139 75.424 384.726C76.352 385.302 77.024 386.123 77.44 387.19H75.248C74.96 386.603 74.56 386.166 74.048 385.878C73.536 385.59 72.944 385.446 72.272 385.446C71.536 385.446 70.88 385.611 70.304 385.942C69.728 386.273 69.2747 386.747 68.944 387.366C68.624 387.985 68.464 388.705 68.464 389.526C68.464 390.347 68.624 391.067 68.944 391.686C69.2747 392.305 69.728 392.785 70.304 393.126C70.88 393.457 71.536 393.622 72.272 393.622C72.944 393.622 73.536 393.478 74.048 393.19C74.56 392.902 74.96 392.465 75.248 391.878H77.44C77.024 392.945 76.352 393.766 75.424 394.342C74.5067 394.918 73.456 395.206 72.272 395.206C71.2267 395.206 70.272 394.966 69.408 394.486C68.544 393.995 67.856 393.318 67.344 392.454C66.8427 391.59 66.592 390.614 66.592 389.526ZM87.511 386.294L82.103 399.254H80.215L82.007 394.966L78.535 386.294H80.567L83.047 393.014L85.623 386.294H87.511ZM90.7115 387.606C91.0208 387.179 91.4422 386.833 91.9755 386.566C92.5195 386.289 93.1222 386.15 93.7835 386.15C94.5622 386.15 95.2662 386.337 95.8955 386.71C96.5248 387.083 97.0208 387.617 97.3835 388.31C97.7462 388.993 97.9275 389.777 97.9275 390.662C97.9275 391.547 97.7462 392.342 97.3835 393.046C97.0208 393.739 96.5195 394.283 95.8795 394.678C95.2502 395.062 94.5515 395.254 93.7835 395.254C93.1008 395.254 92.4928 395.121 91.9595 394.854C91.4368 394.587 91.0208 394.246 90.7115 393.83V395.11H88.8875V383.27H90.7115V387.606ZM96.0715 390.662C96.0715 390.054 95.9435 389.531 95.6875 389.094C95.4422 388.646 95.1115 388.31 94.6955 388.086C94.2902 387.851 93.8528 387.734 93.3835 387.734C92.9248 387.734 92.4875 387.851 92.0715 388.086C91.6662 388.321 91.3355 388.662 91.0795 389.11C90.8342 389.558 90.7115 390.086 90.7115 390.694C90.7115 391.302 90.8342 391.835 91.0795 392.294C91.3355 392.742 91.6662 393.083 92.0715 393.318C92.4875 393.553 92.9248 393.67 93.3835 393.67C93.8528 393.67 94.2902 393.553 94.6955 393.318C95.1115 393.073 95.4422 392.721 95.6875 392.262C95.9435 391.803 96.0715 391.27 96.0715 390.662ZM107.811 390.486C107.811 390.817 107.79 391.115 107.747 391.382H101.011C101.065 392.086 101.326 392.651 101.795 393.078C102.265 393.505 102.841 393.718 103.523 393.718C104.505 393.718 105.198 393.307 105.603 392.486H107.571C107.305 393.297 106.819 393.963 106.115 394.486C105.422 394.998 104.558 395.254 103.523 395.254C102.681 395.254 101.923 395.067 101.251 394.694C100.59 394.31 100.067 393.777 99.6833 393.094C99.3099 392.401 99.1233 391.601 99.1233 390.694C99.1233 389.787 99.3046 388.993 99.6673 388.31C100.041 387.617 100.558 387.083 101.219 386.71C101.891 386.337 102.659 386.15 103.523 386.15C104.355 386.15 105.097 386.331 105.747 386.694C106.398 387.057 106.905 387.569 107.267 388.23C107.63 388.881 107.811 389.633 107.811 390.486ZM105.907 389.91C105.897 389.238 105.657 388.699 105.187 388.294C104.718 387.889 104.137 387.686 103.443 387.686C102.814 387.686 102.275 387.889 101.827 388.294C101.379 388.689 101.113 389.227 101.027 389.91H105.907ZM111.43 387.574C111.697 387.126 112.049 386.779 112.486 386.534C112.934 386.278 113.462 386.15 114.07 386.15V388.038H113.606C112.892 388.038 112.348 388.219 111.974 388.582C111.612 388.945 111.43 389.574 111.43 390.47V395.11H109.606V386.294H111.43V387.574ZM123.567 395.222C122.82 395.222 122.148 395.094 121.551 394.838C120.954 394.571 120.484 394.198 120.143 393.718C119.802 393.238 119.631 392.678 119.631 392.038H121.583C121.626 392.518 121.812 392.913 122.143 393.222C122.484 393.531 122.959 393.686 123.567 393.686C124.196 393.686 124.687 393.537 125.039 393.238C125.391 392.929 125.567 392.534 125.567 392.054C125.567 391.681 125.455 391.377 125.231 391.142C125.018 390.907 124.746 390.726 124.415 390.598C124.095 390.47 123.647 390.331 123.071 390.182C122.346 389.99 121.754 389.798 121.295 389.606C120.847 389.403 120.463 389.094 120.143 388.678C119.823 388.262 119.663 387.707 119.663 387.014C119.663 386.374 119.823 385.814 120.143 385.334C120.463 384.854 120.911 384.486 121.487 384.23C122.063 383.974 122.73 383.846 123.487 383.846C124.564 383.846 125.444 384.118 126.127 384.662C126.82 385.195 127.204 385.931 127.279 386.87H125.263C125.231 386.465 125.039 386.118 124.687 385.83C124.335 385.542 123.871 385.398 123.295 385.398C122.772 385.398 122.346 385.531 122.015 385.798C121.684 386.065 121.519 386.449 121.519 386.95C121.519 387.291 121.62 387.574 121.823 387.798C122.036 388.011 122.303 388.182 122.623 388.31C122.943 388.438 123.38 388.577 123.935 388.726C124.671 388.929 125.268 389.131 125.727 389.334C126.196 389.537 126.591 389.851 126.911 390.278C127.242 390.694 127.407 391.254 127.407 391.958C127.407 392.523 127.252 393.057 126.943 393.558C126.644 394.059 126.202 394.465 125.615 394.774C125.039 395.073 124.356 395.222 123.567 395.222ZM137.639 390.486C137.639 390.817 137.618 391.115 137.575 391.382H130.839C130.893 392.086 131.154 392.651 131.623 393.078C132.093 393.505 132.669 393.718 133.351 393.718C134.333 393.718 135.026 393.307 135.431 392.486H137.399C137.133 393.297 136.647 393.963 135.943 394.486C135.25 394.998 134.386 395.254 133.351 395.254C132.509 395.254 131.751 395.067 131.079 394.694C130.418 394.31 129.895 393.777 129.511 393.094C129.138 392.401 128.951 391.601 128.951 390.694C128.951 389.787 129.133 388.993 129.495 388.31C129.869 387.617 130.386 387.083 131.047 386.71C131.719 386.337 132.487 386.15 133.351 386.15C134.183 386.15 134.925 386.331 135.575 386.694C136.226 387.057 136.733 387.569 137.095 388.23C137.458 388.881 137.639 389.633 137.639 390.486ZM135.735 389.91C135.725 389.238 135.485 388.699 135.015 388.294C134.546 387.889 133.965 387.686 133.271 387.686C132.642 387.686 132.103 387.889 131.655 388.294C131.207 388.689 130.941 389.227 130.855 389.91H135.735ZM138.826 390.694C138.826 389.787 139.008 388.993 139.37 388.31C139.744 387.617 140.256 387.083 140.906 386.71C141.557 386.337 142.304 386.15 143.146 386.15C144.213 386.15 145.093 386.406 145.786 386.918C146.49 387.419 146.965 388.139 147.21 389.078H145.242C145.082 388.641 144.826 388.299 144.474 388.054C144.122 387.809 143.68 387.686 143.146 387.686C142.4 387.686 141.802 387.953 141.354 388.486C140.917 389.009 140.698 389.745 140.698 390.694C140.698 391.643 140.917 392.385 141.354 392.918C141.802 393.451 142.4 393.718 143.146 393.718C144.202 393.718 144.901 393.254 145.242 392.326H147.21C146.954 393.222 146.474 393.937 145.77 394.47C145.066 394.993 144.192 395.254 143.146 395.254C142.304 395.254 141.557 395.067 140.906 394.694C140.256 394.31 139.744 393.777 139.37 393.094C139.008 392.401 138.826 391.601 138.826 390.694ZM157.012 386.294V395.11H155.188V394.07C154.9 394.433 154.521 394.721 154.052 394.934C153.593 395.137 153.103 395.238 152.58 395.238C151.887 395.238 151.263 395.094 150.708 394.806C150.164 394.518 149.732 394.091 149.412 393.526C149.103 392.961 148.948 392.278 148.948 391.478V386.294H150.756V391.206C150.756 391.995 150.953 392.603 151.348 393.03C151.743 393.446 152.281 393.654 152.964 393.654C153.647 393.654 154.185 393.446 154.58 393.03C154.985 392.603 155.188 391.995 155.188 391.206V386.294H157.012ZM161.243 387.574C161.509 387.126 161.861 386.779 162.299 386.534C162.747 386.278 163.275 386.15 163.883 386.15V388.038H163.419C162.704 388.038 162.16 388.219 161.787 388.582C161.424 388.945 161.243 389.574 161.243 390.47V395.11H159.419V386.294H161.243V387.574ZM166.487 385.126C166.157 385.126 165.879 385.014 165.655 384.79C165.431 384.566 165.319 384.289 165.319 383.958C165.319 383.627 165.431 383.35 165.655 383.126C165.879 382.902 166.157 382.79 166.487 382.79C166.807 382.79 167.079 382.902 167.303 383.126C167.527 383.35 167.639 383.627 167.639 383.958C167.639 384.289 167.527 384.566 167.303 384.79C167.079 385.014 166.807 385.126 166.487 385.126ZM167.383 386.294V395.11H165.559V386.294H167.383ZM171.906 387.782V392.662C171.906 392.993 171.981 393.233 172.13 393.382C172.29 393.521 172.557 393.59 172.93 393.59H174.05V395.11H172.61C171.789 395.11 171.159 394.918 170.722 394.534C170.285 394.15 170.066 393.526 170.066 392.662V387.782H169.026V386.294H170.066V384.102H171.906V386.294H174.05V387.782H171.906ZM183.667 386.294L178.259 399.254H176.371L178.163 394.966L174.691 386.294H176.723L179.203 393.014L181.779 386.294H183.667Z" fill="#15192C"/>
<path d="M68.6881 434.838C69.8401 433.842 70.7461 433.026 71.4061 432.39C72.0781 431.742 72.6361 431.07 73.0801 430.374C73.5241 429.678 73.7461 428.982 73.7461 428.286C73.7461 427.566 73.5721 427.002 73.2241 426.594C72.8881 426.186 72.3541 425.982 71.6221 425.982C70.9141 425.982 70.3621 426.21 69.9661 426.666C69.5821 427.11 69.3781 427.71 69.3541 428.466H67.3741C67.4101 427.098 67.8181 426.054 68.5981 425.334C69.3901 424.602 70.3921 424.236 71.6041 424.236C72.9121 424.236 73.9321 424.596 74.6641 425.316C75.4081 426.036 75.7801 426.996 75.7801 428.196C75.7801 429.06 75.5581 429.894 75.1141 430.698C74.6821 431.49 74.1601 432.204 73.5481 432.84C72.9481 433.464 72.1801 434.19 71.2441 435.018L70.4341 435.738H76.1401V437.448H67.3921V435.954L68.6881 434.838ZM86.4028 426.27H80.3728V429.852C80.6248 429.516 80.9968 429.234 81.4888 429.006C81.9928 428.778 82.5268 428.664 83.0908 428.664C84.0988 428.664 84.9148 428.88 85.5388 429.312C86.1748 429.744 86.6248 430.29 86.8888 430.95C87.1648 431.61 87.3028 432.306 87.3028 433.038C87.3028 433.926 87.1288 434.718 86.7808 435.414C86.4448 436.098 85.9348 436.638 85.2508 437.034C84.5788 437.43 83.7508 437.628 82.7668 437.628C81.4588 437.628 80.4088 437.304 79.6168 436.656C78.8248 436.008 78.3508 435.15 78.1948 434.082H80.1928C80.3248 434.646 80.6188 435.096 81.0748 435.432C81.5308 435.756 82.1008 435.918 82.7848 435.918C83.6368 435.918 84.2728 435.66 84.6928 435.144C85.1248 434.628 85.3408 433.944 85.3408 433.092C85.3408 432.228 85.1248 431.568 84.6928 431.112C84.2608 430.644 83.6248 430.41 82.7848 430.41C82.1968 430.41 81.6988 430.56 81.2908 430.86C80.8948 431.148 80.6068 431.544 80.4268 432.048H78.4828V424.47H86.4028V426.27ZM89.1149 427.674C89.1149 426.798 89.3669 426.114 89.8709 425.622C90.3869 425.118 91.0469 424.866 91.8509 424.866C92.6549 424.866 93.3089 425.118 93.8129 425.622C94.3289 426.114 94.5869 426.798 94.5869 427.674C94.5869 428.55 94.3289 429.24 93.8129 429.744C93.3089 430.248 92.6549 430.5 91.8509 430.5C91.0469 430.5 90.3869 430.248 89.8709 429.744C89.3669 429.24 89.1149 428.55 89.1149 427.674ZM100.095 425.1L92.9129 437.628H90.8969L98.0789 425.1H100.095ZM91.8509 426.108C91.0949 426.108 90.7169 426.63 90.7169 427.674C90.7169 428.73 91.0949 429.258 91.8509 429.258C92.2109 429.258 92.4869 429.132 92.6789 428.88C92.8829 428.616 92.9849 428.214 92.9849 427.674C92.9849 426.63 92.6069 426.108 91.8509 426.108ZM96.4409 435.036C96.4409 434.16 96.6929 433.476 97.1969 432.984C97.7129 432.48 98.3729 432.228 99.1769 432.228C99.9689 432.228 100.617 432.48 101.121 432.984C101.637 433.476 101.895 434.16 101.895 435.036C101.895 435.912 101.637 436.602 101.121 437.106C100.617 437.61 99.9689 437.862 99.1769 437.862C98.3729 437.862 97.7129 437.61 97.1969 437.106C96.6929 436.602 96.4409 435.912 96.4409 435.036ZM99.1589 433.47C98.4029 433.47 98.0249 433.992 98.0249 435.036C98.0249 436.08 98.4029 436.602 99.1589 436.602C99.9149 436.602 100.293 436.08 100.293 435.036C100.293 433.992 99.9149 433.47 99.1589 433.47Z" fill="#15192C"/>
<ellipse cx="43.0682" cy="390.934" rx="6.06822" ry="5.6623" fill="#D0D2DA"/>
</g>
<defs>
<filter id="filter0_d_3165_1015" x="0" y="0" width="561" height="486" filterUnits="userSpaceOnUse" color-interpolation-filters="sRGB">
<feFlood flood-opacity="0" result="BackgroundImageFix"/>
<feColorMatrix in="SourceAlpha" type="matrix" values="0 0 0 0 0 0 0 0 0 0 0 0 0 0 0 0 0 0 127 0" result="hardAlpha"/>
<feOffset dy="4"/>
<feGaussianBlur stdDeviation="2"/>
<feComposite in2="hardAlpha" operator="out"/>
<feColorMatrix type="matrix" values="0 0 0 0 0 0 0 0 0 0 0 0 0 0 0 0 0 0 0.25 0"/>
<feBlend mode="normal" in2="BackgroundImageFix" result="effect1_dropShadow_3165_1015"/>
<feBlend mode="normal" in="SourceGraphic" in2="effect1_dropShadow_3165_1015" result="shape"/>
</filter>
</defs>
</svg>
