<svg width="14" height="20" viewBox="0 0 14 20" fill="none" xmlns="http://www.w3.org/2000/svg">
<g clip-path="url(#clip0_2929_906)">
<path d="M13.998 5.94748L6.99755 2.97376L-0.000976562 5.94748V2.97376L6.99853 0L13.999 2.97376V5.94748H13.998Z" fill="#A435F0"/>
<path d="M-0.000976562 8.44467H3.66566V15C3.66566 16.6936 5.38443 17.5192 6.99853 17.5192C8.62658 17.5192 10.3324 16.6716 10.3324 14.9773V8.44467H13.999V15.1561C13.999 16.7163 13.3324 17.9202 11.9993 18.7458C10.6652 19.5706 8.99922 19.9724 6.96763 19.9724C4.93802 19.9724 3.27109 19.5713 1.96887 18.7458C0.665609 17.9209 -0.000976562 16.7618 -0.000976562 15.2228V8.44467Z" fill="black"/>
</g>
<defs>
<clipPath id="clip0_2929_906">
<rect width="14" height="20" fill="white"/>
</clipPath>
</defs>
</svg>
