<svg width="25" height="20" viewBox="0 0 25 20" fill="none" xmlns="http://www.w3.org/2000/svg">
<path d="M24.4485 3.1318C24.305 2.52643 24.0253 1.97454 23.6371 1.5311C23.2488 1.08766 22.7657 0.768136 22.2357 0.604351C20.2955 0 12.4874 0 12.4874 0C12.4874 0 4.67897 0.0183401 2.73903 0.622691C2.20909 0.786503 1.72597 1.10604 1.33778 1.54948C0.949579 1.99292 0.66985 2.54479 0.526446 3.15014C-0.0604155 7.08802 -0.288096 13.088 0.542501 16.8682C0.685906 17.4735 0.965634 18.0254 1.35383 18.4689C1.74203 18.9123 2.22515 19.2318 2.75508 19.3956C4.69518 20 12.5034 20 12.5034 20C12.5034 20 20.3117 20 22.2518 19.3956C22.7817 19.2318 23.2648 18.9123 23.653 18.4689C24.0412 18.0254 24.321 17.4735 24.4644 16.8682C25.0832 12.9249 25.274 6.92855 24.4483 3.13197L24.4485 3.1318Z" fill="#FF0000"/>
<path d="M10.001 14.2857L16.4785 10.0001L10.001 5.71423V14.2857Z" fill="white"/>
</svg>
